# Tiled2Unity generated file. Do not modify by hand.
# Wavefront file for 'OutlineTestMap_mesh_0007.obj'

# Vertices (Count = 952)
v -55 -18 0
v -56 -18 0
v -56 -17 0
v -55 -17 0
v -56 -18 0
v -57 -18 0
v -57 -17 0
v -56 -17 0
v -57 -18 0
v -58 -18 0
v -58 -17 0
v -57 -17 0
v -58 -18 0
v -59 -18 0
v -59 -17 0
v -58 -17 0
v -59 -18 0
v -60 -18 0
v -60 -17 0
v -59 -17 0
v -60 -18 0
v -61 -18 0
v -61 -17 0
v -60 -17 0
v -61 -18 0
v -62 -18 0
v -62 -17 0
v -61 -17 0
v -55 -19 0
v -56 -19 0
v -56 -18 0
v -55 -18 0
v -56 -19 0
v -57 -19 0
v -57 -18 0
v -56 -18 0
v -57 -19 0
v -58 -19 0
v -58 -18 0
v -57 -18 0
v -58 -19 0
v -59 -19 0
v -59 -18 0
v -58 -18 0
v -59 -19 0
v -60 -19 0
v -60 -18 0
v -59 -18 0
v -60 -19 0
v -61 -19 0
v -61 -18 0
v -60 -18 0
v -61 -19 0
v -62 -19 0
v -62 -18 0
v -61 -18 0
v -55 -20 0
v -56 -20 0
v -56 -19 0
v -55 -19 0
v -56 -20 0
v -57 -20 0
v -57 -19 0
v -56 -19 0
v -57 -20 0
v -58 -20 0
v -58 -19 0
v -57 -19 0
v -58 -20 0
v -59 -20 0
v -59 -19 0
v -58 -19 0
v -59 -20 0
v -60 -20 0
v -60 -19 0
v -59 -19 0
v -60 -20 0
v -61 -20 0
v -61 -19 0
v -60 -19 0
v -61 -20 0
v -62 -20 0
v -62 -19 0
v -61 -19 0
v -55 -21 0
v -56 -21 0
v -56 -20 0
v -55 -20 0
v -56 -21 0
v -57 -21 0
v -57 -20 0
v -56 -20 0
v -57 -21 0
v -58 -21 0
v -58 -20 0
v -57 -20 0
v -58 -21 0
v -59 -21 0
v -59 -20 0
v -58 -20 0
v -59 -21 0
v -60 -21 0
v -60 -20 0
v -59 -20 0
v -60 -21 0
v -61 -21 0
v -61 -20 0
v -60 -20 0
v -61 -21 0
v -62 -21 0
v -62 -20 0
v -61 -20 0
v -55 -22 0
v -56 -22 0
v -56 -21 0
v -55 -21 0
v -56 -22 0
v -57 -22 0
v -57 -21 0
v -56 -21 0
v -57 -22 0
v -58 -22 0
v -58 -21 0
v -57 -21 0
v -58 -22 0
v -59 -22 0
v -59 -21 0
v -58 -21 0
v -59 -22 0
v -60 -22 0
v -60 -21 0
v -59 -21 0
v -60 -22 0
v -61 -22 0
v -61 -21 0
v -60 -21 0
v -61 -22 0
v -62 -22 0
v -62 -21 0
v -61 -21 0
v -55 -23 0
v -56 -23 0
v -56 -22 0
v -55 -22 0
v -56 -23 0
v -57 -23 0
v -57 -22 0
v -56 -22 0
v -57 -23 0
v -58 -23 0
v -58 -22 0
v -57 -22 0
v -58 -23 0
v -59 -23 0
v -59 -22 0
v -58 -22 0
v -59 -23 0
v -60 -23 0
v -60 -22 0
v -59 -22 0
v -60 -23 0
v -61 -23 0
v -61 -22 0
v -60 -22 0
v -61 -23 0
v -62 -23 0
v -62 -22 0
v -61 -22 0
v -55 -24 0
v -56 -24 0
v -56 -23 0
v -55 -23 0
v -56 -24 0
v -57 -24 0
v -57 -23 0
v -56 -23 0
v -57 -24 0
v -58 -24 0
v -58 -23 0
v -57 -23 0
v -58 -24 0
v -59 -24 0
v -59 -23 0
v -58 -23 0
v -59 -24 0
v -60 -24 0
v -60 -23 0
v -59 -23 0
v -60 -24 0
v -61 -24 0
v -61 -23 0
v -60 -23 0
v -61 -24 0
v -62 -24 0
v -62 -23 0
v -61 -23 0
v -55 -25 0
v -56 -25 0
v -56 -24 0
v -55 -24 0
v -56 -25 0
v -57 -25 0
v -57 -24 0
v -56 -24 0
v -57 -25 0
v -58 -25 0
v -58 -24 0
v -57 -24 0
v -58 -25 0
v -59 -25 0
v -59 -24 0
v -58 -24 0
v -59 -25 0
v -60 -25 0
v -60 -24 0
v -59 -24 0
v -60 -25 0
v -61 -25 0
v -61 -24 0
v -60 -24 0
v -61 -25 0
v -62 -25 0
v -62 -24 0
v -61 -24 0
v -55 -26 0
v -56 -26 0
v -56 -25 0
v -55 -25 0
v -56 -26 0
v -57 -26 0
v -57 -25 0
v -56 -25 0
v -57 -26 0
v -58 -26 0
v -58 -25 0
v -57 -25 0
v -58 -26 0
v -59 -26 0
v -59 -25 0
v -58 -25 0
v -59 -26 0
v -60 -26 0
v -60 -25 0
v -59 -25 0
v -60 -26 0
v -61 -26 0
v -61 -25 0
v -60 -25 0
v -61 -26 0
v -62 -26 0
v -62 -25 0
v -61 -25 0
v -55 -27 0
v -56 -27 0
v -56 -26 0
v -55 -26 0
v -56 -27 0
v -57 -27 0
v -57 -26 0
v -56 -26 0
v -57 -27 0
v -58 -27 0
v -58 -26 0
v -57 -26 0
v -58 -27 0
v -59 -27 0
v -59 -26 0
v -58 -26 0
v -59 -27 0
v -60 -27 0
v -60 -26 0
v -59 -26 0
v -60 -27 0
v -61 -27 0
v -61 -26 0
v -60 -26 0
v -61 -27 0
v -62 -27 0
v -62 -26 0
v -61 -26 0
v -24 -28 0
v -25 -28 0
v -25 -27 0
v -24 -27 0
v -25 -28 0
v -26 -28 0
v -26 -27 0
v -25 -27 0
v -26 -28 0
v -27 -28 0
v -27 -27 0
v -26 -27 0
v -27 -28 0
v -28 -28 0
v -28 -27 0
v -27 -27 0
v -28 -28 0
v -29 -28 0
v -29 -27 0
v -28 -27 0
v -29 -28 0
v -30 -28 0
v -30 -27 0
v -29 -27 0
v -30 -28 0
v -31 -28 0
v -31 -27 0
v -30 -27 0
v -55 -28 0
v -56 -28 0
v -56 -27 0
v -55 -27 0
v -56 -28 0
v -57 -28 0
v -57 -27 0
v -56 -27 0
v -57 -28 0
v -58 -28 0
v -58 -27 0
v -57 -27 0
v -58 -28 0
v -59 -28 0
v -59 -27 0
v -58 -27 0
v -59 -28 0
v -60 -28 0
v -60 -27 0
v -59 -27 0
v -60 -28 0
v -61 -28 0
v -61 -27 0
v -60 -27 0
v -61 -28 0
v -62 -28 0
v -62 -27 0
v -61 -27 0
v -24 -29 0
v -25 -29 0
v -25 -28 0
v -24 -28 0
v -25 -29 0
v -26 -29 0
v -26 -28 0
v -25 -28 0
v -26 -29 0
v -27 -29 0
v -27 -28 0
v -26 -28 0
v -27 -29 0
v -28 -29 0
v -28 -28 0
v -27 -28 0
v -28 -29 0
v -29 -29 0
v -29 -28 0
v -28 -28 0
v -29 -29 0
v -30 -29 0
v -30 -28 0
v -29 -28 0
v -30 -29 0
v -31 -29 0
v -31 -28 0
v -30 -28 0
v -55 -29 0
v -56 -29 0
v -56 -28 0
v -55 -28 0
v -56 -29 0
v -57 -29 0
v -57 -28 0
v -56 -28 0
v -57 -29 0
v -58 -29 0
v -58 -28 0
v -57 -28 0
v -58 -29 0
v -59 -29 0
v -59 -28 0
v -58 -28 0
v -59 -29 0
v -60 -29 0
v -60 -28 0
v -59 -28 0
v -60 -29 0
v -61 -29 0
v -61 -28 0
v -60 -28 0
v -61 -29 0
v -62 -29 0
v -62 -28 0
v -61 -28 0
v -24 -30 0
v -25 -30 0
v -25 -29 0
v -24 -29 0
v -25 -30 0
v -26 -30 0
v -26 -29 0
v -25 -29 0
v -26 -30 0
v -27 -30 0
v -27 -29 0
v -26 -29 0
v -27 -30 0
v -28 -30 0
v -28 -29 0
v -27 -29 0
v -28 -30 0
v -29 -30 0
v -29 -29 0
v -28 -29 0
v -29 -30 0
v -30 -30 0
v -30 -29 0
v -29 -29 0
v -30 -30 0
v -31 -30 0
v -31 -29 0
v -30 -29 0
v -55 -30 0
v -56 -30 0
v -56 -29 0
v -55 -29 0
v -56 -30 0
v -57 -30 0
v -57 -29 0
v -56 -29 0
v -57 -30 0
v -58 -30 0
v -58 -29 0
v -57 -29 0
v -58 -30 0
v -59 -30 0
v -59 -29 0
v -58 -29 0
v -59 -30 0
v -60 -30 0
v -60 -29 0
v -59 -29 0
v -60 -30 0
v -61 -30 0
v -61 -29 0
v -60 -29 0
v -61 -30 0
v -62 -30 0
v -62 -29 0
v -61 -29 0
v -24 -31 0
v -25 -31 0
v -25 -30 0
v -24 -30 0
v -25 -31 0
v -26 -31 0
v -26 -30 0
v -25 -30 0
v -26 -31 0
v -27 -31 0
v -27 -30 0
v -26 -30 0
v -27 -31 0
v -28 -31 0
v -28 -30 0
v -27 -30 0
v -28 -31 0
v -29 -31 0
v -29 -30 0
v -28 -30 0
v -29 -31 0
v -30 -31 0
v -30 -30 0
v -29 -30 0
v -30 -31 0
v -31 -31 0
v -31 -30 0
v -30 -30 0
v -55 -31 0
v -56 -31 0
v -56 -30 0
v -55 -30 0
v -56 -31 0
v -57 -31 0
v -57 -30 0
v -56 -30 0
v -57 -31 0
v -58 -31 0
v -58 -30 0
v -57 -30 0
v -58 -31 0
v -59 -31 0
v -59 -30 0
v -58 -30 0
v -59 -31 0
v -60 -31 0
v -60 -30 0
v -59 -30 0
v -60 -31 0
v -61 -31 0
v -61 -30 0
v -60 -30 0
v -61 -31 0
v -62 -31 0
v -62 -30 0
v -61 -30 0
v -24 -32 0
v -25 -32 0
v -25 -31 0
v -24 -31 0
v -25 -32 0
v -26 -32 0
v -26 -31 0
v -25 -31 0
v -26 -32 0
v -27 -32 0
v -27 -31 0
v -26 -31 0
v -27 -32 0
v -28 -32 0
v -28 -31 0
v -27 -31 0
v -28 -32 0
v -29 -32 0
v -29 -31 0
v -28 -31 0
v -29 -32 0
v -30 -32 0
v -30 -31 0
v -29 -31 0
v -30 -32 0
v -31 -32 0
v -31 -31 0
v -30 -31 0
v -55 -32 0
v -56 -32 0
v -56 -31 0
v -55 -31 0
v -56 -32 0
v -57 -32 0
v -57 -31 0
v -56 -31 0
v -57 -32 0
v -58 -32 0
v -58 -31 0
v -57 -31 0
v -58 -32 0
v -59 -32 0
v -59 -31 0
v -58 -31 0
v -59 -32 0
v -60 -32 0
v -60 -31 0
v -59 -31 0
v -60 -32 0
v -61 -32 0
v -61 -31 0
v -60 -31 0
v -61 -32 0
v -62 -32 0
v -62 -31 0
v -61 -31 0
v -24 -33 0
v -25 -33 0
v -25 -32 0
v -24 -32 0
v -25 -33 0
v -26 -33 0
v -26 -32 0
v -25 -32 0
v -26 -33 0
v -27 -33 0
v -27 -32 0
v -26 -32 0
v -27 -33 0
v -28 -33 0
v -28 -32 0
v -27 -32 0
v -28 -33 0
v -29 -33 0
v -29 -32 0
v -28 -32 0
v -29 -33 0
v -30 -33 0
v -30 -32 0
v -29 -32 0
v -30 -33 0
v -31 -33 0
v -31 -32 0
v -30 -32 0
v -55 -33 0
v -56 -33 0
v -56 -32 0
v -55 -32 0
v -56 -33 0
v -57 -33 0
v -57 -32 0
v -56 -32 0
v -57 -33 0
v -58 -33 0
v -58 -32 0
v -57 -32 0
v -58 -33 0
v -59 -33 0
v -59 -32 0
v -58 -32 0
v -59 -33 0
v -60 -33 0
v -60 -32 0
v -59 -32 0
v -60 -33 0
v -61 -33 0
v -61 -32 0
v -60 -32 0
v -61 -33 0
v -62 -33 0
v -62 -32 0
v -61 -32 0
v -24 -34 0
v -25 -34 0
v -25 -33 0
v -24 -33 0
v -25 -34 0
v -26 -34 0
v -26 -33 0
v -25 -33 0
v -26 -34 0
v -27 -34 0
v -27 -33 0
v -26 -33 0
v -27 -34 0
v -28 -34 0
v -28 -33 0
v -27 -33 0
v -28 -34 0
v -29 -34 0
v -29 -33 0
v -28 -33 0
v -29 -34 0
v -30 -34 0
v -30 -33 0
v -29 -33 0
v -30 -34 0
v -31 -34 0
v -31 -33 0
v -30 -33 0
v -55 -34 0
v -56 -34 0
v -56 -33 0
v -55 -33 0
v -56 -34 0
v -57 -34 0
v -57 -33 0
v -56 -33 0
v -57 -34 0
v -58 -34 0
v -58 -33 0
v -57 -33 0
v -58 -34 0
v -59 -34 0
v -59 -33 0
v -58 -33 0
v -59 -34 0
v -60 -34 0
v -60 -33 0
v -59 -33 0
v -60 -34 0
v -61 -34 0
v -61 -33 0
v -60 -33 0
v -61 -34 0
v -62 -34 0
v -62 -33 0
v -61 -33 0
v -24 -35 0
v -25 -35 0
v -25 -34 0
v -24 -34 0
v -25 -35 0
v -26 -35 0
v -26 -34 0
v -25 -34 0
v -26 -35 0
v -27 -35 0
v -27 -34 0
v -26 -34 0
v -27 -35 0
v -28 -35 0
v -28 -34 0
v -27 -34 0
v -28 -35 0
v -29 -35 0
v -29 -34 0
v -28 -34 0
v -29 -35 0
v -30 -35 0
v -30 -34 0
v -29 -34 0
v -30 -35 0
v -31 -35 0
v -31 -34 0
v -30 -34 0
v -55 -35 0
v -56 -35 0
v -56 -34 0
v -55 -34 0
v -56 -35 0
v -57 -35 0
v -57 -34 0
v -56 -34 0
v -57 -35 0
v -58 -35 0
v -58 -34 0
v -57 -34 0
v -58 -35 0
v -59 -35 0
v -59 -34 0
v -58 -34 0
v -59 -35 0
v -60 -35 0
v -60 -34 0
v -59 -34 0
v -60 -35 0
v -61 -35 0
v -61 -34 0
v -60 -34 0
v -61 -35 0
v -62 -35 0
v -62 -34 0
v -61 -34 0
v -24 -36 0
v -25 -36 0
v -25 -35 0
v -24 -35 0
v -25 -36 0
v -26 -36 0
v -26 -35 0
v -25 -35 0
v -26 -36 0
v -27 -36 0
v -27 -35 0
v -26 -35 0
v -27 -36 0
v -28 -36 0
v -28 -35 0
v -27 -35 0
v -28 -36 0
v -29 -36 0
v -29 -35 0
v -28 -35 0
v -29 -36 0
v -30 -36 0
v -30 -35 0
v -29 -35 0
v -30 -36 0
v -31 -36 0
v -31 -35 0
v -30 -35 0
v -55 -36 0
v -56 -36 0
v -56 -35 0
v -55 -35 0
v -56 -36 0
v -57 -36 0
v -57 -35 0
v -56 -35 0
v -57 -36 0
v -58 -36 0
v -58 -35 0
v -57 -35 0
v -58 -36 0
v -59 -36 0
v -59 -35 0
v -58 -35 0
v -59 -36 0
v -60 -36 0
v -60 -35 0
v -59 -35 0
v -60 -36 0
v -61 -36 0
v -61 -35 0
v -60 -35 0
v -61 -36 0
v -62 -36 0
v -62 -35 0
v -61 -35 0
v -24 -37 0
v -25 -37 0
v -25 -36 0
v -24 -36 0
v -25 -37 0
v -26 -37 0
v -26 -36 0
v -25 -36 0
v -26 -37 0
v -27 -37 0
v -27 -36 0
v -26 -36 0
v -27 -37 0
v -28 -37 0
v -28 -36 0
v -27 -36 0
v -28 -37 0
v -29 -37 0
v -29 -36 0
v -28 -36 0
v -29 -37 0
v -30 -37 0
v -30 -36 0
v -29 -36 0
v -30 -37 0
v -31 -37 0
v -31 -36 0
v -30 -36 0
v -55 -37 0
v -56 -37 0
v -56 -36 0
v -55 -36 0
v -56 -37 0
v -57 -37 0
v -57 -36 0
v -56 -36 0
v -57 -37 0
v -58 -37 0
v -58 -36 0
v -57 -36 0
v -58 -37 0
v -59 -37 0
v -59 -36 0
v -58 -36 0
v -59 -37 0
v -60 -37 0
v -60 -36 0
v -59 -36 0
v -60 -37 0
v -61 -37 0
v -61 -36 0
v -60 -36 0
v -61 -37 0
v -62 -37 0
v -62 -36 0
v -61 -36 0
v -24 -38 0
v -25 -38 0
v -25 -37 0
v -24 -37 0
v -25 -38 0
v -26 -38 0
v -26 -37 0
v -25 -37 0
v -26 -38 0
v -27 -38 0
v -27 -37 0
v -26 -37 0
v -27 -38 0
v -28 -38 0
v -28 -37 0
v -27 -37 0
v -28 -38 0
v -29 -38 0
v -29 -37 0
v -28 -37 0
v -29 -38 0
v -30 -38 0
v -30 -37 0
v -29 -37 0
v -30 -38 0
v -31 -38 0
v -31 -37 0
v -30 -37 0
v -55 -38 0
v -56 -38 0
v -56 -37 0
v -55 -37 0
v -56 -38 0
v -57 -38 0
v -57 -37 0
v -56 -37 0
v -57 -38 0
v -58 -38 0
v -58 -37 0
v -57 -37 0
v -58 -38 0
v -59 -38 0
v -59 -37 0
v -58 -37 0
v -59 -38 0
v -60 -38 0
v -60 -37 0
v -59 -37 0
v -60 -38 0
v -61 -38 0
v -61 -37 0
v -60 -37 0
v -61 -38 0
v -62 -38 0
v -62 -37 0
v -61 -37 0
v -24 -39 0
v -25 -39 0
v -25 -38 0
v -24 -38 0
v -25 -39 0
v -26 -39 0
v -26 -38 0
v -25 -38 0
v -26 -39 0
v -27 -39 0
v -27 -38 0
v -26 -38 0
v -27 -39 0
v -28 -39 0
v -28 -38 0
v -27 -38 0
v -28 -39 0
v -29 -39 0
v -29 -38 0
v -28 -38 0
v -29 -39 0
v -30 -39 0
v -30 -38 0
v -29 -38 0
v -30 -39 0
v -31 -39 0
v -31 -38 0
v -30 -38 0
v -55 -39 0
v -56 -39 0
v -56 -38 0
v -55 -38 0
v -56 -39 0
v -57 -39 0
v -57 -38 0
v -56 -38 0
v -57 -39 0
v -58 -39 0
v -58 -38 0
v -57 -38 0
v -58 -39 0
v -59 -39 0
v -59 -38 0
v -58 -38 0
v -59 -39 0
v -60 -39 0
v -60 -38 0
v -59 -38 0
v -60 -39 0
v -61 -39 0
v -61 -38 0
v -60 -38 0
v -61 -39 0
v -62 -39 0
v -62 -38 0
v -61 -38 0

# Texture cooridinates (Count = 104)
vt 0 0.92
vt 0.1428571 0.92
vt 0.1428571 1
vt 0 1
vt 0.2857143 0.92
vt 0.2857143 1
vt 0.4285714 0.92
vt 0.4285714 1
vt 0.5714286 0.92
vt 0.5714286 1
vt 0.7142857 0.92
vt 0.7142857 1
vt 0.8571429 0.92
vt 0.8571429 1
vt 1 0.92
vt 1 1
vt 0 0.84
vt 0.1428571 0.84
vt 0.2857143 0.84
vt 0.4285714 0.84
vt 0.5714286 0.84
vt 0.7142857 0.84
vt 0.8571429 0.84
vt 1 0.84
vt 0 0.76
vt 0.1428571 0.76
vt 0.2857143 0.76
vt 0.4285714 0.76
vt 0.5714286 0.76
vt 0.7142857 0.76
vt 0.8571429 0.76
vt 1 0.76
vt 0 0.68
vt 0.1428571 0.68
vt 0.2857143 0.68
vt 0.4285714 0.68
vt 0.5714286 0.68
vt 0.7142857 0.68
vt 0.8571429 0.68
vt 1 0.68
vt 0 0.6
vt 0.1428571 0.6
vt 0.2857143 0.6
vt 0.4285714 0.6
vt 0.5714286 0.6
vt 0.7142857 0.6
vt 0.8571429 0.6
vt 1 0.6
vt 0 0.52
vt 0.1428571 0.52
vt 0.2857143 0.52
vt 0.4285714 0.52
vt 0.5714286 0.52
vt 0.7142857 0.52
vt 0.8571429 0.52
vt 1 0.52
vt 0 0.44
vt 0.1428571 0.44
vt 0.2857143 0.44
vt 0.4285714 0.44
vt 0.5714286 0.44
vt 0.7142857 0.44
vt 0.8571429 0.44
vt 1 0.44
vt 0 0.36
vt 0.1428571 0.36
vt 0.2857143 0.36
vt 0.4285714 0.36
vt 0.5714286 0.36
vt 0.7142857 0.36
vt 0.8571429 0.36
vt 1 0.36
vt 0 0.28
vt 0.1428571 0.28
vt 0.2857143 0.28
vt 0.4285714 0.28
vt 0.5714286 0.28
vt 0.7142857 0.28
vt 0.8571429 0.28
vt 1 0.28
vt 0 0.2
vt 0.1428571 0.2
vt 0.2857143 0.2
vt 0.4285714 0.2
vt 0.5714286 0.2
vt 0.7142857 0.2
vt 0.8571429 0.2
vt 1 0.2
vt 0 0.12
vt 0.1428571 0.12
vt 0.2857143 0.12
vt 0.4285714 0.12
vt 0.5714286 0.12
vt 0.7142857 0.12
vt 0.8571429 0.12
vt 1 0.12
vt 0 0.04000002
vt 0.1428571 0.04000002
vt 0.2857143 0.04000002
vt 0.4285714 0.04000002
vt 0.5714286 0.04000002
vt 0.7142857 0.04000002
vt 0.8571429 0.04000002
vt 1 0.04000002

# Normal
vn 0 0 -1

# Mesh description
g OutlineTestMap_mesh_0007

# Faces
f 1/1/1 2/2/1 3/3/1 4/4/1
f 5/2/1 6/5/1 7/6/1 8/3/1
f 9/5/1 10/7/1 11/8/1 12/6/1
f 13/7/1 14/9/1 15/10/1 16/8/1
f 17/9/1 18/11/1 19/12/1 20/10/1
f 21/11/1 22/13/1 23/14/1 24/12/1
f 25/13/1 26/15/1 27/16/1 28/14/1
f 29/17/1 30/18/1 31/2/1 32/1/1
f 33/18/1 34/19/1 35/5/1 36/2/1
f 37/19/1 38/20/1 39/7/1 40/5/1
f 41/20/1 42/21/1 43/9/1 44/7/1
f 45/21/1 46/22/1 47/11/1 48/9/1
f 49/22/1 50/23/1 51/13/1 52/11/1
f 53/23/1 54/24/1 55/15/1 56/13/1
f 57/25/1 58/26/1 59/18/1 60/17/1
f 61/26/1 62/27/1 63/19/1 64/18/1
f 65/27/1 66/28/1 67/20/1 68/19/1
f 69/28/1 70/29/1 71/21/1 72/20/1
f 73/29/1 74/30/1 75/22/1 76/21/1
f 77/30/1 78/31/1 79/23/1 80/22/1
f 81/31/1 82/32/1 83/24/1 84/23/1
f 85/33/1 86/34/1 87/26/1 88/25/1
f 89/34/1 90/35/1 91/27/1 92/26/1
f 93/35/1 94/36/1 95/28/1 96/27/1
f 97/36/1 98/37/1 99/29/1 100/28/1
f 101/37/1 102/38/1 103/30/1 104/29/1
f 105/38/1 106/39/1 107/31/1 108/30/1
f 109/39/1 110/40/1 111/32/1 112/31/1
f 113/41/1 114/42/1 115/34/1 116/33/1
f 117/42/1 118/43/1 119/35/1 120/34/1
f 121/43/1 122/44/1 123/36/1 124/35/1
f 125/44/1 126/45/1 127/37/1 128/36/1
f 129/45/1 130/46/1 131/38/1 132/37/1
f 133/46/1 134/47/1 135/39/1 136/38/1
f 137/47/1 138/48/1 139/40/1 140/39/1
f 141/49/1 142/50/1 143/42/1 144/41/1
f 145/50/1 146/51/1 147/43/1 148/42/1
f 149/51/1 150/52/1 151/44/1 152/43/1
f 153/52/1 154/53/1 155/45/1 156/44/1
f 157/53/1 158/54/1 159/46/1 160/45/1
f 161/54/1 162/55/1 163/47/1 164/46/1
f 165/55/1 166/56/1 167/48/1 168/47/1
f 169/57/1 170/58/1 171/50/1 172/49/1
f 173/58/1 174/59/1 175/51/1 176/50/1
f 177/59/1 178/60/1 179/52/1 180/51/1
f 181/60/1 182/61/1 183/53/1 184/52/1
f 185/61/1 186/62/1 187/54/1 188/53/1
f 189/62/1 190/63/1 191/55/1 192/54/1
f 193/63/1 194/64/1 195/56/1 196/55/1
f 197/65/1 198/66/1 199/58/1 200/57/1
f 201/66/1 202/67/1 203/59/1 204/58/1
f 205/67/1 206/68/1 207/60/1 208/59/1
f 209/68/1 210/69/1 211/61/1 212/60/1
f 213/69/1 214/70/1 215/62/1 216/61/1
f 217/70/1 218/71/1 219/63/1 220/62/1
f 221/71/1 222/72/1 223/64/1 224/63/1
f 225/73/1 226/74/1 227/66/1 228/65/1
f 229/74/1 230/75/1 231/67/1 232/66/1
f 233/75/1 234/76/1 235/68/1 236/67/1
f 237/76/1 238/77/1 239/69/1 240/68/1
f 241/77/1 242/78/1 243/70/1 244/69/1
f 245/78/1 246/79/1 247/71/1 248/70/1
f 249/79/1 250/80/1 251/72/1 252/71/1
f 253/81/1 254/82/1 255/74/1 256/73/1
f 257/82/1 258/83/1 259/75/1 260/74/1
f 261/83/1 262/84/1 263/76/1 264/75/1
f 265/84/1 266/85/1 267/77/1 268/76/1
f 269/85/1 270/86/1 271/78/1 272/77/1
f 273/86/1 274/87/1 275/79/1 276/78/1
f 277/87/1 278/88/1 279/80/1 280/79/1
f 281/1/1 282/2/1 283/3/1 284/4/1
f 285/2/1 286/5/1 287/6/1 288/3/1
f 289/5/1 290/7/1 291/8/1 292/6/1
f 293/7/1 294/9/1 295/10/1 296/8/1
f 297/9/1 298/11/1 299/12/1 300/10/1
f 301/11/1 302/13/1 303/14/1 304/12/1
f 305/13/1 306/15/1 307/16/1 308/14/1
f 309/89/1 310/90/1 311/82/1 312/81/1
f 313/90/1 314/91/1 315/83/1 316/82/1
f 317/91/1 318/92/1 319/84/1 320/83/1
f 321/92/1 322/93/1 323/85/1 324/84/1
f 325/93/1 326/94/1 327/86/1 328/85/1
f 329/94/1 330/95/1 331/87/1 332/86/1
f 333/95/1 334/96/1 335/88/1 336/87/1
f 337/17/1 338/18/1 339/2/1 340/1/1
f 341/18/1 342/19/1 343/5/1 344/2/1
f 345/19/1 346/20/1 347/7/1 348/5/1
f 349/20/1 350/21/1 351/9/1 352/7/1
f 353/21/1 354/22/1 355/11/1 356/9/1
f 357/22/1 358/23/1 359/13/1 360/11/1
f 361/23/1 362/24/1 363/15/1 364/13/1
f 365/1/1 366/2/1 367/3/1 368/4/1
f 369/2/1 370/5/1 371/6/1 372/3/1
f 373/5/1 374/7/1 375/8/1 376/6/1
f 377/7/1 378/9/1 379/10/1 380/8/1
f 381/9/1 382/11/1 383/12/1 384/10/1
f 385/11/1 386/13/1 387/14/1 388/12/1
f 389/13/1 390/15/1 391/16/1 392/14/1
f 393/25/1 394/26/1 395/18/1 396/17/1
f 397/26/1 398/27/1 399/19/1 400/18/1
f 401/27/1 402/28/1 403/20/1 404/19/1
f 405/28/1 406/29/1 407/21/1 408/20/1
f 409/29/1 410/30/1 411/22/1 412/21/1
f 413/30/1 414/31/1 415/23/1 416/22/1
f 417/31/1 418/32/1 419/24/1 420/23/1
f 421/17/1 422/18/1 423/2/1 424/1/1
f 425/18/1 426/19/1 427/5/1 428/2/1
f 429/19/1 430/20/1 431/7/1 432/5/1
f 433/20/1 434/21/1 435/9/1 436/7/1
f 437/21/1 438/22/1 439/11/1 440/9/1
f 441/22/1 442/23/1 443/13/1 444/11/1
f 445/23/1 446/24/1 447/15/1 448/13/1
f 449/33/1 450/34/1 451/26/1 452/25/1
f 453/34/1 454/35/1 455/27/1 456/26/1
f 457/35/1 458/36/1 459/28/1 460/27/1
f 461/36/1 462/37/1 463/29/1 464/28/1
f 465/37/1 466/38/1 467/30/1 468/29/1
f 469/38/1 470/39/1 471/31/1 472/30/1
f 473/39/1 474/40/1 475/32/1 476/31/1
f 477/25/1 478/26/1 479/18/1 480/17/1
f 481/26/1 482/27/1 483/19/1 484/18/1
f 485/27/1 486/28/1 487/20/1 488/19/1
f 489/28/1 490/29/1 491/21/1 492/20/1
f 493/29/1 494/30/1 495/22/1 496/21/1
f 497/30/1 498/31/1 499/23/1 500/22/1
f 501/31/1 502/32/1 503/24/1 504/23/1
f 505/41/1 506/42/1 507/34/1 508/33/1
f 509/42/1 510/43/1 511/35/1 512/34/1
f 513/43/1 514/44/1 515/36/1 516/35/1
f 517/44/1 518/45/1 519/37/1 520/36/1
f 521/45/1 522/46/1 523/38/1 524/37/1
f 525/46/1 526/47/1 527/39/1 528/38/1
f 529/47/1 530/48/1 531/40/1 532/39/1
f 533/33/1 534/34/1 535/26/1 536/25/1
f 537/34/1 538/35/1 539/27/1 540/26/1
f 541/35/1 542/36/1 543/28/1 544/27/1
f 545/36/1 546/37/1 547/29/1 548/28/1
f 549/37/1 550/38/1 551/30/1 552/29/1
f 553/38/1 554/39/1 555/31/1 556/30/1
f 557/39/1 558/40/1 559/32/1 560/31/1
f 561/49/1 562/50/1 563/42/1 564/41/1
f 565/50/1 566/51/1 567/43/1 568/42/1
f 569/51/1 570/52/1 571/44/1 572/43/1
f 573/52/1 574/53/1 575/45/1 576/44/1
f 577/53/1 578/54/1 579/46/1 580/45/1
f 581/54/1 582/55/1 583/47/1 584/46/1
f 585/55/1 586/56/1 587/48/1 588/47/1
f 589/41/1 590/42/1 591/34/1 592/33/1
f 593/42/1 594/43/1 595/35/1 596/34/1
f 597/43/1 598/44/1 599/36/1 600/35/1
f 601/44/1 602/45/1 603/37/1 604/36/1
f 605/45/1 606/46/1 607/38/1 608/37/1
f 609/46/1 610/47/1 611/39/1 612/38/1
f 613/47/1 614/48/1 615/40/1 616/39/1
f 617/57/1 618/58/1 619/50/1 620/49/1
f 621/58/1 622/59/1 623/51/1 624/50/1
f 625/59/1 626/60/1 627/52/1 628/51/1
f 629/60/1 630/61/1 631/53/1 632/52/1
f 633/61/1 634/62/1 635/54/1 636/53/1
f 637/62/1 638/63/1 639/55/1 640/54/1
f 641/63/1 642/64/1 643/56/1 644/55/1
f 645/49/1 646/50/1 647/42/1 648/41/1
f 649/50/1 650/51/1 651/43/1 652/42/1
f 653/51/1 654/52/1 655/44/1 656/43/1
f 657/52/1 658/53/1 659/45/1 660/44/1
f 661/53/1 662/54/1 663/46/1 664/45/1
f 665/54/1 666/55/1 667/47/1 668/46/1
f 669/55/1 670/56/1 671/48/1 672/47/1
f 673/65/1 674/66/1 675/58/1 676/57/1
f 677/66/1 678/67/1 679/59/1 680/58/1
f 681/67/1 682/68/1 683/60/1 684/59/1
f 685/68/1 686/69/1 687/61/1 688/60/1
f 689/69/1 690/70/1 691/62/1 692/61/1
f 693/70/1 694/71/1 695/63/1 696/62/1
f 697/71/1 698/72/1 699/64/1 700/63/1
f 701/57/1 702/58/1 703/50/1 704/49/1
f 705/58/1 706/59/1 707/51/1 708/50/1
f 709/59/1 710/60/1 711/52/1 712/51/1
f 713/60/1 714/61/1 715/53/1 716/52/1
f 717/61/1 718/62/1 719/54/1 720/53/1
f 721/62/1 722/63/1 723/55/1 724/54/1
f 725/63/1 726/64/1 727/56/1 728/55/1
f 729/73/1 730/74/1 731/66/1 732/65/1
f 733/74/1 734/75/1 735/67/1 736/66/1
f 737/75/1 738/76/1 739/68/1 740/67/1
f 741/76/1 742/77/1 743/69/1 744/68/1
f 745/77/1 746/78/1 747/70/1 748/69/1
f 749/78/1 750/79/1 751/71/1 752/70/1
f 753/79/1 754/80/1 755/72/1 756/71/1
f 757/65/1 758/66/1 759/58/1 760/57/1
f 761/66/1 762/67/1 763/59/1 764/58/1
f 765/67/1 766/68/1 767/60/1 768/59/1
f 769/68/1 770/69/1 771/61/1 772/60/1
f 773/69/1 774/70/1 775/62/1 776/61/1
f 777/70/1 778/71/1 779/63/1 780/62/1
f 781/71/1 782/72/1 783/64/1 784/63/1
f 785/81/1 786/82/1 787/74/1 788/73/1
f 789/82/1 790/83/1 791/75/1 792/74/1
f 793/83/1 794/84/1 795/76/1 796/75/1
f 797/84/1 798/85/1 799/77/1 800/76/1
f 801/85/1 802/86/1 803/78/1 804/77/1
f 805/86/1 806/87/1 807/79/1 808/78/1
f 809/87/1 810/88/1 811/80/1 812/79/1
f 813/73/1 814/74/1 815/66/1 816/65/1
f 817/74/1 818/75/1 819/67/1 820/66/1
f 821/75/1 822/76/1 823/68/1 824/67/1
f 825/76/1 826/77/1 827/69/1 828/68/1
f 829/77/1 830/78/1 831/70/1 832/69/1
f 833/78/1 834/79/1 835/71/1 836/70/1
f 837/79/1 838/80/1 839/72/1 840/71/1
f 841/89/1 842/90/1 843/82/1 844/81/1
f 845/90/1 846/91/1 847/83/1 848/82/1
f 849/91/1 850/92/1 851/84/1 852/83/1
f 853/92/1 854/93/1 855/85/1 856/84/1
f 857/93/1 858/94/1 859/86/1 860/85/1
f 861/94/1 862/95/1 863/87/1 864/86/1
f 865/95/1 866/96/1 867/88/1 868/87/1
f 869/81/1 870/82/1 871/74/1 872/73/1
f 873/82/1 874/83/1 875/75/1 876/74/1
f 877/83/1 878/84/1 879/76/1 880/75/1
f 881/84/1 882/85/1 883/77/1 884/76/1
f 885/85/1 886/86/1 887/78/1 888/77/1
f 889/86/1 890/87/1 891/79/1 892/78/1
f 893/87/1 894/88/1 895/80/1 896/79/1
f 897/97/1 898/98/1 899/90/1 900/89/1
f 901/98/1 902/99/1 903/91/1 904/90/1
f 905/99/1 906/100/1 907/92/1 908/91/1
f 909/100/1 910/101/1 911/93/1 912/92/1
f 913/101/1 914/102/1 915/94/1 916/93/1
f 917/102/1 918/103/1 919/95/1 920/94/1
f 921/103/1 922/104/1 923/96/1 924/95/1
f 925/89/1 926/90/1 927/82/1 928/81/1
f 929/90/1 930/91/1 931/83/1 932/82/1
f 933/91/1 934/92/1 935/84/1 936/83/1
f 937/92/1 938/93/1 939/85/1 940/84/1
f 941/93/1 942/94/1 943/86/1 944/85/1
f 945/94/1 946/95/1 947/87/1 948/86/1
f 949/95/1 950/96/1 951/88/1 952/87/1

