# Tiled2Unity generated file. Do not modify by hand.
# Wavefront file for 'OutlineTestMap_mesh_0002.obj'

# Vertices (Count = 392)
v 0 -17 0
v -1 -17 0
v -1 -16 0
v 0 -16 0
v -1 -17 0
v -2 -17 0
v -2 -16 0
v -1 -16 0
v -2 -17 0
v -3 -17 0
v -3 -16 0
v -2 -16 0
v -3 -17 0
v -4 -17 0
v -4 -16 0
v -3 -16 0
v -4 -17 0
v -5 -17 0
v -5 -16 0
v -4 -16 0
v -5 -17 0
v -6 -17 0
v -6 -16 0
v -5 -16 0
v -6 -17 0
v -7 -17 0
v -7 -16 0
v -6 -16 0
v -25 -17 0
v -26 -17 0
v -26 -16 0
v -25 -16 0
v -26 -17 0
v -27 -17 0
v -27 -16 0
v -26 -16 0
v -27 -17 0
v -28 -17 0
v -28 -16 0
v -27 -16 0
v -28 -17 0
v -29 -17 0
v -29 -16 0
v -28 -16 0
v -29 -17 0
v -30 -17 0
v -30 -16 0
v -29 -16 0
v -30 -17 0
v -31 -17 0
v -31 -16 0
v -30 -16 0
v -31 -17 0
v -32 -17 0
v -32 -16 0
v -31 -16 0
v 0 -18 0
v -1 -18 0
v -1 -17 0
v 0 -17 0
v -1 -18 0
v -2 -18 0
v -2 -17 0
v -1 -17 0
v -2 -18 0
v -3 -18 0
v -3 -17 0
v -2 -17 0
v -3 -18 0
v -4 -18 0
v -4 -17 0
v -3 -17 0
v -4 -18 0
v -5 -18 0
v -5 -17 0
v -4 -17 0
v -5 -18 0
v -6 -18 0
v -6 -17 0
v -5 -17 0
v -6 -18 0
v -7 -18 0
v -7 -17 0
v -6 -17 0
v -25 -18 0
v -26 -18 0
v -26 -17 0
v -25 -17 0
v -26 -18 0
v -27 -18 0
v -27 -17 0
v -26 -17 0
v -27 -18 0
v -28 -18 0
v -28 -17 0
v -27 -17 0
v -28 -18 0
v -29 -18 0
v -29 -17 0
v -28 -17 0
v -29 -18 0
v -30 -18 0
v -30 -17 0
v -29 -17 0
v -30 -18 0
v -31 -18 0
v -31 -17 0
v -30 -17 0
v -31 -18 0
v -32 -18 0
v -32 -17 0
v -31 -17 0
v 0 -19 0
v -1 -19 0
v -1 -18 0
v 0 -18 0
v -1 -19 0
v -2 -19 0
v -2 -18 0
v -1 -18 0
v -2 -19 0
v -3 -19 0
v -3 -18 0
v -2 -18 0
v -3 -19 0
v -4 -19 0
v -4 -18 0
v -3 -18 0
v -4 -19 0
v -5 -19 0
v -5 -18 0
v -4 -18 0
v -5 -19 0
v -6 -19 0
v -6 -18 0
v -5 -18 0
v -6 -19 0
v -7 -19 0
v -7 -18 0
v -6 -18 0
v -25 -19 0
v -26 -19 0
v -26 -18 0
v -25 -18 0
v -26 -19 0
v -27 -19 0
v -27 -18 0
v -26 -18 0
v -27 -19 0
v -28 -19 0
v -28 -18 0
v -27 -18 0
v -28 -19 0
v -29 -19 0
v -29 -18 0
v -28 -18 0
v -29 -19 0
v -30 -19 0
v -30 -18 0
v -29 -18 0
v -30 -19 0
v -31 -19 0
v -31 -18 0
v -30 -18 0
v -31 -19 0
v -32 -19 0
v -32 -18 0
v -31 -18 0
v 0 -20 0
v -1 -20 0
v -1 -19 0
v 0 -19 0
v -1 -20 0
v -2 -20 0
v -2 -19 0
v -1 -19 0
v -2 -20 0
v -3 -20 0
v -3 -19 0
v -2 -19 0
v -3 -20 0
v -4 -20 0
v -4 -19 0
v -3 -19 0
v -4 -20 0
v -5 -20 0
v -5 -19 0
v -4 -19 0
v -5 -20 0
v -6 -20 0
v -6 -19 0
v -5 -19 0
v -6 -20 0
v -7 -20 0
v -7 -19 0
v -6 -19 0
v -25 -20 0
v -26 -20 0
v -26 -19 0
v -25 -19 0
v -26 -20 0
v -27 -20 0
v -27 -19 0
v -26 -19 0
v -27 -20 0
v -28 -20 0
v -28 -19 0
v -27 -19 0
v -28 -20 0
v -29 -20 0
v -29 -19 0
v -28 -19 0
v -29 -20 0
v -30 -20 0
v -30 -19 0
v -29 -19 0
v -30 -20 0
v -31 -20 0
v -31 -19 0
v -30 -19 0
v -31 -20 0
v -32 -20 0
v -32 -19 0
v -31 -19 0
v 0 -21 0
v -1 -21 0
v -1 -20 0
v 0 -20 0
v -1 -21 0
v -2 -21 0
v -2 -20 0
v -1 -20 0
v -2 -21 0
v -3 -21 0
v -3 -20 0
v -2 -20 0
v -3 -21 0
v -4 -21 0
v -4 -20 0
v -3 -20 0
v -4 -21 0
v -5 -21 0
v -5 -20 0
v -4 -20 0
v -5 -21 0
v -6 -21 0
v -6 -20 0
v -5 -20 0
v -6 -21 0
v -7 -21 0
v -7 -20 0
v -6 -20 0
v -25 -21 0
v -26 -21 0
v -26 -20 0
v -25 -20 0
v -26 -21 0
v -27 -21 0
v -27 -20 0
v -26 -20 0
v -27 -21 0
v -28 -21 0
v -28 -20 0
v -27 -20 0
v -28 -21 0
v -29 -21 0
v -29 -20 0
v -28 -20 0
v -29 -21 0
v -30 -21 0
v -30 -20 0
v -29 -20 0
v -30 -21 0
v -31 -21 0
v -31 -20 0
v -30 -20 0
v -31 -21 0
v -32 -21 0
v -32 -20 0
v -31 -20 0
v 0 -22 0
v -1 -22 0
v -1 -21 0
v 0 -21 0
v -1 -22 0
v -2 -22 0
v -2 -21 0
v -1 -21 0
v -2 -22 0
v -3 -22 0
v -3 -21 0
v -2 -21 0
v -3 -22 0
v -4 -22 0
v -4 -21 0
v -3 -21 0
v -4 -22 0
v -5 -22 0
v -5 -21 0
v -4 -21 0
v -5 -22 0
v -6 -22 0
v -6 -21 0
v -5 -21 0
v -6 -22 0
v -7 -22 0
v -7 -21 0
v -6 -21 0
v -25 -22 0
v -26 -22 0
v -26 -21 0
v -25 -21 0
v -26 -22 0
v -27 -22 0
v -27 -21 0
v -26 -21 0
v -27 -22 0
v -28 -22 0
v -28 -21 0
v -27 -21 0
v -28 -22 0
v -29 -22 0
v -29 -21 0
v -28 -21 0
v -29 -22 0
v -30 -22 0
v -30 -21 0
v -29 -21 0
v -30 -22 0
v -31 -22 0
v -31 -21 0
v -30 -21 0
v -31 -22 0
v -32 -22 0
v -32 -21 0
v -31 -21 0
v 0 -23 0
v -1 -23 0
v -1 -22 0
v 0 -22 0
v -1 -23 0
v -2 -23 0
v -2 -22 0
v -1 -22 0
v -2 -23 0
v -3 -23 0
v -3 -22 0
v -2 -22 0
v -3 -23 0
v -4 -23 0
v -4 -22 0
v -3 -22 0
v -4 -23 0
v -5 -23 0
v -5 -22 0
v -4 -22 0
v -5 -23 0
v -6 -23 0
v -6 -22 0
v -5 -22 0
v -6 -23 0
v -7 -23 0
v -7 -22 0
v -6 -22 0
v -25 -23 0
v -26 -23 0
v -26 -22 0
v -25 -22 0
v -26 -23 0
v -27 -23 0
v -27 -22 0
v -26 -22 0
v -27 -23 0
v -28 -23 0
v -28 -22 0
v -27 -22 0
v -28 -23 0
v -29 -23 0
v -29 -22 0
v -28 -22 0
v -29 -23 0
v -30 -23 0
v -30 -22 0
v -29 -22 0
v -30 -23 0
v -31 -23 0
v -31 -22 0
v -30 -22 0
v -31 -23 0
v -32 -23 0
v -32 -22 0
v -31 -22 0

# Texture cooridinates (Count = 64)
vt 0 0.8571429
vt 0.1428571 0.8571429
vt 0.1428571 1
vt 0 1
vt 0.2857143 0.8571429
vt 0.2857143 1
vt 0.4285714 0.8571429
vt 0.4285714 1
vt 0.5714286 0.8571429
vt 0.5714286 1
vt 0.7142857 0.8571429
vt 0.7142857 1
vt 0.8571429 0.8571429
vt 0.8571429 1
vt 1 0.8571429
vt 1 1
vt 0 0.7142857
vt 0.1428571 0.7142857
vt 0.2857143 0.7142857
vt 0.4285714 0.7142857
vt 0.5714286 0.7142857
vt 0.7142857 0.7142857
vt 0.8571429 0.7142857
vt 1 0.7142857
vt 0 0.5714285
vt 0.1428571 0.5714285
vt 0.2857143 0.5714285
vt 0.4285714 0.5714285
vt 0.5714286 0.5714285
vt 0.7142857 0.5714285
vt 0.8571429 0.5714285
vt 1 0.5714285
vt 0 0.4285714
vt 0.1428571 0.4285714
vt 0.2857143 0.4285714
vt 0.4285714 0.4285714
vt 0.5714286 0.4285714
vt 0.7142857 0.4285714
vt 0.8571429 0.4285714
vt 1 0.4285714
vt 0 0.2857143
vt 0.1428571 0.2857143
vt 0.2857143 0.2857143
vt 0.4285714 0.2857143
vt 0.5714286 0.2857143
vt 0.7142857 0.2857143
vt 0.8571429 0.2857143
vt 1 0.2857143
vt 0 0.1428571
vt 0.1428571 0.1428571
vt 0.2857143 0.1428571
vt 0.4285714 0.1428571
vt 0.5714286 0.1428571
vt 0.7142857 0.1428571
vt 0.8571429 0.1428571
vt 1 0.1428571
vt 0 0
vt 0.1428571 0
vt 0.2857143 0
vt 0.4285714 0
vt 0.5714286 0
vt 0.7142857 0
vt 0.8571429 0
vt 1 0

# Normal
vn 0 0 -1

# Mesh description
g OutlineTestMap_mesh_0002

# Faces
f 1/1/1 2/2/1 3/3/1 4/4/1
f 5/2/1 6/5/1 7/6/1 8/3/1
f 9/5/1 10/7/1 11/8/1 12/6/1
f 13/7/1 14/9/1 15/10/1 16/8/1
f 17/9/1 18/11/1 19/12/1 20/10/1
f 21/11/1 22/13/1 23/14/1 24/12/1
f 25/13/1 26/15/1 27/16/1 28/14/1
f 29/1/1 30/2/1 31/3/1 32/4/1
f 33/2/1 34/5/1 35/6/1 36/3/1
f 37/5/1 38/7/1 39/8/1 40/6/1
f 41/7/1 42/9/1 43/10/1 44/8/1
f 45/9/1 46/11/1 47/12/1 48/10/1
f 49/11/1 50/13/1 51/14/1 52/12/1
f 53/13/1 54/15/1 55/16/1 56/14/1
f 57/17/1 58/18/1 59/2/1 60/1/1
f 61/18/1 62/19/1 63/5/1 64/2/1
f 65/19/1 66/20/1 67/7/1 68/5/1
f 69/20/1 70/21/1 71/9/1 72/7/1
f 73/21/1 74/22/1 75/11/1 76/9/1
f 77/22/1 78/23/1 79/13/1 80/11/1
f 81/23/1 82/24/1 83/15/1 84/13/1
f 85/17/1 86/18/1 87/2/1 88/1/1
f 89/18/1 90/19/1 91/5/1 92/2/1
f 93/19/1 94/20/1 95/7/1 96/5/1
f 97/20/1 98/21/1 99/9/1 100/7/1
f 101/21/1 102/22/1 103/11/1 104/9/1
f 105/22/1 106/23/1 107/13/1 108/11/1
f 109/23/1 110/24/1 111/15/1 112/13/1
f 113/25/1 114/26/1 115/18/1 116/17/1
f 117/26/1 118/27/1 119/19/1 120/18/1
f 121/27/1 122/28/1 123/20/1 124/19/1
f 125/28/1 126/29/1 127/21/1 128/20/1
f 129/29/1 130/30/1 131/22/1 132/21/1
f 133/30/1 134/31/1 135/23/1 136/22/1
f 137/31/1 138/32/1 139/24/1 140/23/1
f 141/25/1 142/26/1 143/18/1 144/17/1
f 145/26/1 146/27/1 147/19/1 148/18/1
f 149/27/1 150/28/1 151/20/1 152/19/1
f 153/28/1 154/29/1 155/21/1 156/20/1
f 157/29/1 158/30/1 159/22/1 160/21/1
f 161/30/1 162/31/1 163/23/1 164/22/1
f 165/31/1 166/32/1 167/24/1 168/23/1
f 169/33/1 170/34/1 171/26/1 172/25/1
f 173/34/1 174/35/1 175/27/1 176/26/1
f 177/35/1 178/36/1 179/28/1 180/27/1
f 181/36/1 182/37/1 183/29/1 184/28/1
f 185/37/1 186/38/1 187/30/1 188/29/1
f 189/38/1 190/39/1 191/31/1 192/30/1
f 193/39/1 194/40/1 195/32/1 196/31/1
f 197/33/1 198/34/1 199/26/1 200/25/1
f 201/34/1 202/35/1 203/27/1 204/26/1
f 205/35/1 206/36/1 207/28/1 208/27/1
f 209/36/1 210/37/1 211/29/1 212/28/1
f 213/37/1 214/38/1 215/30/1 216/29/1
f 217/38/1 218/39/1 219/31/1 220/30/1
f 221/39/1 222/40/1 223/32/1 224/31/1
f 225/41/1 226/42/1 227/34/1 228/33/1
f 229/42/1 230/43/1 231/35/1 232/34/1
f 233/43/1 234/44/1 235/36/1 236/35/1
f 237/44/1 238/45/1 239/37/1 240/36/1
f 241/45/1 242/46/1 243/38/1 244/37/1
f 245/46/1 246/47/1 247/39/1 248/38/1
f 249/47/1 250/48/1 251/40/1 252/39/1
f 253/41/1 254/42/1 255/34/1 256/33/1
f 257/42/1 258/43/1 259/35/1 260/34/1
f 261/43/1 262/44/1 263/36/1 264/35/1
f 265/44/1 266/45/1 267/37/1 268/36/1
f 269/45/1 270/46/1 271/38/1 272/37/1
f 273/46/1 274/47/1 275/39/1 276/38/1
f 277/47/1 278/48/1 279/40/1 280/39/1
f 281/49/1 282/50/1 283/42/1 284/41/1
f 285/50/1 286/51/1 287/43/1 288/42/1
f 289/51/1 290/52/1 291/44/1 292/43/1
f 293/52/1 294/53/1 295/45/1 296/44/1
f 297/53/1 298/54/1 299/46/1 300/45/1
f 301/54/1 302/55/1 303/47/1 304/46/1
f 305/55/1 306/56/1 307/48/1 308/47/1
f 309/49/1 310/50/1 311/42/1 312/41/1
f 313/50/1 314/51/1 315/43/1 316/42/1
f 317/51/1 318/52/1 319/44/1 320/43/1
f 321/52/1 322/53/1 323/45/1 324/44/1
f 325/53/1 326/54/1 327/46/1 328/45/1
f 329/54/1 330/55/1 331/47/1 332/46/1
f 333/55/1 334/56/1 335/48/1 336/47/1
f 337/57/1 338/58/1 339/50/1 340/49/1
f 341/58/1 342/59/1 343/51/1 344/50/1
f 345/59/1 346/60/1 347/52/1 348/51/1
f 349/60/1 350/61/1 351/53/1 352/52/1
f 353/61/1 354/62/1 355/54/1 356/53/1
f 357/62/1 358/63/1 359/55/1 360/54/1
f 361/63/1 362/64/1 363/56/1 364/55/1
f 365/57/1 366/58/1 367/50/1 368/49/1
f 369/58/1 370/59/1 371/51/1 372/50/1
f 373/59/1 374/60/1 375/52/1 376/51/1
f 377/60/1 378/61/1 379/53/1 380/52/1
f 381/61/1 382/62/1 383/54/1 384/53/1
f 385/62/1 386/63/1 387/55/1 388/54/1
f 389/63/1 390/64/1 391/56/1 392/55/1

