# Tiled2Unity generated file. Do not modify by hand.
# Wavefront file for 'OutlineTestMap_mesh_0004.obj'

# Vertices (Count = 168)
v -14 -17 0
v -15 -17 0
v -15 -16 0
v -14 -16 0
v -15 -17 0
v -16 -17 0
v -16 -16 0
v -15 -16 0
v -16 -17 0
v -17 -17 0
v -17 -16 0
v -16 -16 0
v -36 -17 0
v -37 -17 0
v -37 -16 0
v -36 -16 0
v -37 -17 0
v -38 -17 0
v -38 -16 0
v -37 -16 0
v -38 -17 0
v -39 -17 0
v -39 -16 0
v -38 -16 0
v -14 -18 0
v -15 -18 0
v -15 -17 0
v -14 -17 0
v -15 -18 0
v -16 -18 0
v -16 -17 0
v -15 -17 0
v -16 -18 0
v -17 -18 0
v -17 -17 0
v -16 -17 0
v -36 -18 0
v -37 -18 0
v -37 -17 0
v -36 -17 0
v -37 -18 0
v -38 -18 0
v -38 -17 0
v -37 -17 0
v -38 -18 0
v -39 -18 0
v -39 -17 0
v -38 -17 0
v -14 -19 0
v -15 -19 0
v -15 -18 0
v -14 -18 0
v -15 -19 0
v -16 -19 0
v -16 -18 0
v -15 -18 0
v -16 -19 0
v -17 -19 0
v -17 -18 0
v -16 -18 0
v -36 -19 0
v -37 -19 0
v -37 -18 0
v -36 -18 0
v -37 -19 0
v -38 -19 0
v -38 -18 0
v -37 -18 0
v -38 -19 0
v -39 -19 0
v -39 -18 0
v -38 -18 0
v -14 -20 0
v -15 -20 0
v -15 -19 0
v -14 -19 0
v -15 -20 0
v -16 -20 0
v -16 -19 0
v -15 -19 0
v -16 -20 0
v -17 -20 0
v -17 -19 0
v -16 -19 0
v -36 -20 0
v -37 -20 0
v -37 -19 0
v -36 -19 0
v -37 -20 0
v -38 -20 0
v -38 -19 0
v -37 -19 0
v -38 -20 0
v -39 -20 0
v -39 -19 0
v -38 -19 0
v -14 -21 0
v -15 -21 0
v -15 -20 0
v -14 -20 0
v -15 -21 0
v -16 -21 0
v -16 -20 0
v -15 -20 0
v -16 -21 0
v -17 -21 0
v -17 -20 0
v -16 -20 0
v -36 -21 0
v -37 -21 0
v -37 -20 0
v -36 -20 0
v -37 -21 0
v -38 -21 0
v -38 -20 0
v -37 -20 0
v -38 -21 0
v -39 -21 0
v -39 -20 0
v -38 -20 0
v -14 -22 0
v -15 -22 0
v -15 -21 0
v -14 -21 0
v -15 -22 0
v -16 -22 0
v -16 -21 0
v -15 -21 0
v -16 -22 0
v -17 -22 0
v -17 -21 0
v -16 -21 0
v -36 -22 0
v -37 -22 0
v -37 -21 0
v -36 -21 0
v -37 -22 0
v -38 -22 0
v -38 -21 0
v -37 -21 0
v -38 -22 0
v -39 -22 0
v -39 -21 0
v -38 -21 0
v -14 -23 0
v -15 -23 0
v -15 -22 0
v -14 -22 0
v -15 -23 0
v -16 -23 0
v -16 -22 0
v -15 -22 0
v -16 -23 0
v -17 -23 0
v -17 -22 0
v -16 -22 0
v -36 -23 0
v -37 -23 0
v -37 -22 0
v -36 -22 0
v -37 -23 0
v -38 -23 0
v -38 -22 0
v -37 -22 0
v -38 -23 0
v -39 -23 0
v -39 -22 0
v -38 -22 0

# Texture cooridinates (Count = 32)
vt 0 0.8571429
vt 0.3333333 0.8571429
vt 0.3333333 1
vt 0 1
vt 0.6666667 0.8571429
vt 0.6666667 1
vt 1 0.8571429
vt 1 1
vt 0 0.7142857
vt 0.3333333 0.7142857
vt 0.6666667 0.7142857
vt 1 0.7142857
vt 0 0.5714285
vt 0.3333333 0.5714285
vt 0.6666667 0.5714285
vt 1 0.5714285
vt 0 0.4285714
vt 0.3333333 0.4285714
vt 0.6666667 0.4285714
vt 1 0.4285714
vt 0 0.2857143
vt 0.3333333 0.2857143
vt 0.6666667 0.2857143
vt 1 0.2857143
vt 0 0.1428571
vt 0.3333333 0.1428571
vt 0.6666667 0.1428571
vt 1 0.1428571
vt 0 0
vt 0.3333333 0
vt 0.6666667 0
vt 1 0

# Normal
vn 0 0 -1

# Mesh description
g OutlineTestMap_mesh_0004

# Faces
f 1/1/1 2/2/1 3/3/1 4/4/1
f 5/2/1 6/5/1 7/6/1 8/3/1
f 9/5/1 10/7/1 11/8/1 12/6/1
f 13/1/1 14/2/1 15/3/1 16/4/1
f 17/2/1 18/5/1 19/6/1 20/3/1
f 21/5/1 22/7/1 23/8/1 24/6/1
f 25/9/1 26/10/1 27/2/1 28/1/1
f 29/10/1 30/11/1 31/5/1 32/2/1
f 33/11/1 34/12/1 35/7/1 36/5/1
f 37/9/1 38/10/1 39/2/1 40/1/1
f 41/10/1 42/11/1 43/5/1 44/2/1
f 45/11/1 46/12/1 47/7/1 48/5/1
f 49/13/1 50/14/1 51/10/1 52/9/1
f 53/14/1 54/15/1 55/11/1 56/10/1
f 57/15/1 58/16/1 59/12/1 60/11/1
f 61/13/1 62/14/1 63/10/1 64/9/1
f 65/14/1 66/15/1 67/11/1 68/10/1
f 69/15/1 70/16/1 71/12/1 72/11/1
f 73/17/1 74/18/1 75/14/1 76/13/1
f 77/18/1 78/19/1 79/15/1 80/14/1
f 81/19/1 82/20/1 83/16/1 84/15/1
f 85/17/1 86/18/1 87/14/1 88/13/1
f 89/18/1 90/19/1 91/15/1 92/14/1
f 93/19/1 94/20/1 95/16/1 96/15/1
f 97/21/1 98/22/1 99/18/1 100/17/1
f 101/22/1 102/23/1 103/19/1 104/18/1
f 105/23/1 106/24/1 107/20/1 108/19/1
f 109/21/1 110/22/1 111/18/1 112/17/1
f 113/22/1 114/23/1 115/19/1 116/18/1
f 117/23/1 118/24/1 119/20/1 120/19/1
f 121/25/1 122/26/1 123/22/1 124/21/1
f 125/26/1 126/27/1 127/23/1 128/22/1
f 129/27/1 130/28/1 131/24/1 132/23/1
f 133/25/1 134/26/1 135/22/1 136/21/1
f 137/26/1 138/27/1 139/23/1 140/22/1
f 141/27/1 142/28/1 143/24/1 144/23/1
f 145/29/1 146/30/1 147/26/1 148/25/1
f 149/30/1 150/31/1 151/27/1 152/26/1
f 153/31/1 154/32/1 155/28/1 156/27/1
f 157/29/1 158/30/1 159/26/1 160/25/1
f 161/30/1 162/31/1 163/27/1 164/26/1
f 165/31/1 166/32/1 167/28/1 168/27/1

