# Tiled2Unity generated file. Do not modify by hand.
# Wavefront file for 'OutlineTestMap_mesh_0061.obj'

# Vertices (Count = 16)
v -69 -34 0
v -70 -34 0
v -70 -33 0
v -69 -33 0
v -76 -34 0
v -77 -34 0
v -77 -33 0
v -76 -33 0
v -83 -34 0
v -84 -34 0
v -84 -33 0
v -83 -33 0
v -90 -34 0
v -91 -34 0
v -91 -33 0
v -90 -33 0

# Texture cooridinates (Count = 4)
vt 0 0.84
vt 0.02380952 0.84
vt 0.02380952 1
vt 0 1

# Normal
vn 0 0 -1

# Mesh description
g OutlineTestMap_mesh_0061

# Faces
f 1/1/1 2/2/1 3/3/1 4/4/1
f 5/1/1 6/2/1 7/3/1 8/4/1
f 9/1/1 10/2/1 11/3/1 12/4/1
f 13/1/1 14/2/1 15/3/1 16/4/1

