# Tiled2Unity generated file. Do not modify by hand.
# Wavefront file for 'Level3_mesh_0007.obj'

# Vertices (Count = 108)
v -145 -30 -0.75
v -146 -30 -0.75
v -146 -29 -0.75
v -145 -29 -0.75
v -146 -30 -0.75
v -147 -30 -0.75
v -147 -29 -0.75
v -146 -29 -0.75
v -147 -30 -0.75
v -148 -30 -0.75
v -148 -29 -0.75
v -147 -29 -0.75
v -162 -30 -0.75
v -163 -30 -0.75
v -163 -29 -0.75
v -162 -29 -0.75
v -163 -30 -0.75
v -164 -30 -0.75
v -164 -29 -0.75
v -163 -29 -0.75
v -164 -30 -0.75
v -165 -30 -0.75
v -165 -29 -0.75
v -164 -29 -0.75
v -179 -30 -0.75
v -180 -30 -0.75
v -180 -29 -0.75
v -179 -29 -0.75
v -180 -30 -0.75
v -181 -30 -0.75
v -181 -29 -0.75
v -180 -29 -0.75
v -181 -30 -0.75
v -182 -30 -0.75
v -182 -29 -0.75
v -181 -29 -0.75
v -145 -31 -0.775
v -146 -31 -0.775
v -146 -30 -0.775
v -145 -30 -0.775
v -146 -31 -0.775
v -147 -31 -0.775
v -147 -30 -0.775
v -146 -30 -0.775
v -147 -31 -0.775
v -148 -31 -0.775
v -148 -30 -0.775
v -147 -30 -0.775
v -162 -31 -0.775
v -163 -31 -0.775
v -163 -30 -0.775
v -162 -30 -0.775
v -163 -31 -0.775
v -164 -31 -0.775
v -164 -30 -0.775
v -163 -30 -0.775
v -164 -31 -0.775
v -165 -31 -0.775
v -165 -30 -0.775
v -164 -30 -0.775
v -179 -31 -0.775
v -180 -31 -0.775
v -180 -30 -0.775
v -179 -30 -0.775
v -180 -31 -0.775
v -181 -31 -0.775
v -181 -30 -0.775
v -180 -30 -0.775
v -181 -31 -0.775
v -182 -31 -0.775
v -182 -30 -0.775
v -181 -30 -0.775
v -145 -32 -0.8
v -146 -32 -0.8
v -146 -31 -0.8
v -145 -31 -0.8
v -146 -32 -0.8
v -147 -32 -0.8
v -147 -31 -0.8
v -146 -31 -0.8
v -147 -32 -0.8
v -148 -32 -0.8
v -148 -31 -0.8
v -147 -31 -0.8
v -162 -32 -0.8
v -163 -32 -0.8
v -163 -31 -0.8
v -162 -31 -0.8
v -163 -32 -0.8
v -164 -32 -0.8
v -164 -31 -0.8
v -163 -31 -0.8
v -164 -32 -0.8
v -165 -32 -0.8
v -165 -31 -0.8
v -164 -31 -0.8
v -179 -32 -0.8
v -180 -32 -0.8
v -180 -31 -0.8
v -179 -31 -0.8
v -180 -32 -0.8
v -181 -32 -0.8
v -181 -31 -0.8
v -180 -31 -0.8
v -181 -32 -0.8
v -182 -32 -0.8
v -182 -31 -0.8
v -181 -31 -0.8

# Texture cooridinates (Count = 16)
vt 0 0.6666666
vt 0.3333333 0.6666666
vt 0.3333333 1
vt 0 1
vt 0.6666667 0.6666666
vt 0.6666667 1
vt 1 0.6666666
vt 1 1
vt 0 0.3333333
vt 0.3333333 0.3333333
vt 0.6666667 0.3333333
vt 1 0.3333333
vt 0 0
vt 0.3333333 0
vt 0.6666667 0
vt 1 0

# Normal
vn 0 0 -1

# Mesh description
g Level3_mesh_0007

# Faces
f 1/1/1 2/2/1 3/3/1 4/4/1
f 5/2/1 6/5/1 7/6/1 8/3/1
f 9/5/1 10/7/1 11/8/1 12/6/1
f 13/1/1 14/2/1 15/3/1 16/4/1
f 17/2/1 18/5/1 19/6/1 20/3/1
f 21/5/1 22/7/1 23/8/1 24/6/1
f 25/1/1 26/2/1 27/3/1 28/4/1
f 29/2/1 30/5/1 31/6/1 32/3/1
f 33/5/1 34/7/1 35/8/1 36/6/1
f 37/9/1 38/10/1 39/2/1 40/1/1
f 41/10/1 42/11/1 43/5/1 44/2/1
f 45/11/1 46/12/1 47/7/1 48/5/1
f 49/9/1 50/10/1 51/2/1 52/1/1
f 53/10/1 54/11/1 55/5/1 56/2/1
f 57/11/1 58/12/1 59/7/1 60/5/1
f 61/9/1 62/10/1 63/2/1 64/1/1
f 65/10/1 66/11/1 67/5/1 68/2/1
f 69/11/1 70/12/1 71/7/1 72/5/1
f 73/13/1 74/14/1 75/10/1 76/9/1
f 77/14/1 78/15/1 79/11/1 80/10/1
f 81/15/1 82/16/1 83/12/1 84/11/1
f 85/13/1 86/14/1 87/10/1 88/9/1
f 89/14/1 90/15/1 91/11/1 92/10/1
f 93/15/1 94/16/1 95/12/1 96/11/1
f 97/13/1 98/14/1 99/10/1 100/9/1
f 101/14/1 102/15/1 103/11/1 104/10/1
f 105/15/1 106/16/1 107/12/1 108/11/1

