# Tiled2Unity generated file. Do not modify by hand.
# Wavefront file for 'Level3_mesh_0022.obj'

# Vertices (Count = 12)
v -145 -32 -0.8
v -146 -32 -0.8
v -146 -31 -0.8
v -145 -31 -0.8
v -162 -32 -0.8
v -163 -32 -0.8
v -163 -31 -0.8
v -162 -31 -0.8
v -179 -32 -0.8
v -180 -32 -0.8
v -180 -31 -0.8
v -179 -31 -0.8

# Texture cooridinates (Count = 4)
vt 0.8571429 0
vt 0.9047619 0
vt 0.9047619 0.3333333
vt 0.8571429 0.3333333

# Normal
vn 0 0 -1

# Mesh description
g Level3_mesh_0022

# Faces
f 1/1/1 2/2/1 3/3/1 4/4/1
f 5/1/1 6/2/1 7/3/1 8/4/1
f 9/1/1 10/2/1 11/3/1 12/4/1

