# Tiled2Unity generated file. Do not modify by hand.
# Wavefront file for 'Level3_mesh_0015.obj'

# Vertices (Count = 12)
v -145 -31 -0.775
v -146 -31 -0.775
v -146 -30 -0.775
v -145 -30 -0.775
v -162 -31 -0.775
v -163 -31 -0.775
v -163 -30 -0.775
v -162 -30 -0.775
v -179 -31 -0.775
v -180 -31 -0.775
v -180 -30 -0.775
v -179 -30 -0.775

# Texture cooridinates (Count = 4)
vt 0 0.3333333
vt 0.04761905 0.3333333
vt 0.04761905 0.6666666
vt 0 0.6666666

# Normal
vn 0 0 -1

# Mesh description
g Level3_mesh_0015

# Faces
f 1/1/1 2/2/1 3/3/1 4/4/1
f 5/1/1 6/2/1 7/3/1 8/4/1
f 9/1/1 10/2/1 11/3/1 12/4/1

