# Tiled2Unity generated file. Do not modify by hand.
# Wavefront file for 'Level3_mesh_0014.obj'

# Vertices (Count = 336)
v -59 -40 -1
v -60 -40 -1
v -60 -39 -1
v -59 -39 -1
v -66 -40 -1
v -67 -40 -1
v -67 -39 -1
v -66 -39 -1
v -73 -40 -1
v -74 -40 -1
v -74 -39 -1
v -73 -39 -1
v -80 -40 -1
v -81 -40 -1
v -81 -39 -1
v -80 -39 -1
v -87 -40 -1
v -88 -40 -1
v -88 -39 -1
v -87 -39 -1
v -94 -40 -1
v -95 -40 -1
v -95 -39 -1
v -94 -39 -1
v -101 -40 -1
v -102 -40 -1
v -102 -39 -1
v -101 -39 -1
v -108 -40 -1
v -109 -40 -1
v -109 -39 -1
v -108 -39 -1
v -115 -40 -1
v -116 -40 -1
v -116 -39 -1
v -115 -39 -1
v -116 -40 -1
v -117 -40 -1
v -117 -39 -1
v -116 -39 -1
v -117 -40 -1
v -118 -40 -1
v -118 -39 -1
v -117 -39 -1
v -118 -40 -1
v -119 -40 -1
v -119 -39 -1
v -118 -39 -1
v -119 -40 -1
v -120 -40 -1
v -120 -39 -1
v -119 -39 -1
v -120 -40 -1
v -121 -40 -1
v -121 -39 -1
v -120 -39 -1
v -121 -40 -1
v -122 -40 -1
v -122 -39 -1
v -121 -39 -1
v -122 -40 -1
v -123 -40 -1
v -123 -39 -1
v -122 -39 -1
v -123 -40 -1
v -124 -40 -1
v -124 -39 -1
v -123 -39 -1
v -124 -40 -1
v -125 -40 -1
v -125 -39 -1
v -124 -39 -1
v -125 -40 -1
v -126 -40 -1
v -126 -39 -1
v -125 -39 -1
v -126 -40 -1
v -127 -40 -1
v -127 -39 -1
v -126 -39 -1
v -127 -40 -1
v -128 -40 -1
v -128 -39 -1
v -127 -39 -1
v -128 -40 -1
v -129 -40 -1
v -129 -39 -1
v -128 -39 -1
v -129 -40 -1
v -130 -40 -1
v -130 -39 -1
v -129 -39 -1
v -130 -40 -1
v -131 -40 -1
v -131 -39 -1
v -130 -39 -1
v -131 -40 -1
v -132 -40 -1
v -132 -39 -1
v -131 -39 -1
v -132 -40 -1
v -133 -40 -1
v -133 -39 -1
v -132 -39 -1
v -139 -40 -1
v -140 -40 -1
v -140 -39 -1
v -139 -39 -1
v -140 -40 -1
v -141 -40 -1
v -141 -39 -1
v -140 -39 -1
v -141 -40 -1
v -142 -40 -1
v -142 -39 -1
v -141 -39 -1
v -142 -40 -1
v -143 -40 -1
v -143 -39 -1
v -142 -39 -1
v -143 -40 -1
v -144 -40 -1
v -144 -39 -1
v -143 -39 -1
v -144 -40 -1
v -145 -40 -1
v -145 -39 -1
v -144 -39 -1
v -145 -40 -1
v -146 -40 -1
v -146 -39 -1
v -145 -39 -1
v -146 -40 -1
v -147 -40 -1
v -147 -39 -1
v -146 -39 -1
v -147 -40 -1
v -148 -40 -1
v -148 -39 -1
v -147 -39 -1
v -148 -40 -1
v -149 -40 -1
v -149 -39 -1
v -148 -39 -1
v -149 -40 -1
v -150 -40 -1
v -150 -39 -1
v -149 -39 -1
v -156 -40 -1
v -157 -40 -1
v -157 -39 -1
v -156 -39 -1
v -157 -40 -1
v -158 -40 -1
v -158 -39 -1
v -157 -39 -1
v -158 -40 -1
v -159 -40 -1
v -159 -39 -1
v -158 -39 -1
v -159 -40 -1
v -160 -40 -1
v -160 -39 -1
v -159 -39 -1
v -160 -40 -1
v -161 -40 -1
v -161 -39 -1
v -160 -39 -1
v -161 -40 -1
v -162 -40 -1
v -162 -39 -1
v -161 -39 -1
v -162 -40 -1
v -163 -40 -1
v -163 -39 -1
v -162 -39 -1
v -163 -40 -1
v -164 -40 -1
v -164 -39 -1
v -163 -39 -1
v -164 -40 -1
v -165 -40 -1
v -165 -39 -1
v -164 -39 -1
v -165 -40 -1
v -166 -40 -1
v -166 -39 -1
v -165 -39 -1
v -166 -40 -1
v -167 -40 -1
v -167 -39 -1
v -166 -39 -1
v -173 -40 -1
v -174 -40 -1
v -174 -39 -1
v -173 -39 -1
v -174 -40 -1
v -175 -40 -1
v -175 -39 -1
v -174 -39 -1
v -175 -40 -1
v -176 -40 -1
v -176 -39 -1
v -175 -39 -1
v -176 -40 -1
v -177 -40 -1
v -177 -39 -1
v -176 -39 -1
v -177 -40 -1
v -178 -40 -1
v -178 -39 -1
v -177 -39 -1
v -178 -40 -1
v -179 -40 -1
v -179 -39 -1
v -178 -39 -1
v -179 -40 -1
v -180 -40 -1
v -180 -39 -1
v -179 -39 -1
v -180 -40 -1
v -181 -40 -1
v -181 -39 -1
v -180 -39 -1
v -181 -40 -1
v -182 -40 -1
v -182 -39 -1
v -181 -39 -1
v -182 -40 -1
v -183 -40 -1
v -183 -39 -1
v -182 -39 -1
v -183 -40 -1
v -184 -40 -1
v -184 -39 -1
v -183 -39 -1
v -190 -40 -1
v -191 -40 -1
v -191 -39 -1
v -190 -39 -1
v -235 -40 -1
v -236 -40 -1
v -236 -39 -1
v -235 -39 -1
v -242 -40 -1
v -243 -40 -1
v -243 -39 -1
v -242 -39 -1
v -243 -40 -1
v -244 -40 -1
v -244 -39 -1
v -243 -39 -1
v -244 -40 -1
v -245 -40 -1
v -245 -39 -1
v -244 -39 -1
v -245 -40 -1
v -246 -40 -1
v -246 -39 -1
v -245 -39 -1
v -246 -40 -1
v -247 -40 -1
v -247 -39 -1
v -246 -39 -1
v -247 -40 -1
v -248 -40 -1
v -248 -39 -1
v -247 -39 -1
v -248 -40 -1
v -249 -40 -1
v -249 -39 -1
v -248 -39 -1
v -249 -40 -1
v -250 -40 -1
v -250 -39 -1
v -249 -39 -1
v -250 -40 -1
v -251 -40 -1
v -251 -39 -1
v -250 -39 -1
v -251 -40 -1
v -252 -40 -1
v -252 -39 -1
v -251 -39 -1
v -252 -40 -1
v -253 -40 -1
v -253 -39 -1
v -252 -39 -1
v -253 -40 -1
v -254 -40 -1
v -254 -39 -1
v -253 -39 -1
v -254 -40 -1
v -255 -40 -1
v -255 -39 -1
v -254 -39 -1
v -255 -40 -1
v -256 -40 -1
v -256 -39 -1
v -255 -39 -1
v -256 -40 -1
v -257 -40 -1
v -257 -39 -1
v -256 -39 -1
v -257 -40 -1
v -258 -40 -1
v -258 -39 -1
v -257 -39 -1
v -258 -40 -1
v -259 -40 -1
v -259 -39 -1
v -258 -39 -1
v -259 -40 -1
v -260 -40 -1
v -260 -39 -1
v -259 -39 -1
v -260 -40 -1
v -261 -40 -1
v -261 -39 -1
v -260 -39 -1
v -261 -40 -1
v -262 -40 -1
v -262 -39 -1
v -261 -39 -1
v -262 -40 -1
v -263 -40 -1
v -263 -39 -1
v -262 -39 -1
v -263 -40 -1
v -264 -40 -1
v -264 -39 -1
v -263 -39 -1
v -270 -40 -1
v -271 -40 -1
v -271 -39 -1
v -270 -39 -1

# Texture cooridinates (Count = 10)
vt 0.8571429 0
vt 1 0
vt 1 1
vt 0.8571429 1
vt 0.1428571 0
vt 0.2857143 0
vt 0.2857143 1
vt 0.1428571 1
vt 0 0
vt 0 1

# Normal
vn 0 0 -1

# Mesh description
g Level3_mesh_0014

# Faces
f 1/1/1 2/2/1 3/3/1 4/4/1
f 5/1/1 6/2/1 7/3/1 8/4/1
f 9/1/1 10/2/1 11/3/1 12/4/1
f 13/1/1 14/2/1 15/3/1 16/4/1
f 17/1/1 18/2/1 19/3/1 20/4/1
f 21/1/1 22/2/1 23/3/1 24/4/1
f 25/1/1 26/2/1 27/3/1 28/4/1
f 29/1/1 30/2/1 31/3/1 32/4/1
f 33/5/1 34/6/1 35/7/1 36/8/1
f 37/9/1 38/5/1 39/8/1 40/10/1
f 41/5/1 42/6/1 43/7/1 44/8/1
f 45/5/1 46/6/1 47/7/1 48/8/1
f 49/9/1 50/5/1 51/8/1 52/10/1
f 53/5/1 54/6/1 55/7/1 56/8/1
f 57/5/1 58/6/1 59/7/1 60/8/1
f 61/5/1 62/6/1 63/7/1 64/8/1
f 65/5/1 66/6/1 67/7/1 68/8/1
f 69/5/1 70/6/1 71/7/1 72/8/1
f 73/5/1 74/6/1 75/7/1 76/8/1
f 77/9/1 78/5/1 79/8/1 80/10/1
f 81/5/1 82/6/1 83/7/1 84/8/1
f 85/5/1 86/6/1 87/7/1 88/8/1
f 89/5/1 90/6/1 91/7/1 92/8/1
f 93/5/1 94/6/1 95/7/1 96/8/1
f 97/5/1 98/6/1 99/7/1 100/8/1
f 101/1/1 102/2/1 103/3/1 104/4/1
f 105/5/1 106/6/1 107/7/1 108/8/1
f 109/9/1 110/5/1 111/8/1 112/10/1
f 113/5/1 114/6/1 115/7/1 116/8/1
f 117/5/1 118/6/1 119/7/1 120/8/1
f 121/9/1 122/5/1 123/8/1 124/10/1
f 125/5/1 126/6/1 127/7/1 128/8/1
f 129/5/1 130/6/1 131/7/1 132/8/1
f 133/5/1 134/6/1 135/7/1 136/8/1
f 137/5/1 138/6/1 139/7/1 140/8/1
f 141/5/1 142/6/1 143/7/1 144/8/1
f 145/5/1 146/6/1 147/7/1 148/8/1
f 149/5/1 150/6/1 151/7/1 152/8/1
f 153/9/1 154/5/1 155/8/1 156/10/1
f 157/5/1 158/6/1 159/7/1 160/8/1
f 161/5/1 162/6/1 163/7/1 164/8/1
f 165/9/1 166/5/1 167/8/1 168/10/1
f 169/5/1 170/6/1 171/7/1 172/8/1
f 173/5/1 174/6/1 175/7/1 176/8/1
f 177/5/1 178/6/1 179/7/1 180/8/1
f 181/5/1 182/6/1 183/7/1 184/8/1
f 185/5/1 186/6/1 187/7/1 188/8/1
f 189/5/1 190/6/1 191/7/1 192/8/1
f 193/5/1 194/6/1 195/7/1 196/8/1
f 197/9/1 198/5/1 199/8/1 200/10/1
f 201/5/1 202/6/1 203/7/1 204/8/1
f 205/5/1 206/6/1 207/7/1 208/8/1
f 209/9/1 210/5/1 211/8/1 212/10/1
f 213/5/1 214/6/1 215/7/1 216/8/1
f 217/5/1 218/6/1 219/7/1 220/8/1
f 221/5/1 222/6/1 223/7/1 224/8/1
f 225/5/1 226/6/1 227/7/1 228/8/1
f 229/5/1 230/6/1 231/7/1 232/8/1
f 233/5/1 234/6/1 235/7/1 236/8/1
f 237/1/1 238/2/1 239/3/1 240/4/1
f 241/1/1 242/2/1 243/3/1 244/4/1
f 245/5/1 246/6/1 247/7/1 248/8/1
f 249/9/1 250/5/1 251/8/1 252/10/1
f 253/5/1 254/6/1 255/7/1 256/8/1
f 257/5/1 258/6/1 259/7/1 260/8/1
f 261/9/1 262/5/1 263/8/1 264/10/1
f 265/5/1 266/6/1 267/7/1 268/8/1
f 269/5/1 270/6/1 271/7/1 272/8/1
f 273/5/1 274/6/1 275/7/1 276/8/1
f 277/5/1 278/6/1 279/7/1 280/8/1
f 281/5/1 282/6/1 283/7/1 284/8/1
f 285/5/1 286/6/1 287/7/1 288/8/1
f 289/6/1 290/5/1 291/8/1 292/7/1
f 293/6/1 294/5/1 295/8/1 296/7/1
f 297/6/1 298/5/1 299/8/1 300/7/1
f 301/6/1 302/5/1 303/8/1 304/7/1
f 305/6/1 306/5/1 307/8/1 308/7/1
f 309/6/1 310/5/1 311/8/1 312/7/1
f 313/5/1 314/9/1 315/10/1 316/8/1
f 317/6/1 318/5/1 319/8/1 320/7/1
f 321/6/1 322/5/1 323/8/1 324/7/1
f 325/5/1 326/9/1 327/10/1 328/8/1
f 329/6/1 330/5/1 331/8/1 332/7/1
f 333/2/1 334/1/1 335/4/1 336/3/1

