# Tiled2Unity generated file. Do not modify by hand.
# Wavefront file for 'Level3_mesh_0002.obj'

# Vertices (Count = 384)
v -214 -1 -0.025
v -215 -1 -0.025
v -215 0 -0.025
v -214 0 -0.025
v -215 -1 -0.025
v -216 -1 -0.025
v -216 0 -0.025
v -215 0 -0.025
v -214 -2 -0.05
v -215 -2 -0.05
v -215 -1 -0.05
v -214 -1 -0.05
v -215 -2 -0.05
v -216 -2 -0.05
v -216 -1 -0.05
v -215 -1 -0.05
v -214 -3 -0.075
v -215 -3 -0.075
v -215 -2 -0.075
v -214 -2 -0.075
v -215 -3 -0.075
v -216 -3 -0.075
v -216 -2 -0.075
v -215 -2 -0.075
v -214 -4 -0.1
v -215 -4 -0.1
v -215 -3 -0.1
v -214 -3 -0.1
v -215 -4 -0.1
v -216 -4 -0.1
v -216 -3 -0.1
v -215 -3 -0.1
v -214 -5 -0.125
v -215 -5 -0.125
v -215 -4 -0.125
v -214 -4 -0.125
v -215 -5 -0.125
v -216 -5 -0.125
v -216 -4 -0.125
v -215 -4 -0.125
v -214 -6 -0.15
v -215 -6 -0.15
v -215 -5 -0.15
v -214 -5 -0.15
v -215 -6 -0.15
v -216 -6 -0.15
v -216 -5 -0.15
v -215 -5 -0.15
v -240 -6 -0.15
v -241 -6 -0.15
v -241 -5 -0.15
v -240 -5 -0.15
v -241 -6 -0.15
v -242 -6 -0.15
v -242 -5 -0.15
v -241 -5 -0.15
v -214 -7 -0.175
v -215 -7 -0.175
v -215 -6 -0.175
v -214 -6 -0.175
v -215 -7 -0.175
v -216 -7 -0.175
v -216 -6 -0.175
v -215 -6 -0.175
v -240 -7 -0.175
v -241 -7 -0.175
v -241 -6 -0.175
v -240 -6 -0.175
v -241 -7 -0.175
v -242 -7 -0.175
v -242 -6 -0.175
v -241 -6 -0.175
v -214 -8 -0.2
v -215 -8 -0.2
v -215 -7 -0.2
v -214 -7 -0.2
v -215 -8 -0.2
v -216 -8 -0.2
v -216 -7 -0.2
v -215 -7 -0.2
v -240 -8 -0.2
v -241 -8 -0.2
v -241 -7 -0.2
v -240 -7 -0.2
v -241 -8 -0.2
v -242 -8 -0.2
v -242 -7 -0.2
v -241 -7 -0.2
v -214 -9 -0.225
v -215 -9 -0.225
v -215 -8 -0.225
v -214 -8 -0.225
v -215 -9 -0.225
v -216 -9 -0.225
v -216 -8 -0.225
v -215 -8 -0.225
v -240 -9 -0.225
v -241 -9 -0.225
v -241 -8 -0.225
v -240 -8 -0.225
v -241 -9 -0.225
v -242 -9 -0.225
v -242 -8 -0.225
v -241 -8 -0.225
v -214 -10 -0.25
v -215 -10 -0.25
v -215 -9 -0.25
v -214 -9 -0.25
v -215 -10 -0.25
v -216 -10 -0.25
v -216 -9 -0.25
v -215 -9 -0.25
v -240 -10 -0.25
v -241 -10 -0.25
v -241 -9 -0.25
v -240 -9 -0.25
v -241 -10 -0.25
v -242 -10 -0.25
v -242 -9 -0.25
v -241 -9 -0.25
v -214 -11 -0.275
v -215 -11 -0.275
v -215 -10 -0.275
v -214 -10 -0.275
v -215 -11 -0.275
v -216 -11 -0.275
v -216 -10 -0.275
v -215 -10 -0.275
v -240 -11 -0.275
v -241 -11 -0.275
v -241 -10 -0.275
v -240 -10 -0.275
v -241 -11 -0.275
v -242 -11 -0.275
v -242 -10 -0.275
v -241 -10 -0.275
v -214 -12 -0.3
v -215 -12 -0.3
v -215 -11 -0.3
v -214 -11 -0.3
v -215 -12 -0.3
v -216 -12 -0.3
v -216 -11 -0.3
v -215 -11 -0.3
v -240 -12 -0.3
v -241 -12 -0.3
v -241 -11 -0.3
v -240 -11 -0.3
v -241 -12 -0.3
v -242 -12 -0.3
v -242 -11 -0.3
v -241 -11 -0.3
v -214 -13 -0.325
v -215 -13 -0.325
v -215 -12 -0.325
v -214 -12 -0.325
v -215 -13 -0.325
v -216 -13 -0.325
v -216 -12 -0.325
v -215 -12 -0.325
v -240 -13 -0.325
v -241 -13 -0.325
v -241 -12 -0.325
v -240 -12 -0.325
v -241 -13 -0.325
v -242 -13 -0.325
v -242 -12 -0.325
v -241 -12 -0.325
v -214 -14 -0.35
v -215 -14 -0.35
v -215 -13 -0.35
v -214 -13 -0.35
v -215 -14 -0.35
v -216 -14 -0.35
v -216 -13 -0.35
v -215 -13 -0.35
v -240 -14 -0.35
v -241 -14 -0.35
v -241 -13 -0.35
v -240 -13 -0.35
v -241 -14 -0.35
v -242 -14 -0.35
v -242 -13 -0.35
v -241 -13 -0.35
v -214 -15 -0.375
v -215 -15 -0.375
v -215 -14 -0.375
v -214 -14 -0.375
v -215 -15 -0.375
v -216 -15 -0.375
v -216 -14 -0.375
v -215 -14 -0.375
v -240 -15 -0.375
v -241 -15 -0.375
v -241 -14 -0.375
v -240 -14 -0.375
v -241 -15 -0.375
v -242 -15 -0.375
v -242 -14 -0.375
v -241 -14 -0.375
v -214 -16 -0.4
v -215 -16 -0.4
v -215 -15 -0.4
v -214 -15 -0.4
v -215 -16 -0.4
v -216 -16 -0.4
v -216 -15 -0.4
v -215 -15 -0.4
v -240 -16 -0.4
v -241 -16 -0.4
v -241 -15 -0.4
v -240 -15 -0.4
v -241 -16 -0.4
v -242 -16 -0.4
v -242 -15 -0.4
v -241 -15 -0.4
v -214 -17 -0.425
v -215 -17 -0.425
v -215 -16 -0.425
v -214 -16 -0.425
v -215 -17 -0.425
v -216 -17 -0.425
v -216 -16 -0.425
v -215 -16 -0.425
v -240 -17 -0.425
v -241 -17 -0.425
v -241 -16 -0.425
v -240 -16 -0.425
v -241 -17 -0.425
v -242 -17 -0.425
v -242 -16 -0.425
v -241 -16 -0.425
v -214 -18 -0.45
v -215 -18 -0.45
v -215 -17 -0.45
v -214 -17 -0.45
v -215 -18 -0.45
v -216 -18 -0.45
v -216 -17 -0.45
v -215 -17 -0.45
v -240 -18 -0.45
v -241 -18 -0.45
v -241 -17 -0.45
v -240 -17 -0.45
v -241 -18 -0.45
v -242 -18 -0.45
v -242 -17 -0.45
v -241 -17 -0.45
v -214 -19 -0.475
v -215 -19 -0.475
v -215 -18 -0.475
v -214 -18 -0.475
v -215 -19 -0.475
v -216 -19 -0.475
v -216 -18 -0.475
v -215 -18 -0.475
v -240 -19 -0.475
v -241 -19 -0.475
v -241 -18 -0.475
v -240 -18 -0.475
v -241 -19 -0.475
v -242 -19 -0.475
v -242 -18 -0.475
v -241 -18 -0.475
v -214 -20 -0.5
v -215 -20 -0.5
v -215 -19 -0.5
v -214 -19 -0.5
v -215 -20 -0.5
v -216 -20 -0.5
v -216 -19 -0.5
v -215 -19 -0.5
v -240 -20 -0.5
v -241 -20 -0.5
v -241 -19 -0.5
v -240 -19 -0.5
v -241 -20 -0.5
v -242 -20 -0.5
v -242 -19 -0.5
v -241 -19 -0.5
v -214 -21 -0.525
v -215 -21 -0.525
v -215 -20 -0.525
v -214 -20 -0.525
v -215 -21 -0.525
v -216 -21 -0.525
v -216 -20 -0.525
v -215 -20 -0.525
v -240 -21 -0.525
v -241 -21 -0.525
v -241 -20 -0.525
v -240 -20 -0.525
v -241 -21 -0.525
v -242 -21 -0.525
v -242 -20 -0.525
v -241 -20 -0.525
v -214 -22 -0.55
v -215 -22 -0.55
v -215 -21 -0.55
v -214 -21 -0.55
v -215 -22 -0.55
v -216 -22 -0.55
v -216 -21 -0.55
v -215 -21 -0.55
v -240 -22 -0.55
v -241 -22 -0.55
v -241 -21 -0.55
v -240 -21 -0.55
v -241 -22 -0.55
v -242 -22 -0.55
v -242 -21 -0.55
v -241 -21 -0.55
v -214 -23 -0.575
v -215 -23 -0.575
v -215 -22 -0.575
v -214 -22 -0.575
v -215 -23 -0.575
v -216 -23 -0.575
v -216 -22 -0.575
v -215 -22 -0.575
v -240 -23 -0.575
v -241 -23 -0.575
v -241 -22 -0.575
v -240 -22 -0.575
v -241 -23 -0.575
v -242 -23 -0.575
v -242 -22 -0.575
v -241 -22 -0.575
v -214 -24 -0.6
v -215 -24 -0.6
v -215 -23 -0.6
v -214 -23 -0.6
v -215 -24 -0.6
v -216 -24 -0.6
v -216 -23 -0.6
v -215 -23 -0.6
v -240 -24 -0.6
v -241 -24 -0.6
v -241 -23 -0.6
v -240 -23 -0.6
v -241 -24 -0.6
v -242 -24 -0.6
v -242 -23 -0.6
v -241 -23 -0.6
v -240 -25 -0.625
v -241 -25 -0.625
v -241 -24 -0.625
v -240 -24 -0.625
v -241 -25 -0.625
v -242 -25 -0.625
v -242 -24 -0.625
v -241 -24 -0.625
v -240 -26 -0.65
v -241 -26 -0.65
v -241 -25 -0.65
v -240 -25 -0.65
v -241 -26 -0.65
v -242 -26 -0.65
v -242 -25 -0.65
v -241 -25 -0.65
v -240 -27 -0.675
v -241 -27 -0.675
v -241 -26 -0.675
v -240 -26 -0.675
v -241 -27 -0.675
v -242 -27 -0.675
v -242 -26 -0.675
v -241 -26 -0.675
v -240 -28 -0.7
v -241 -28 -0.7
v -241 -27 -0.7
v -240 -27 -0.7
v -241 -28 -0.7
v -242 -28 -0.7
v -242 -27 -0.7
v -241 -27 -0.7
v -240 -29 -0.725
v -241 -29 -0.725
v -241 -28 -0.725
v -240 -28 -0.725
v -241 -29 -0.725
v -242 -29 -0.725
v -242 -28 -0.725
v -241 -28 -0.725

# Texture cooridinates (Count = 21)
vt 0 0.8333333
vt 0.5 0.8333333
vt 0.5 1
vt 0 1
vt 1 0.8333333
vt 1 1
vt 0 0.6666666
vt 0.5 0.6666666
vt 1 0.6666666
vt 0 0.5
vt 0.5 0.5
vt 1 0.5
vt 0 0.3333333
vt 0.5 0.3333333
vt 1 0.3333333
vt 0 0.1666667
vt 0.5 0.1666667
vt 1 0.1666667
vt 0 0
vt 0.5 0
vt 1 0

# Normal
vn 0 0 -1

# Mesh description
g Level3_mesh_0002

# Faces
f 1/1/1 2/2/1 3/3/1 4/4/1
f 5/2/1 6/5/1 7/6/1 8/3/1
f 9/7/1 10/8/1 11/2/1 12/1/1
f 13/8/1 14/9/1 15/5/1 16/2/1
f 17/10/1 18/11/1 19/8/1 20/7/1
f 21/11/1 22/12/1 23/9/1 24/8/1
f 25/13/1 26/14/1 27/11/1 28/10/1
f 29/14/1 30/15/1 31/12/1 32/11/1
f 33/16/1 34/17/1 35/14/1 36/13/1
f 37/17/1 38/18/1 39/15/1 40/14/1
f 41/19/1 42/20/1 43/17/1 44/16/1
f 45/20/1 46/21/1 47/18/1 48/17/1
f 49/1/1 50/2/1 51/3/1 52/4/1
f 53/2/1 54/5/1 55/6/1 56/3/1
f 57/1/1 58/2/1 59/3/1 60/4/1
f 61/2/1 62/5/1 63/6/1 64/3/1
f 65/7/1 66/8/1 67/2/1 68/1/1
f 69/8/1 70/9/1 71/5/1 72/2/1
f 73/7/1 74/8/1 75/2/1 76/1/1
f 77/8/1 78/9/1 79/5/1 80/2/1
f 81/10/1 82/11/1 83/8/1 84/7/1
f 85/11/1 86/12/1 87/9/1 88/8/1
f 89/10/1 90/11/1 91/8/1 92/7/1
f 93/11/1 94/12/1 95/9/1 96/8/1
f 97/13/1 98/14/1 99/11/1 100/10/1
f 101/14/1 102/15/1 103/12/1 104/11/1
f 105/13/1 106/14/1 107/11/1 108/10/1
f 109/14/1 110/15/1 111/12/1 112/11/1
f 113/16/1 114/17/1 115/14/1 116/13/1
f 117/17/1 118/18/1 119/15/1 120/14/1
f 121/16/1 122/17/1 123/14/1 124/13/1
f 125/17/1 126/18/1 127/15/1 128/14/1
f 129/19/1 130/20/1 131/17/1 132/16/1
f 133/20/1 134/21/1 135/18/1 136/17/1
f 137/19/1 138/20/1 139/17/1 140/16/1
f 141/20/1 142/21/1 143/18/1 144/17/1
f 145/1/1 146/2/1 147/3/1 148/4/1
f 149/2/1 150/5/1 151/6/1 152/3/1
f 153/1/1 154/2/1 155/3/1 156/4/1
f 157/2/1 158/5/1 159/6/1 160/3/1
f 161/7/1 162/8/1 163/2/1 164/1/1
f 165/8/1 166/9/1 167/5/1 168/2/1
f 169/7/1 170/8/1 171/2/1 172/1/1
f 173/8/1 174/9/1 175/5/1 176/2/1
f 177/10/1 178/11/1 179/8/1 180/7/1
f 181/11/1 182/12/1 183/9/1 184/8/1
f 185/10/1 186/11/1 187/8/1 188/7/1
f 189/11/1 190/12/1 191/9/1 192/8/1
f 193/13/1 194/14/1 195/11/1 196/10/1
f 197/14/1 198/15/1 199/12/1 200/11/1
f 201/13/1 202/14/1 203/11/1 204/10/1
f 205/14/1 206/15/1 207/12/1 208/11/1
f 209/16/1 210/17/1 211/14/1 212/13/1
f 213/17/1 214/18/1 215/15/1 216/14/1
f 217/16/1 218/17/1 219/14/1 220/13/1
f 221/17/1 222/18/1 223/15/1 224/14/1
f 225/19/1 226/20/1 227/17/1 228/16/1
f 229/20/1 230/21/1 231/18/1 232/17/1
f 233/19/1 234/20/1 235/17/1 236/16/1
f 237/20/1 238/21/1 239/18/1 240/17/1
f 241/1/1 242/2/1 243/3/1 244/4/1
f 245/2/1 246/5/1 247/6/1 248/3/1
f 249/1/1 250/2/1 251/3/1 252/4/1
f 253/2/1 254/5/1 255/6/1 256/3/1
f 257/7/1 258/8/1 259/2/1 260/1/1
f 261/8/1 262/9/1 263/5/1 264/2/1
f 265/7/1 266/8/1 267/2/1 268/1/1
f 269/8/1 270/9/1 271/5/1 272/2/1
f 273/10/1 274/11/1 275/8/1 276/7/1
f 277/11/1 278/12/1 279/9/1 280/8/1
f 281/10/1 282/11/1 283/8/1 284/7/1
f 285/11/1 286/12/1 287/9/1 288/8/1
f 289/13/1 290/14/1 291/11/1 292/10/1
f 293/14/1 294/15/1 295/12/1 296/11/1
f 297/13/1 298/14/1 299/11/1 300/10/1
f 301/14/1 302/15/1 303/12/1 304/11/1
f 305/16/1 306/17/1 307/14/1 308/13/1
f 309/17/1 310/18/1 311/15/1 312/14/1
f 313/16/1 314/17/1 315/14/1 316/13/1
f 317/17/1 318/18/1 319/15/1 320/14/1
f 321/19/1 322/20/1 323/17/1 324/16/1
f 325/20/1 326/21/1 327/18/1 328/17/1
f 329/19/1 330/20/1 331/17/1 332/16/1
f 333/20/1 334/21/1 335/18/1 336/17/1
f 337/1/1 338/2/1 339/3/1 340/4/1
f 341/2/1 342/5/1 343/6/1 344/3/1
f 345/7/1 346/8/1 347/2/1 348/1/1
f 349/8/1 350/9/1 351/5/1 352/2/1
f 353/10/1 354/11/1 355/8/1 356/7/1
f 357/11/1 358/12/1 359/9/1 360/8/1
f 361/13/1 362/14/1 363/11/1 364/10/1
f 365/14/1 366/15/1 367/12/1 368/11/1
f 369/16/1 370/17/1 371/14/1 372/13/1
f 373/17/1 374/18/1 375/15/1 376/14/1
f 377/19/1 378/20/1 379/17/1 380/16/1
f 381/20/1 382/21/1 383/18/1 384/17/1

