# Tiled2Unity generated file. Do not modify by hand.
# Wavefront file for 'Level3_mesh_0009.obj'

# Vertices (Count = 604)
v -60 -33 -0.825
v -61 -33 -0.825
v -61 -32 -0.825
v -60 -32 -0.825
v -61 -33 -0.825
v -62 -33 -0.825
v -62 -32 -0.825
v -61 -32 -0.825
v -62 -33 -0.825
v -63 -33 -0.825
v -63 -32 -0.825
v -62 -32 -0.825
v -63 -33 -0.825
v -64 -33 -0.825
v -64 -32 -0.825
v -63 -32 -0.825
v -64 -33 -0.825
v -65 -33 -0.825
v -65 -32 -0.825
v -64 -32 -0.825
v -65 -33 -0.825
v -66 -33 -0.825
v -66 -32 -0.825
v -65 -32 -0.825
v -66 -33 -0.825
v -67 -33 -0.825
v -67 -32 -0.825
v -66 -32 -0.825
v -67 -33 -0.825
v -68 -33 -0.825
v -68 -32 -0.825
v -67 -32 -0.825
v -68 -33 -0.825
v -69 -33 -0.825
v -69 -32 -0.825
v -68 -32 -0.825
v -69 -33 -0.825
v -70 -33 -0.825
v -70 -32 -0.825
v -69 -32 -0.825
v -70 -33 -0.825
v -71 -33 -0.825
v -71 -32 -0.825
v -70 -32 -0.825
v -71 -33 -0.825
v -72 -33 -0.825
v -72 -32 -0.825
v -71 -32 -0.825
v -72 -33 -0.825
v -73 -33 -0.825
v -73 -32 -0.825
v -72 -32 -0.825
v -73 -33 -0.825
v -74 -33 -0.825
v -74 -32 -0.825
v -73 -32 -0.825
v -74 -33 -0.825
v -75 -33 -0.825
v -75 -32 -0.825
v -74 -32 -0.825
v -75 -33 -0.825
v -76 -33 -0.825
v -76 -32 -0.825
v -75 -32 -0.825
v -76 -33 -0.825
v -77 -33 -0.825
v -77 -32 -0.825
v -76 -32 -0.825
v -77 -33 -0.825
v -78 -33 -0.825
v -78 -32 -0.825
v -77 -32 -0.825
v -78 -33 -0.825
v -79 -33 -0.825
v -79 -32 -0.825
v -78 -32 -0.825
v -79 -33 -0.825
v -80 -33 -0.825
v -80 -32 -0.825
v -79 -32 -0.825
v -80 -33 -0.825
v -81 -33 -0.825
v -81 -32 -0.825
v -80 -32 -0.825
v -81 -33 -0.825
v -82 -33 -0.825
v -82 -32 -0.825
v -81 -32 -0.825
v -82 -33 -0.825
v -83 -33 -0.825
v -83 -32 -0.825
v -82 -32 -0.825
v -83 -33 -0.825
v -84 -33 -0.825
v -84 -32 -0.825
v -83 -32 -0.825
v -84 -33 -0.825
v -85 -33 -0.825
v -85 -32 -0.825
v -84 -32 -0.825
v -85 -33 -0.825
v -86 -33 -0.825
v -86 -32 -0.825
v -85 -32 -0.825
v -86 -33 -0.825
v -87 -33 -0.825
v -87 -32 -0.825
v -86 -32 -0.825
v -87 -33 -0.825
v -88 -33 -0.825
v -88 -32 -0.825
v -87 -32 -0.825
v -88 -33 -0.825
v -89 -33 -0.825
v -89 -32 -0.825
v -88 -32 -0.825
v -89 -33 -0.825
v -90 -33 -0.825
v -90 -32 -0.825
v -89 -32 -0.825
v -90 -33 -0.825
v -91 -33 -0.825
v -91 -32 -0.825
v -90 -32 -0.825
v -91 -33 -0.825
v -92 -33 -0.825
v -92 -32 -0.825
v -91 -32 -0.825
v -92 -33 -0.825
v -93 -33 -0.825
v -93 -32 -0.825
v -92 -32 -0.825
v -93 -33 -0.825
v -94 -33 -0.825
v -94 -32 -0.825
v -93 -32 -0.825
v -94 -33 -0.825
v -95 -33 -0.825
v -95 -32 -0.825
v -94 -32 -0.825
v -95 -33 -0.825
v -96 -33 -0.825
v -96 -32 -0.825
v -95 -32 -0.825
v -96 -33 -0.825
v -97 -33 -0.825
v -97 -32 -0.825
v -96 -32 -0.825
v -97 -33 -0.825
v -98 -33 -0.825
v -98 -32 -0.825
v -97 -32 -0.825
v -98 -33 -0.825
v -99 -33 -0.825
v -99 -32 -0.825
v -98 -32 -0.825
v -99 -33 -0.825
v -100 -33 -0.825
v -100 -32 -0.825
v -99 -32 -0.825
v -100 -33 -0.825
v -101 -33 -0.825
v -101 -32 -0.825
v -100 -32 -0.825
v -101 -33 -0.825
v -102 -33 -0.825
v -102 -32 -0.825
v -101 -32 -0.825
v -109 -33 -0.825
v -110 -33 -0.825
v -110 -32 -0.825
v -109 -32 -0.825
v -110 -33 -0.825
v -111 -33 -0.825
v -111 -32 -0.825
v -110 -32 -0.825
v -111 -33 -0.825
v -112 -33 -0.825
v -112 -32 -0.825
v -111 -32 -0.825
v -112 -33 -0.825
v -113 -33 -0.825
v -113 -32 -0.825
v -112 -32 -0.825
v -113 -33 -0.825
v -114 -33 -0.825
v -114 -32 -0.825
v -113 -32 -0.825
v -114 -33 -0.825
v -115 -33 -0.825
v -115 -32 -0.825
v -114 -32 -0.825
v -115 -33 -0.825
v -116 -33 -0.825
v -116 -32 -0.825
v -115 -32 -0.825
v -116 -33 -0.825
v -117 -33 -0.825
v -117 -32 -0.825
v -116 -32 -0.825
v -117 -33 -0.825
v -118 -33 -0.825
v -118 -32 -0.825
v -117 -32 -0.825
v -118 -33 -0.825
v -119 -33 -0.825
v -119 -32 -0.825
v -118 -32 -0.825
v -119 -33 -0.825
v -120 -33 -0.825
v -120 -32 -0.825
v -119 -32 -0.825
v -120 -33 -0.825
v -121 -33 -0.825
v -121 -32 -0.825
v -120 -32 -0.825
v -121 -33 -0.825
v -122 -33 -0.825
v -122 -32 -0.825
v -121 -32 -0.825
v -122 -33 -0.825
v -123 -33 -0.825
v -123 -32 -0.825
v -122 -32 -0.825
v -123 -33 -0.825
v -124 -33 -0.825
v -124 -32 -0.825
v -123 -32 -0.825
v -124 -33 -0.825
v -125 -33 -0.825
v -125 -32 -0.825
v -124 -32 -0.825
v -125 -33 -0.825
v -126 -33 -0.825
v -126 -32 -0.825
v -125 -32 -0.825
v -126 -33 -0.825
v -127 -33 -0.825
v -127 -32 -0.825
v -126 -32 -0.825
v -127 -33 -0.825
v -128 -33 -0.825
v -128 -32 -0.825
v -127 -32 -0.825
v -128 -33 -0.825
v -129 -33 -0.825
v -129 -32 -0.825
v -128 -32 -0.825
v -129 -33 -0.825
v -130 -33 -0.825
v -130 -32 -0.825
v -129 -32 -0.825
v -130 -33 -0.825
v -131 -33 -0.825
v -131 -32 -0.825
v -130 -32 -0.825
v -131 -33 -0.825
v -132 -33 -0.825
v -132 -32 -0.825
v -131 -32 -0.825
v -132 -33 -0.825
v -133 -33 -0.825
v -133 -32 -0.825
v -132 -32 -0.825
v -133 -33 -0.825
v -134 -33 -0.825
v -134 -32 -0.825
v -133 -32 -0.825
v -134 -33 -0.825
v -135 -33 -0.825
v -135 -32 -0.825
v -134 -32 -0.825
v -135 -33 -0.825
v -136 -33 -0.825
v -136 -32 -0.825
v -135 -32 -0.825
v -136 -33 -0.825
v -137 -33 -0.825
v -137 -32 -0.825
v -136 -32 -0.825
v -137 -33 -0.825
v -138 -33 -0.825
v -138 -32 -0.825
v -137 -32 -0.825
v -138 -33 -0.825
v -139 -33 -0.825
v -139 -32 -0.825
v -138 -32 -0.825
v -139 -33 -0.825
v -140 -33 -0.825
v -140 -32 -0.825
v -139 -32 -0.825
v -140 -33 -0.825
v -141 -33 -0.825
v -141 -32 -0.825
v -140 -32 -0.825
v -141 -33 -0.825
v -142 -33 -0.825
v -142 -32 -0.825
v -141 -32 -0.825
v -142 -33 -0.825
v -143 -33 -0.825
v -143 -32 -0.825
v -142 -32 -0.825
v -143 -33 -0.825
v -144 -33 -0.825
v -144 -32 -0.825
v -143 -32 -0.825
v -144 -33 -0.825
v -145 -33 -0.825
v -145 -32 -0.825
v -144 -32 -0.825
v -145 -33 -0.825
v -146 -33 -0.825
v -146 -32 -0.825
v -145 -32 -0.825
v -146 -33 -0.825
v -147 -33 -0.825
v -147 -32 -0.825
v -146 -32 -0.825
v -147 -33 -0.825
v -148 -33 -0.825
v -148 -32 -0.825
v -147 -32 -0.825
v -148 -33 -0.825
v -149 -33 -0.825
v -149 -32 -0.825
v -148 -32 -0.825
v -149 -33 -0.825
v -150 -33 -0.825
v -150 -32 -0.825
v -149 -32 -0.825
v -150 -33 -0.825
v -151 -33 -0.825
v -151 -32 -0.825
v -150 -32 -0.825
v -151 -33 -0.825
v -152 -33 -0.825
v -152 -32 -0.825
v -151 -32 -0.825
v -152 -33 -0.825
v -153 -33 -0.825
v -153 -32 -0.825
v -152 -32 -0.825
v -153 -33 -0.825
v -154 -33 -0.825
v -154 -32 -0.825
v -153 -32 -0.825
v -154 -33 -0.825
v -155 -33 -0.825
v -155 -32 -0.825
v -154 -32 -0.825
v -155 -33 -0.825
v -156 -33 -0.825
v -156 -32 -0.825
v -155 -32 -0.825
v -156 -33 -0.825
v -157 -33 -0.825
v -157 -32 -0.825
v -156 -32 -0.825
v -157 -33 -0.825
v -158 -33 -0.825
v -158 -32 -0.825
v -157 -32 -0.825
v -158 -33 -0.825
v -159 -33 -0.825
v -159 -32 -0.825
v -158 -32 -0.825
v -159 -33 -0.825
v -160 -33 -0.825
v -160 -32 -0.825
v -159 -32 -0.825
v -160 -33 -0.825
v -161 -33 -0.825
v -161 -32 -0.825
v -160 -32 -0.825
v -161 -33 -0.825
v -162 -33 -0.825
v -162 -32 -0.825
v -161 -32 -0.825
v -162 -33 -0.825
v -163 -33 -0.825
v -163 -32 -0.825
v -162 -32 -0.825
v -163 -33 -0.825
v -164 -33 -0.825
v -164 -32 -0.825
v -163 -32 -0.825
v -164 -33 -0.825
v -165 -33 -0.825
v -165 -32 -0.825
v -164 -32 -0.825
v -165 -33 -0.825
v -166 -33 -0.825
v -166 -32 -0.825
v -165 -32 -0.825
v -166 -33 -0.825
v -167 -33 -0.825
v -167 -32 -0.825
v -166 -32 -0.825
v -167 -33 -0.825
v -168 -33 -0.825
v -168 -32 -0.825
v -167 -32 -0.825
v -168 -33 -0.825
v -169 -33 -0.825
v -169 -32 -0.825
v -168 -32 -0.825
v -169 -33 -0.825
v -170 -33 -0.825
v -170 -32 -0.825
v -169 -32 -0.825
v -170 -33 -0.825
v -171 -33 -0.825
v -171 -32 -0.825
v -170 -32 -0.825
v -171 -33 -0.825
v -172 -33 -0.825
v -172 -32 -0.825
v -171 -32 -0.825
v -172 -33 -0.825
v -173 -33 -0.825
v -173 -32 -0.825
v -172 -32 -0.825
v -173 -33 -0.825
v -174 -33 -0.825
v -174 -32 -0.825
v -173 -32 -0.825
v -174 -33 -0.825
v -175 -33 -0.825
v -175 -32 -0.825
v -174 -32 -0.825
v -175 -33 -0.825
v -176 -33 -0.825
v -176 -32 -0.825
v -175 -32 -0.825
v -176 -33 -0.825
v -177 -33 -0.825
v -177 -32 -0.825
v -176 -32 -0.825
v -177 -33 -0.825
v -178 -33 -0.825
v -178 -32 -0.825
v -177 -32 -0.825
v -178 -33 -0.825
v -179 -33 -0.825
v -179 -32 -0.825
v -178 -32 -0.825
v -179 -33 -0.825
v -180 -33 -0.825
v -180 -32 -0.825
v -179 -32 -0.825
v -180 -33 -0.825
v -181 -33 -0.825
v -181 -32 -0.825
v -180 -32 -0.825
v -181 -33 -0.825
v -182 -33 -0.825
v -182 -32 -0.825
v -181 -32 -0.825
v -182 -33 -0.825
v -183 -33 -0.825
v -183 -32 -0.825
v -182 -32 -0.825
v -183 -33 -0.825
v -184 -33 -0.825
v -184 -32 -0.825
v -183 -32 -0.825
v -236 -33 -0.825
v -237 -33 -0.825
v -237 -32 -0.825
v -236 -32 -0.825
v -237 -33 -0.825
v -238 -33 -0.825
v -238 -32 -0.825
v -237 -32 -0.825
v -238 -33 -0.825
v -239 -33 -0.825
v -239 -32 -0.825
v -238 -32 -0.825
v -239 -33 -0.825
v -240 -33 -0.825
v -240 -32 -0.825
v -239 -32 -0.825
v -240 -33 -0.825
v -241 -33 -0.825
v -241 -32 -0.825
v -240 -32 -0.825
v -241 -33 -0.825
v -242 -33 -0.825
v -242 -32 -0.825
v -241 -32 -0.825
v -242 -33 -0.825
v -243 -33 -0.825
v -243 -32 -0.825
v -242 -32 -0.825
v -243 -33 -0.825
v -244 -33 -0.825
v -244 -32 -0.825
v -243 -32 -0.825
v -244 -33 -0.825
v -245 -33 -0.825
v -245 -32 -0.825
v -244 -32 -0.825
v -245 -33 -0.825
v -246 -33 -0.825
v -246 -32 -0.825
v -245 -32 -0.825
v -246 -33 -0.825
v -247 -33 -0.825
v -247 -32 -0.825
v -246 -32 -0.825
v -247 -33 -0.825
v -248 -33 -0.825
v -248 -32 -0.825
v -247 -32 -0.825
v -248 -33 -0.825
v -249 -33 -0.825
v -249 -32 -0.825
v -248 -32 -0.825
v -249 -33 -0.825
v -250 -33 -0.825
v -250 -32 -0.825
v -249 -32 -0.825
v -250 -33 -0.825
v -251 -33 -0.825
v -251 -32 -0.825
v -250 -32 -0.825
v -251 -33 -0.825
v -252 -33 -0.825
v -252 -32 -0.825
v -251 -32 -0.825
v -252 -33 -0.825
v -253 -33 -0.825
v -253 -32 -0.825
v -252 -32 -0.825
v -253 -33 -0.825
v -254 -33 -0.825
v -254 -32 -0.825
v -253 -32 -0.825
v -254 -33 -0.825
v -255 -33 -0.825
v -255 -32 -0.825
v -254 -32 -0.825
v -255 -33 -0.825
v -256 -33 -0.825
v -256 -32 -0.825
v -255 -32 -0.825
v -256 -33 -0.825
v -257 -33 -0.825
v -257 -32 -0.825
v -256 -32 -0.825
v -257 -33 -0.825
v -258 -33 -0.825
v -258 -32 -0.825
v -257 -32 -0.825
v -258 -33 -0.825
v -259 -33 -0.825
v -259 -32 -0.825
v -258 -32 -0.825
v -259 -33 -0.825
v -260 -33 -0.825
v -260 -32 -0.825
v -259 -32 -0.825
v -260 -33 -0.825
v -261 -33 -0.825
v -261 -32 -0.825
v -260 -32 -0.825
v -261 -33 -0.825
v -262 -33 -0.825
v -262 -32 -0.825
v -261 -32 -0.825
v -262 -33 -0.825
v -263 -33 -0.825
v -263 -32 -0.825
v -262 -32 -0.825
v -263 -33 -0.825
v -264 -33 -0.825
v -264 -32 -0.825
v -263 -32 -0.825
v -264 -33 -0.825
v -265 -33 -0.825
v -265 -32 -0.825
v -264 -32 -0.825
v -265 -33 -0.825
v -266 -33 -0.825
v -266 -32 -0.825
v -265 -32 -0.825
v -266 -33 -0.825
v -267 -33 -0.825
v -267 -32 -0.825
v -266 -32 -0.825
v -267 -33 -0.825
v -268 -33 -0.825
v -268 -32 -0.825
v -267 -32 -0.825
v -268 -33 -0.825
v -269 -33 -0.825
v -269 -32 -0.825
v -268 -32 -0.825
v -269 -33 -0.825
v -270 -33 -0.825
v -270 -32 -0.825
v -269 -32 -0.825

# Texture cooridinates (Count = 14)
vt 0 0
vt 0.1488372 0
vt 0.1488372 1
vt 0 1
vt 0.2976744 0
vt 0.2976744 1
vt 0.4465116 0
vt 0.4465116 1
vt 0.5953488 0
vt 0.5953488 1
vt 0.744186 0
vt 0.744186 1
vt 0.8930233 0
vt 0.8930233 1

# Normal
vn 0 0 -1

# Mesh description
g Level3_mesh_0009

# Faces
f 1/1/1 2/2/1 3/3/1 4/4/1
f 5/2/1 6/5/1 7/6/1 8/3/1
f 9/5/1 10/7/1 11/8/1 12/6/1
f 13/7/1 14/9/1 15/10/1 16/8/1
f 17/9/1 18/11/1 19/12/1 20/10/1
f 21/11/1 22/13/1 23/14/1 24/12/1
f 25/2/1 26/5/1 27/6/1 28/3/1
f 29/1/1 30/2/1 31/3/1 32/4/1
f 33/2/1 34/5/1 35/6/1 36/3/1
f 37/5/1 38/7/1 39/8/1 40/6/1
f 41/7/1 42/9/1 43/10/1 44/8/1
f 45/9/1 46/11/1 47/12/1 48/10/1
f 49/11/1 50/13/1 51/14/1 52/12/1
f 53/2/1 54/5/1 55/6/1 56/3/1
f 57/1/1 58/2/1 59/3/1 60/4/1
f 61/2/1 62/5/1 63/6/1 64/3/1
f 65/5/1 66/7/1 67/8/1 68/6/1
f 69/7/1 70/9/1 71/10/1 72/8/1
f 73/9/1 74/11/1 75/12/1 76/10/1
f 77/11/1 78/13/1 79/14/1 80/12/1
f 81/2/1 82/5/1 83/6/1 84/3/1
f 85/1/1 86/2/1 87/3/1 88/4/1
f 89/2/1 90/5/1 91/6/1 92/3/1
f 93/5/1 94/7/1 95/8/1 96/6/1
f 97/7/1 98/9/1 99/10/1 100/8/1
f 101/9/1 102/11/1 103/12/1 104/10/1
f 105/11/1 106/13/1 107/14/1 108/12/1
f 109/2/1 110/5/1 111/6/1 112/3/1
f 113/1/1 114/2/1 115/3/1 116/4/1
f 117/2/1 118/5/1 119/6/1 120/3/1
f 121/5/1 122/7/1 123/8/1 124/6/1
f 125/7/1 126/9/1 127/10/1 128/8/1
f 129/9/1 130/11/1 131/12/1 132/10/1
f 133/11/1 134/13/1 135/14/1 136/12/1
f 137/2/1 138/5/1 139/6/1 140/3/1
f 141/1/1 142/2/1 143/3/1 144/4/1
f 145/2/1 146/5/1 147/6/1 148/3/1
f 149/5/1 150/7/1 151/8/1 152/6/1
f 153/7/1 154/9/1 155/10/1 156/8/1
f 157/9/1 158/11/1 159/12/1 160/10/1
f 161/11/1 162/13/1 163/14/1 164/12/1
f 165/2/1 166/5/1 167/6/1 168/3/1
f 169/1/1 170/2/1 171/3/1 172/4/1
f 173/2/1 174/5/1 175/6/1 176/3/1
f 177/5/1 178/7/1 179/8/1 180/6/1
f 181/7/1 182/9/1 183/10/1 184/8/1
f 185/9/1 186/11/1 187/12/1 188/10/1
f 189/11/1 190/13/1 191/14/1 192/12/1
f 193/2/1 194/5/1 195/6/1 196/3/1
f 197/1/1 198/2/1 199/3/1 200/4/1
f 201/2/1 202/5/1 203/6/1 204/3/1
f 205/2/1 206/5/1 207/6/1 208/3/1
f 209/1/1 210/2/1 211/3/1 212/4/1
f 213/2/1 214/5/1 215/6/1 216/3/1
f 217/2/1 218/5/1 219/6/1 220/3/1
f 221/2/1 222/5/1 223/6/1 224/3/1
f 225/2/1 226/5/1 227/6/1 228/3/1
f 229/2/1 230/5/1 231/6/1 232/3/1
f 233/2/1 234/5/1 235/6/1 236/3/1
f 237/1/1 238/2/1 239/3/1 240/4/1
f 241/2/1 242/5/1 243/6/1 244/3/1
f 245/5/1 246/7/1 247/8/1 248/6/1
f 249/7/1 250/9/1 251/10/1 252/8/1
f 253/9/1 254/11/1 255/12/1 256/10/1
f 257/11/1 258/13/1 259/14/1 260/12/1
f 261/2/1 262/5/1 263/6/1 264/3/1
f 265/1/1 266/2/1 267/3/1 268/4/1
f 269/2/1 270/5/1 271/6/1 272/3/1
f 273/5/1 274/7/1 275/8/1 276/6/1
f 277/7/1 278/9/1 279/10/1 280/8/1
f 281/9/1 282/11/1 283/12/1 284/10/1
f 285/11/1 286/13/1 287/14/1 288/12/1
f 289/2/1 290/5/1 291/6/1 292/3/1
f 293/1/1 294/2/1 295/3/1 296/4/1
f 297/2/1 298/5/1 299/6/1 300/3/1
f 301/2/1 302/5/1 303/6/1 304/3/1
f 305/1/1 306/2/1 307/3/1 308/4/1
f 309/2/1 310/5/1 311/6/1 312/3/1
f 313/2/1 314/5/1 315/6/1 316/3/1
f 317/2/1 318/5/1 319/6/1 320/3/1
f 321/2/1 322/5/1 323/6/1 324/3/1
f 325/2/1 326/5/1 327/6/1 328/3/1
f 329/2/1 330/5/1 331/6/1 332/3/1
f 333/1/1 334/2/1 335/3/1 336/4/1
f 337/2/1 338/5/1 339/6/1 340/3/1
f 341/5/1 342/7/1 343/8/1 344/6/1
f 345/7/1 346/9/1 347/10/1 348/8/1
f 349/9/1 350/11/1 351/12/1 352/10/1
f 353/11/1 354/13/1 355/14/1 356/12/1
f 357/2/1 358/5/1 359/6/1 360/3/1
f 361/1/1 362/2/1 363/3/1 364/4/1
f 365/2/1 366/5/1 367/6/1 368/3/1
f 369/2/1 370/5/1 371/6/1 372/3/1
f 373/1/1 374/2/1 375/3/1 376/4/1
f 377/2/1 378/5/1 379/6/1 380/3/1
f 381/2/1 382/5/1 383/6/1 384/3/1
f 385/2/1 386/5/1 387/6/1 388/3/1
f 389/2/1 390/5/1 391/6/1 392/3/1
f 393/2/1 394/5/1 395/6/1 396/3/1
f 397/2/1 398/5/1 399/6/1 400/3/1
f 401/1/1 402/2/1 403/3/1 404/4/1
f 405/2/1 406/5/1 407/6/1 408/3/1
f 409/5/1 410/7/1 411/8/1 412/6/1
f 413/7/1 414/9/1 415/10/1 416/8/1
f 417/9/1 418/11/1 419/12/1 420/10/1
f 421/11/1 422/13/1 423/14/1 424/12/1
f 425/2/1 426/5/1 427/6/1 428/3/1
f 429/1/1 430/2/1 431/3/1 432/4/1
f 433/2/1 434/5/1 435/6/1 436/3/1
f 437/2/1 438/5/1 439/6/1 440/3/1
f 441/1/1 442/2/1 443/3/1 444/4/1
f 445/2/1 446/5/1 447/6/1 448/3/1
f 449/2/1 450/5/1 451/6/1 452/3/1
f 453/2/1 454/5/1 455/6/1 456/3/1
f 457/2/1 458/5/1 459/6/1 460/3/1
f 461/2/1 462/5/1 463/6/1 464/3/1
f 465/2/1 466/5/1 467/6/1 468/3/1
f 469/1/1 470/2/1 471/3/1 472/4/1
f 473/2/1 474/5/1 475/6/1 476/3/1
f 477/5/1 478/7/1 479/8/1 480/6/1
f 481/7/1 482/9/1 483/10/1 484/8/1
f 485/9/1 486/11/1 487/12/1 488/10/1
f 489/11/1 490/13/1 491/14/1 492/12/1
f 493/2/1 494/5/1 495/6/1 496/3/1
f 497/1/1 498/2/1 499/3/1 500/4/1
f 501/2/1 502/5/1 503/6/1 504/3/1
f 505/2/1 506/5/1 507/6/1 508/3/1
f 509/1/1 510/2/1 511/3/1 512/4/1
f 513/2/1 514/5/1 515/6/1 516/3/1
f 517/2/1 518/5/1 519/6/1 520/3/1
f 521/2/1 522/5/1 523/6/1 524/3/1
f 525/2/1 526/5/1 527/6/1 528/3/1
f 529/2/1 530/5/1 531/6/1 532/3/1
f 533/2/1 534/5/1 535/6/1 536/3/1
f 537/5/1 538/2/1 539/3/1 540/6/1
f 541/5/1 542/2/1 543/3/1 544/6/1
f 545/5/1 546/2/1 547/3/1 548/6/1
f 549/5/1 550/2/1 551/3/1 552/6/1
f 553/5/1 554/2/1 555/3/1 556/6/1
f 557/5/1 558/2/1 559/3/1 560/6/1
f 561/2/1 562/1/1 563/4/1 564/3/1
f 565/5/1 566/2/1 567/3/1 568/6/1
f 569/5/1 570/2/1 571/3/1 572/6/1
f 573/2/1 574/1/1 575/4/1 576/3/1
f 577/5/1 578/2/1 579/3/1 580/6/1
f 581/13/1 582/11/1 583/12/1 584/14/1
f 585/11/1 586/9/1 587/10/1 588/12/1
f 589/9/1 590/7/1 591/8/1 592/10/1
f 593/7/1 594/5/1 595/6/1 596/8/1
f 597/5/1 598/2/1 599/3/1 600/6/1
f 601/2/1 602/1/1 603/4/1 604/3/1

