# Tiled2Unity generated file. Do not modify by hand.
# Wavefront file for 'Level3_mesh_0006.obj'

# Vertices (Count = 96)
v -127 -29 -0.725
v -128 -29 -0.725
v -128 -28 -0.725
v -127 -28 -0.725
v -128 -29 -0.725
v -129 -29 -0.725
v -129 -28 -0.725
v -128 -28 -0.725
v -129 -29 -0.725
v -130 -29 -0.725
v -130 -28 -0.725
v -129 -28 -0.725
v -130 -29 -0.725
v -131 -29 -0.725
v -131 -28 -0.725
v -130 -28 -0.725
v -131 -29 -0.725
v -132 -29 -0.725
v -132 -28 -0.725
v -131 -28 -0.725
v -132 -29 -0.725
v -133 -29 -0.725
v -133 -28 -0.725
v -132 -28 -0.725
v -127 -30 -0.75
v -128 -30 -0.75
v -128 -29 -0.75
v -127 -29 -0.75
v -128 -30 -0.75
v -129 -30 -0.75
v -129 -29 -0.75
v -128 -29 -0.75
v -129 -30 -0.75
v -130 -30 -0.75
v -130 -29 -0.75
v -129 -29 -0.75
v -130 -30 -0.75
v -131 -30 -0.75
v -131 -29 -0.75
v -130 -29 -0.75
v -131 -30 -0.75
v -132 -30 -0.75
v -132 -29 -0.75
v -131 -29 -0.75
v -132 -30 -0.75
v -133 -30 -0.75
v -133 -29 -0.75
v -132 -29 -0.75
v -127 -31 -0.775
v -128 -31 -0.775
v -128 -30 -0.775
v -127 -30 -0.775
v -128 -31 -0.775
v -129 -31 -0.775
v -129 -30 -0.775
v -128 -30 -0.775
v -129 -31 -0.775
v -130 -31 -0.775
v -130 -30 -0.775
v -129 -30 -0.775
v -130 -31 -0.775
v -131 -31 -0.775
v -131 -30 -0.775
v -130 -30 -0.775
v -131 -31 -0.775
v -132 -31 -0.775
v -132 -30 -0.775
v -131 -30 -0.775
v -132 -31 -0.775
v -133 -31 -0.775
v -133 -30 -0.775
v -132 -30 -0.775
v -127 -32 -0.8
v -128 -32 -0.8
v -128 -31 -0.8
v -127 -31 -0.8
v -128 -32 -0.8
v -129 -32 -0.8
v -129 -31 -0.8
v -128 -31 -0.8
v -129 -32 -0.8
v -130 -32 -0.8
v -130 -31 -0.8
v -129 -31 -0.8
v -130 -32 -0.8
v -131 -32 -0.8
v -131 -31 -0.8
v -130 -31 -0.8
v -131 -32 -0.8
v -132 -32 -0.8
v -132 -31 -0.8
v -131 -31 -0.8
v -132 -32 -0.8
v -133 -32 -0.8
v -133 -31 -0.8
v -132 -31 -0.8

# Texture cooridinates (Count = 35)
vt 0 0.75
vt 0.1666667 0.75
vt 0.1666667 1
vt 0 1
vt 0.3333333 0.75
vt 0.3333333 1
vt 0.5 0.75
vt 0.5 1
vt 0.6666667 0.75
vt 0.6666667 1
vt 0.8333333 0.75
vt 0.8333333 1
vt 1 0.75
vt 1 1
vt 0 0.5
vt 0.1666667 0.5
vt 0.3333333 0.5
vt 0.5 0.5
vt 0.6666667 0.5
vt 0.8333333 0.5
vt 1 0.5
vt 0 0.25
vt 0.1666667 0.25
vt 0.3333333 0.25
vt 0.5 0.25
vt 0.6666667 0.25
vt 0.8333333 0.25
vt 1 0.25
vt 0 0
vt 0.1666667 0
vt 0.3333333 0
vt 0.5 0
vt 0.6666667 0
vt 0.8333333 0
vt 1 0

# Normal
vn 0 0 -1

# Mesh description
g Level3_mesh_0006

# Faces
f 1/1/1 2/2/1 3/3/1 4/4/1
f 5/2/1 6/5/1 7/6/1 8/3/1
f 9/5/1 10/7/1 11/8/1 12/6/1
f 13/7/1 14/9/1 15/10/1 16/8/1
f 17/9/1 18/11/1 19/12/1 20/10/1
f 21/11/1 22/13/1 23/14/1 24/12/1
f 25/15/1 26/16/1 27/2/1 28/1/1
f 29/16/1 30/17/1 31/5/1 32/2/1
f 33/17/1 34/18/1 35/7/1 36/5/1
f 37/18/1 38/19/1 39/9/1 40/7/1
f 41/19/1 42/20/1 43/11/1 44/9/1
f 45/20/1 46/21/1 47/13/1 48/11/1
f 49/22/1 50/23/1 51/16/1 52/15/1
f 53/23/1 54/24/1 55/17/1 56/16/1
f 57/24/1 58/25/1 59/18/1 60/17/1
f 61/25/1 62/26/1 63/19/1 64/18/1
f 65/26/1 66/27/1 67/20/1 68/19/1
f 69/27/1 70/28/1 71/21/1 72/20/1
f 73/29/1 74/30/1 75/23/1 76/22/1
f 77/30/1 78/31/1 79/24/1 80/23/1
f 81/31/1 82/32/1 83/25/1 84/24/1
f 85/32/1 86/33/1 87/26/1 88/25/1
f 89/33/1 90/34/1 91/27/1 92/26/1
f 93/34/1 94/35/1 95/28/1 96/27/1

