# Tiled2Unity generated file. Do not modify by hand.
# Wavefront file for 'Level3_mesh_0043.obj'

# Vertices (Count = 132)
v -62 -34 -0.85
v -63 -34 -0.85
v -63 -33 -0.85
v -62 -33 -0.85
v -64 -34 -0.85
v -65 -34 -0.85
v -65 -33 -0.85
v -64 -33 -0.85
v -69 -34 -0.85
v -70 -34 -0.85
v -70 -33 -0.85
v -69 -33 -0.85
v -71 -34 -0.85
v -72 -34 -0.85
v -72 -33 -0.85
v -71 -33 -0.85
v -76 -34 -0.85
v -77 -34 -0.85
v -77 -33 -0.85
v -76 -33 -0.85
v -78 -34 -0.85
v -79 -34 -0.85
v -79 -33 -0.85
v -78 -33 -0.85
v -83 -34 -0.85
v -84 -34 -0.85
v -84 -33 -0.85
v -83 -33 -0.85
v -85 -34 -0.85
v -86 -34 -0.85
v -86 -33 -0.85
v -85 -33 -0.85
v -90 -34 -0.85
v -91 -34 -0.85
v -91 -33 -0.85
v -90 -33 -0.85
v -92 -34 -0.85
v -93 -34 -0.85
v -93 -33 -0.85
v -92 -33 -0.85
v -97 -34 -0.85
v -98 -34 -0.85
v -98 -33 -0.85
v -97 -33 -0.85
v -99 -34 -0.85
v -100 -34 -0.85
v -100 -33 -0.85
v -99 -33 -0.85
v -62 -35 -0.875
v -63 -35 -0.875
v -63 -34 -0.875
v -62 -34 -0.875
v -63 -35 -0.875
v -64 -35 -0.875
v -64 -34 -0.875
v -63 -34 -0.875
v -64 -35 -0.875
v -65 -35 -0.875
v -65 -34 -0.875
v -64 -34 -0.875
v -69 -35 -0.875
v -70 -35 -0.875
v -70 -34 -0.875
v -69 -34 -0.875
v -70 -35 -0.875
v -71 -35 -0.875
v -71 -34 -0.875
v -70 -34 -0.875
v -71 -35 -0.875
v -72 -35 -0.875
v -72 -34 -0.875
v -71 -34 -0.875
v -76 -35 -0.875
v -77 -35 -0.875
v -77 -34 -0.875
v -76 -34 -0.875
v -77 -35 -0.875
v -78 -35 -0.875
v -78 -34 -0.875
v -77 -34 -0.875
v -78 -35 -0.875
v -79 -35 -0.875
v -79 -34 -0.875
v -78 -34 -0.875
v -83 -35 -0.875
v -84 -35 -0.875
v -84 -34 -0.875
v -83 -34 -0.875
v -84 -35 -0.875
v -85 -35 -0.875
v -85 -34 -0.875
v -84 -34 -0.875
v -85 -35 -0.875
v -86 -35 -0.875
v -86 -34 -0.875
v -85 -34 -0.875
v -90 -35 -0.875
v -91 -35 -0.875
v -91 -34 -0.875
v -90 -34 -0.875
v -91 -35 -0.875
v -92 -35 -0.875
v -92 -34 -0.875
v -91 -34 -0.875
v -92 -35 -0.875
v -93 -35 -0.875
v -93 -34 -0.875
v -92 -34 -0.875
v -97 -35 -0.875
v -98 -35 -0.875
v -98 -34 -0.875
v -97 -34 -0.875
v -98 -35 -0.875
v -99 -35 -0.875
v -99 -34 -0.875
v -98 -34 -0.875
v -99 -35 -0.875
v -100 -35 -0.875
v -100 -34 -0.875
v -99 -34 -0.875
v -62 -36 -0.9
v -63 -36 -0.9
v -63 -35 -0.9
v -62 -35 -0.9
v -63 -36 -0.9
v -64 -36 -0.9
v -64 -35 -0.9
v -63 -35 -0.9
v -64 -36 -0.9
v -65 -36 -0.9
v -65 -35 -0.9
v -64 -35 -0.9

# Texture cooridinates (Count = 16)
vt 0 0.84
vt 0.02380952 0.84
vt 0.02380952 1
vt 0 1
vt 0.04761905 0.84
vt 0.07142857 0.84
vt 0.07142857 1
vt 0.04761905 1
vt 0 0.68
vt 0.02380952 0.68
vt 0.04761905 0.68
vt 0.07142857 0.68
vt 0 0.52
vt 0.02380952 0.52
vt 0.04761905 0.52
vt 0.07142857 0.52

# Normal
vn 0 0 -1

# Mesh description
g Level3_mesh_0043

# Faces
f 1/1/1 2/2/1 3/3/1 4/4/1
f 5/5/1 6/6/1 7/7/1 8/8/1
f 9/1/1 10/2/1 11/3/1 12/4/1
f 13/5/1 14/6/1 15/7/1 16/8/1
f 17/1/1 18/2/1 19/3/1 20/4/1
f 21/5/1 22/6/1 23/7/1 24/8/1
f 25/1/1 26/2/1 27/3/1 28/4/1
f 29/5/1 30/6/1 31/7/1 32/8/1
f 33/1/1 34/2/1 35/3/1 36/4/1
f 37/5/1 38/6/1 39/7/1 40/8/1
f 41/1/1 42/2/1 43/3/1 44/4/1
f 45/5/1 46/6/1 47/7/1 48/8/1
f 49/9/1 50/10/1 51/2/1 52/1/1
f 53/10/1 54/11/1 55/5/1 56/2/1
f 57/11/1 58/12/1 59/6/1 60/5/1
f 61/9/1 62/10/1 63/2/1 64/1/1
f 65/10/1 66/11/1 67/5/1 68/2/1
f 69/11/1 70/12/1 71/6/1 72/5/1
f 73/9/1 74/10/1 75/2/1 76/1/1
f 77/10/1 78/11/1 79/5/1 80/2/1
f 81/11/1 82/12/1 83/6/1 84/5/1
f 85/9/1 86/10/1 87/2/1 88/1/1
f 89/10/1 90/11/1 91/5/1 92/2/1
f 93/11/1 94/12/1 95/6/1 96/5/1
f 97/9/1 98/10/1 99/2/1 100/1/1
f 101/10/1 102/11/1 103/5/1 104/2/1
f 105/11/1 106/12/1 107/6/1 108/5/1
f 109/9/1 110/10/1 111/2/1 112/1/1
f 113/10/1 114/11/1 115/5/1 116/2/1
f 117/11/1 118/12/1 119/6/1 120/5/1
f 121/13/1 122/14/1 123/10/1 124/9/1
f 125/14/1 126/15/1 127/11/1 128/10/1
f 129/15/1 130/16/1 131/12/1 132/11/1

