# Tiled2Unity generated file. Do not modify by hand.
# Wavefront file for 'Level3_mesh_0044.obj'

# Vertices (Count = 24)
v -63 -34 -0.85
v -64 -34 -0.85
v -64 -33 -0.85
v -63 -33 -0.85
v -70 -34 -0.85
v -71 -34 -0.85
v -71 -33 -0.85
v -70 -33 -0.85
v -77 -34 -0.85
v -78 -34 -0.85
v -78 -33 -0.85
v -77 -33 -0.85
v -84 -34 -0.85
v -85 -34 -0.85
v -85 -33 -0.85
v -84 -33 -0.85
v -91 -34 -0.85
v -92 -34 -0.85
v -92 -33 -0.85
v -91 -33 -0.85
v -98 -34 -0.85
v -99 -34 -0.85
v -99 -33 -0.85
v -98 -33 -0.85

# Texture cooridinates (Count = 4)
vt 0 0.84
vt 0.02380952 0.84
vt 0.02380952 1
vt 0 1

# Normal
vn 0 0 -1

# Mesh description
g Level3_mesh_0044

# Faces
f 1/1/1 2/2/1 3/3/1 4/4/1
f 5/1/1 6/2/1 7/3/1 8/4/1
f 9/1/1 10/2/1 11/3/1 12/4/1
f 13/1/1 14/2/1 15/3/1 16/4/1
f 17/1/1 18/2/1 19/3/1 20/4/1
f 21/1/1 22/2/1 23/3/1 24/4/1

