# Tiled2Unity generated file. Do not modify by hand.
# Wavefront file for 'Level3_mesh_0004.obj'

# Vertices (Count = 288)
v -223 -4 -0.1
v -224 -4 -0.1
v -224 -3 -0.1
v -223 -3 -0.1
v -224 -4 -0.1
v -225 -4 -0.1
v -225 -3 -0.1
v -224 -3 -0.1
v -225 -4 -0.1
v -226 -4 -0.1
v -226 -3 -0.1
v -225 -3 -0.1
v -226 -4 -0.1
v -227 -4 -0.1
v -227 -3 -0.1
v -226 -3 -0.1
v -227 -4 -0.1
v -228 -4 -0.1
v -228 -3 -0.1
v -227 -3 -0.1
v -228 -4 -0.1
v -229 -4 -0.1
v -229 -3 -0.1
v -228 -3 -0.1
v -229 -4 -0.1
v -230 -4 -0.1
v -230 -3 -0.1
v -229 -3 -0.1
v -230 -4 -0.1
v -231 -4 -0.1
v -231 -3 -0.1
v -230 -3 -0.1
v -231 -4 -0.1
v -232 -4 -0.1
v -232 -3 -0.1
v -231 -3 -0.1
v -232 -4 -0.1
v -233 -4 -0.1
v -233 -3 -0.1
v -232 -3 -0.1
v -233 -4 -0.1
v -234 -4 -0.1
v -234 -3 -0.1
v -233 -3 -0.1
v -234 -4 -0.1
v -235 -4 -0.1
v -235 -3 -0.1
v -234 -3 -0.1
v -235 -4 -0.1
v -236 -4 -0.1
v -236 -3 -0.1
v -235 -3 -0.1
v -236 -4 -0.1
v -237 -4 -0.1
v -237 -3 -0.1
v -236 -3 -0.1
v -237 -4 -0.1
v -238 -4 -0.1
v -238 -3 -0.1
v -237 -3 -0.1
v -238 -4 -0.1
v -239 -4 -0.1
v -239 -3 -0.1
v -238 -3 -0.1
v -239 -4 -0.1
v -240 -4 -0.1
v -240 -3 -0.1
v -239 -3 -0.1
v -240 -4 -0.1
v -241 -4 -0.1
v -241 -3 -0.1
v -240 -3 -0.1
v -223 -5 -0.125
v -224 -5 -0.125
v -224 -4 -0.125
v -223 -4 -0.125
v -224 -5 -0.125
v -225 -5 -0.125
v -225 -4 -0.125
v -224 -4 -0.125
v -225 -5 -0.125
v -226 -5 -0.125
v -226 -4 -0.125
v -225 -4 -0.125
v -226 -5 -0.125
v -227 -5 -0.125
v -227 -4 -0.125
v -226 -4 -0.125
v -227 -5 -0.125
v -228 -5 -0.125
v -228 -4 -0.125
v -227 -4 -0.125
v -228 -5 -0.125
v -229 -5 -0.125
v -229 -4 -0.125
v -228 -4 -0.125
v -229 -5 -0.125
v -230 -5 -0.125
v -230 -4 -0.125
v -229 -4 -0.125
v -230 -5 -0.125
v -231 -5 -0.125
v -231 -4 -0.125
v -230 -4 -0.125
v -231 -5 -0.125
v -232 -5 -0.125
v -232 -4 -0.125
v -231 -4 -0.125
v -232 -5 -0.125
v -233 -5 -0.125
v -233 -4 -0.125
v -232 -4 -0.125
v -233 -5 -0.125
v -234 -5 -0.125
v -234 -4 -0.125
v -233 -4 -0.125
v -234 -5 -0.125
v -235 -5 -0.125
v -235 -4 -0.125
v -234 -4 -0.125
v -235 -5 -0.125
v -236 -5 -0.125
v -236 -4 -0.125
v -235 -4 -0.125
v -236 -5 -0.125
v -237 -5 -0.125
v -237 -4 -0.125
v -236 -4 -0.125
v -237 -5 -0.125
v -238 -5 -0.125
v -238 -4 -0.125
v -237 -4 -0.125
v -238 -5 -0.125
v -239 -5 -0.125
v -239 -4 -0.125
v -238 -4 -0.125
v -239 -5 -0.125
v -240 -5 -0.125
v -240 -4 -0.125
v -239 -4 -0.125
v -240 -5 -0.125
v -241 -5 -0.125
v -241 -4 -0.125
v -240 -4 -0.125
v -192 -24 -0.6
v -193 -24 -0.6
v -193 -23 -0.6
v -192 -23 -0.6
v -193 -24 -0.6
v -194 -24 -0.6
v -194 -23 -0.6
v -193 -23 -0.6
v -194 -24 -0.6
v -195 -24 -0.6
v -195 -23 -0.6
v -194 -23 -0.6
v -195 -24 -0.6
v -196 -24 -0.6
v -196 -23 -0.6
v -195 -23 -0.6
v -196 -24 -0.6
v -197 -24 -0.6
v -197 -23 -0.6
v -196 -23 -0.6
v -197 -24 -0.6
v -198 -24 -0.6
v -198 -23 -0.6
v -197 -23 -0.6
v -192 -25 -0.625
v -193 -25 -0.625
v -193 -24 -0.625
v -192 -24 -0.625
v -193 -25 -0.625
v -194 -25 -0.625
v -194 -24 -0.625
v -193 -24 -0.625
v -194 -25 -0.625
v -195 -25 -0.625
v -195 -24 -0.625
v -194 -24 -0.625
v -195 -25 -0.625
v -196 -25 -0.625
v -196 -24 -0.625
v -195 -24 -0.625
v -196 -25 -0.625
v -197 -25 -0.625
v -197 -24 -0.625
v -196 -24 -0.625
v -197 -25 -0.625
v -198 -25 -0.625
v -198 -24 -0.625
v -197 -24 -0.625
v 0 -28 -0.7
v -1 -28 -0.7
v -1 -27 -0.7
v 0 -27 -0.7
v -1 -28 -0.7
v -2 -28 -0.7
v -2 -27 -0.7
v -1 -27 -0.7
v -2 -28 -0.7
v -3 -28 -0.7
v -3 -27 -0.7
v -2 -27 -0.7
v -3 -28 -0.7
v -4 -28 -0.7
v -4 -27 -0.7
v -3 -27 -0.7
v -4 -28 -0.7
v -5 -28 -0.7
v -5 -27 -0.7
v -4 -27 -0.7
v -5 -28 -0.7
v -6 -28 -0.7
v -6 -27 -0.7
v -5 -27 -0.7
v 0 -29 -0.725
v -1 -29 -0.725
v -1 -28 -0.725
v 0 -28 -0.725
v -1 -29 -0.725
v -2 -29 -0.725
v -2 -28 -0.725
v -1 -28 -0.725
v -2 -29 -0.725
v -3 -29 -0.725
v -3 -28 -0.725
v -2 -28 -0.725
v -3 -29 -0.725
v -4 -29 -0.725
v -4 -28 -0.725
v -3 -28 -0.725
v -4 -29 -0.725
v -5 -29 -0.725
v -5 -28 -0.725
v -4 -28 -0.725
v -5 -29 -0.725
v -6 -29 -0.725
v -6 -28 -0.725
v -5 -28 -0.725
v -209 -30 -0.75
v -210 -30 -0.75
v -210 -29 -0.75
v -209 -29 -0.75
v -210 -30 -0.75
v -211 -30 -0.75
v -211 -29 -0.75
v -210 -29 -0.75
v -211 -30 -0.75
v -212 -30 -0.75
v -212 -29 -0.75
v -211 -29 -0.75
v -212 -30 -0.75
v -213 -30 -0.75
v -213 -29 -0.75
v -212 -29 -0.75
v -213 -30 -0.75
v -214 -30 -0.75
v -214 -29 -0.75
v -213 -29 -0.75
v -214 -30 -0.75
v -215 -30 -0.75
v -215 -29 -0.75
v -214 -29 -0.75
v -209 -31 -0.775
v -210 -31 -0.775
v -210 -30 -0.775
v -209 -30 -0.775
v -210 -31 -0.775
v -211 -31 -0.775
v -211 -30 -0.775
v -210 -30 -0.775
v -211 -31 -0.775
v -212 -31 -0.775
v -212 -30 -0.775
v -211 -30 -0.775
v -212 -31 -0.775
v -213 -31 -0.775
v -213 -30 -0.775
v -212 -30 -0.775
v -213 -31 -0.775
v -214 -31 -0.775
v -214 -30 -0.775
v -213 -30 -0.775
v -214 -31 -0.775
v -215 -31 -0.775
v -215 -30 -0.775
v -214 -30 -0.775

# Texture cooridinates (Count = 21)
vt 0 0.5
vt 0.1666667 0.5
vt 0.1666667 1
vt 0 1
vt 0.3333333 0.5
vt 0.3333333 1
vt 0.5 0.5
vt 0.5 1
vt 0.6666667 0.5
vt 0.6666667 1
vt 0.8333333 0.5
vt 0.8333333 1
vt 1 0.5
vt 1 1
vt 0 0
vt 0.1666667 0
vt 0.3333333 0
vt 0.5 0
vt 0.6666667 0
vt 0.8333333 0
vt 1 0

# Normal
vn 0 0 -1

# Mesh description
g Level3_mesh_0004

# Faces
f 1/1/1 2/2/1 3/3/1 4/4/1
f 5/2/1 6/5/1 7/6/1 8/3/1
f 9/5/1 10/7/1 11/8/1 12/6/1
f 13/7/1 14/9/1 15/10/1 16/8/1
f 17/9/1 18/11/1 19/12/1 20/10/1
f 21/11/1 22/13/1 23/14/1 24/12/1
f 25/1/1 26/2/1 27/3/1 28/4/1
f 29/2/1 30/5/1 31/6/1 32/3/1
f 33/5/1 34/7/1 35/8/1 36/6/1
f 37/7/1 38/9/1 39/10/1 40/8/1
f 41/9/1 42/11/1 43/12/1 44/10/1
f 45/11/1 46/13/1 47/14/1 48/12/1
f 49/1/1 50/2/1 51/3/1 52/4/1
f 53/2/1 54/5/1 55/6/1 56/3/1
f 57/5/1 58/7/1 59/8/1 60/6/1
f 61/7/1 62/9/1 63/10/1 64/8/1
f 65/9/1 66/11/1 67/12/1 68/10/1
f 69/11/1 70/13/1 71/14/1 72/12/1
f 73/15/1 74/16/1 75/2/1 76/1/1
f 77/16/1 78/17/1 79/5/1 80/2/1
f 81/17/1 82/18/1 83/7/1 84/5/1
f 85/18/1 86/19/1 87/9/1 88/7/1
f 89/19/1 90/20/1 91/11/1 92/9/1
f 93/20/1 94/21/1 95/13/1 96/11/1
f 97/15/1 98/16/1 99/2/1 100/1/1
f 101/16/1 102/17/1 103/5/1 104/2/1
f 105/17/1 106/18/1 107/7/1 108/5/1
f 109/18/1 110/19/1 111/9/1 112/7/1
f 113/19/1 114/20/1 115/11/1 116/9/1
f 117/20/1 118/21/1 119/13/1 120/11/1
f 121/15/1 122/16/1 123/2/1 124/1/1
f 125/16/1 126/17/1 127/5/1 128/2/1
f 129/17/1 130/18/1 131/7/1 132/5/1
f 133/18/1 134/19/1 135/9/1 136/7/1
f 137/19/1 138/20/1 139/11/1 140/9/1
f 141/20/1 142/21/1 143/13/1 144/11/1
f 145/1/1 146/2/1 147/3/1 148/4/1
f 149/2/1 150/5/1 151/6/1 152/3/1
f 153/5/1 154/7/1 155/8/1 156/6/1
f 157/7/1 158/9/1 159/10/1 160/8/1
f 161/9/1 162/11/1 163/12/1 164/10/1
f 165/11/1 166/13/1 167/14/1 168/12/1
f 169/15/1 170/16/1 171/2/1 172/1/1
f 173/16/1 174/17/1 175/5/1 176/2/1
f 177/17/1 178/18/1 179/7/1 180/5/1
f 181/18/1 182/19/1 183/9/1 184/7/1
f 185/19/1 186/20/1 187/11/1 188/9/1
f 189/20/1 190/21/1 191/13/1 192/11/1
f 193/1/1 194/2/1 195/3/1 196/4/1
f 197/2/1 198/5/1 199/6/1 200/3/1
f 201/5/1 202/7/1 203/8/1 204/6/1
f 205/7/1 206/9/1 207/10/1 208/8/1
f 209/9/1 210/11/1 211/12/1 212/10/1
f 213/11/1 214/13/1 215/14/1 216/12/1
f 217/15/1 218/16/1 219/2/1 220/1/1
f 221/16/1 222/17/1 223/5/1 224/2/1
f 225/17/1 226/18/1 227/7/1 228/5/1
f 229/18/1 230/19/1 231/9/1 232/7/1
f 233/19/1 234/20/1 235/11/1 236/9/1
f 237/20/1 238/21/1 239/13/1 240/11/1
f 241/1/1 242/2/1 243/3/1 244/4/1
f 245/2/1 246/5/1 247/6/1 248/3/1
f 249/5/1 250/7/1 251/8/1 252/6/1
f 253/7/1 254/9/1 255/10/1 256/8/1
f 257/9/1 258/11/1 259/12/1 260/10/1
f 261/11/1 262/13/1 263/14/1 264/12/1
f 265/15/1 266/16/1 267/2/1 268/1/1
f 269/16/1 270/17/1 271/5/1 272/2/1
f 273/17/1 274/18/1 275/7/1 276/5/1
f 277/18/1 278/19/1 279/9/1 280/7/1
f 281/19/1 282/20/1 283/11/1 284/9/1
f 285/20/1 286/21/1 287/13/1 288/11/1

