# Tiled2Unity generated file. Do not modify by hand.
# Wavefront file for 'UnderSink_mesh_0008.obj'

# Vertices (Count = 388)
v -38 -22 -0.55
v -39 -22 -0.55
v -39 -21 -0.55
v -38 -21 -0.55
v -39 -22 -0.55
v -40 -22 -0.55
v -40 -21 -0.55
v -39 -21 -0.55
v -40 -22 -0.55
v -41 -22 -0.55
v -41 -21 -0.55
v -40 -21 -0.55
v -41 -22 -0.55
v -42 -22 -0.55
v -42 -21 -0.55
v -41 -21 -0.55
v -42 -22 -0.55
v -43 -22 -0.55
v -43 -21 -0.55
v -42 -21 -0.55
v -43 -22 -0.55
v -44 -22 -0.55
v -44 -21 -0.55
v -43 -21 -0.55
v -44 -22 -0.55
v -45 -22 -0.55
v -45 -21 -0.55
v -44 -21 -0.55
v -45 -22 -0.55
v -46 -22 -0.55
v -46 -21 -0.55
v -45 -21 -0.55
v -38 -23 -0.575
v -39 -23 -0.575
v -39 -22 -0.575
v -38 -22 -0.575
v -39 -23 -0.575
v -40 -23 -0.575
v -40 -22 -0.575
v -39 -22 -0.575
v -40 -23 -0.575
v -41 -23 -0.575
v -41 -22 -0.575
v -40 -22 -0.575
v -41 -23 -0.575
v -42 -23 -0.575
v -42 -22 -0.575
v -41 -22 -0.575
v -42 -23 -0.575
v -43 -23 -0.575
v -43 -22 -0.575
v -42 -22 -0.575
v -43 -23 -0.575
v -44 -23 -0.575
v -44 -22 -0.575
v -43 -22 -0.575
v -44 -23 -0.575
v -45 -23 -0.575
v -45 -22 -0.575
v -44 -22 -0.575
v -45 -23 -0.575
v -46 -23 -0.575
v -46 -22 -0.575
v -45 -22 -0.575
v -38 -24 -0.6
v -39 -24 -0.6
v -39 -23 -0.6
v -38 -23 -0.6
v -39 -24 -0.6
v -40 -24 -0.6
v -40 -23 -0.6
v -39 -23 -0.6
v -40 -24 -0.6
v -41 -24 -0.6
v -41 -23 -0.6
v -40 -23 -0.6
v -41 -24 -0.6
v -42 -24 -0.6
v -42 -23 -0.6
v -41 -23 -0.6
v -42 -24 -0.6
v -43 -24 -0.6
v -43 -23 -0.6
v -42 -23 -0.6
v -43 -24 -0.6
v -44 -24 -0.6
v -44 -23 -0.6
v -43 -23 -0.6
v -44 -24 -0.6
v -45 -24 -0.6
v -45 -23 -0.6
v -44 -23 -0.6
v -45 -24 -0.6
v -46 -24 -0.6
v -46 -23 -0.6
v -45 -23 -0.6
v -39 -25 -0.625
v -40 -25 -0.625
v -40 -24 -0.625
v -39 -24 -0.625
v -40 -25 -0.625
v -41 -25 -0.625
v -41 -24 -0.625
v -40 -24 -0.625
v -41 -25 -0.625
v -42 -25 -0.625
v -42 -24 -0.625
v -41 -24 -0.625
v -42 -25 -0.625
v -43 -25 -0.625
v -43 -24 -0.625
v -42 -24 -0.625
v -43 -25 -0.625
v -44 -25 -0.625
v -44 -24 -0.625
v -43 -24 -0.625
v -1 -29 -0.725
v -2 -29 -0.725
v -2 -28 -0.725
v -1 -28 -0.725
v -2 -29 -0.725
v -3 -29 -0.725
v -3 -28 -0.725
v -2 -28 -0.725
v -3 -29 -0.725
v -4 -29 -0.725
v -4 -28 -0.725
v -3 -28 -0.725
v -4 -29 -0.725
v -5 -29 -0.725
v -5 -28 -0.725
v -4 -28 -0.725
v -5 -29 -0.725
v -6 -29 -0.725
v -6 -28 -0.725
v -5 -28 -0.725
v -6 -29 -0.725
v -7 -29 -0.725
v -7 -28 -0.725
v -6 -28 -0.725
v -7 -29 -0.725
v -8 -29 -0.725
v -8 -28 -0.725
v -7 -28 -0.725
v -8 -29 -0.725
v -9 -29 -0.725
v -9 -28 -0.725
v -8 -28 -0.725
v -9 -29 -0.725
v -10 -29 -0.725
v -10 -28 -0.725
v -9 -28 -0.725
v -10 -29 -0.725
v -11 -29 -0.725
v -11 -28 -0.725
v -10 -28 -0.725
v -11 -29 -0.725
v -12 -29 -0.725
v -12 -28 -0.725
v -11 -28 -0.725
v -12 -29 -0.725
v -13 -29 -0.725
v -13 -28 -0.725
v -12 -28 -0.725
v -1 -30 -0.75
v -2 -30 -0.75
v -2 -29 -0.75
v -1 -29 -0.75
v -2 -30 -0.75
v -3 -30 -0.75
v -3 -29 -0.75
v -2 -29 -0.75
v -3 -30 -0.75
v -4 -30 -0.75
v -4 -29 -0.75
v -3 -29 -0.75
v -4 -30 -0.75
v -5 -30 -0.75
v -5 -29 -0.75
v -4 -29 -0.75
v -5 -30 -0.75
v -6 -30 -0.75
v -6 -29 -0.75
v -5 -29 -0.75
v -6 -30 -0.75
v -7 -30 -0.75
v -7 -29 -0.75
v -6 -29 -0.75
v -7 -30 -0.75
v -8 -30 -0.75
v -8 -29 -0.75
v -7 -29 -0.75
v -8 -30 -0.75
v -9 -30 -0.75
v -9 -29 -0.75
v -8 -29 -0.75
v -9 -30 -0.75
v -10 -30 -0.75
v -10 -29 -0.75
v -9 -29 -0.75
v -10 -30 -0.75
v -11 -30 -0.75
v -11 -29 -0.75
v -10 -29 -0.75
v -11 -30 -0.75
v -12 -30 -0.75
v -12 -29 -0.75
v -11 -29 -0.75
v -12 -30 -0.75
v -13 -30 -0.75
v -13 -29 -0.75
v -12 -29 -0.75
v -1 -31 -0.775
v -2 -31 -0.775
v -2 -30 -0.775
v -1 -30 -0.775
v -2 -31 -0.775
v -3 -31 -0.775
v -3 -30 -0.775
v -2 -30 -0.775
v -3 -31 -0.775
v -4 -31 -0.775
v -4 -30 -0.775
v -3 -30 -0.775
v -4 -31 -0.775
v -5 -31 -0.775
v -5 -30 -0.775
v -4 -30 -0.775
v -5 -31 -0.775
v -6 -31 -0.775
v -6 -30 -0.775
v -5 -30 -0.775
v -6 -31 -0.775
v -7 -31 -0.775
v -7 -30 -0.775
v -6 -30 -0.775
v -7 -31 -0.775
v -8 -31 -0.775
v -8 -30 -0.775
v -7 -30 -0.775
v -8 -31 -0.775
v -9 -31 -0.775
v -9 -30 -0.775
v -8 -30 -0.775
v -9 -31 -0.775
v -10 -31 -0.775
v -10 -30 -0.775
v -9 -30 -0.775
v -10 -31 -0.775
v -11 -31 -0.775
v -11 -30 -0.775
v -10 -30 -0.775
v -11 -31 -0.775
v -12 -31 -0.775
v -12 -30 -0.775
v -11 -30 -0.775
v -12 -31 -0.775
v -13 -31 -0.775
v -13 -30 -0.775
v -12 -30 -0.775
v -1 -32 -0.8
v -2 -32 -0.8
v -2 -31 -0.8
v -1 -31 -0.8
v -2 -32 -0.8
v -3 -32 -0.8
v -3 -31 -0.8
v -2 -31 -0.8
v -3 -32 -0.8
v -4 -32 -0.8
v -4 -31 -0.8
v -3 -31 -0.8
v -4 -32 -0.8
v -5 -32 -0.8
v -5 -31 -0.8
v -4 -31 -0.8
v -5 -32 -0.8
v -6 -32 -0.8
v -6 -31 -0.8
v -5 -31 -0.8
v -6 -32 -0.8
v -7 -32 -0.8
v -7 -31 -0.8
v -6 -31 -0.8
v -10 -32 -0.8
v -11 -32 -0.8
v -11 -31 -0.8
v -10 -31 -0.8
v -11 -32 -0.8
v -12 -32 -0.8
v -12 -31 -0.8
v -11 -31 -0.8
v -1 -33 -0.825
v -2 -33 -0.825
v -2 -32 -0.825
v -1 -32 -0.825
v -2 -33 -0.825
v -3 -33 -0.825
v -3 -32 -0.825
v -2 -32 -0.825
v -3 -33 -0.825
v -4 -33 -0.825
v -4 -32 -0.825
v -3 -32 -0.825
v -4 -33 -0.825
v -5 -33 -0.825
v -5 -32 -0.825
v -4 -32 -0.825
v -5 -33 -0.825
v -6 -33 -0.825
v -6 -32 -0.825
v -5 -32 -0.825
v -6 -33 -0.825
v -7 -33 -0.825
v -7 -32 -0.825
v -6 -32 -0.825
v -1 -34 -0.85
v -2 -34 -0.85
v -2 -33 -0.85
v -1 -33 -0.85
v -2 -34 -0.85
v -3 -34 -0.85
v -3 -33 -0.85
v -2 -33 -0.85
v -3 -34 -0.85
v -4 -34 -0.85
v -4 -33 -0.85
v -3 -33 -0.85
v -4 -34 -0.85
v -5 -34 -0.85
v -5 -33 -0.85
v -4 -33 -0.85
v -5 -34 -0.85
v -6 -34 -0.85
v -6 -33 -0.85
v -5 -33 -0.85
v -6 -34 -0.85
v -7 -34 -0.85
v -7 -33 -0.85
v -6 -33 -0.85
v -1 -35 -0.875
v -2 -35 -0.875
v -2 -34 -0.875
v -1 -34 -0.875
v -2 -35 -0.875
v -3 -35 -0.875
v -3 -34 -0.875
v -2 -34 -0.875
v -3 -35 -0.875
v -4 -35 -0.875
v -4 -34 -0.875
v -3 -34 -0.875
v -4 -35 -0.875
v -5 -35 -0.875
v -5 -34 -0.875
v -4 -34 -0.875
v -5 -35 -0.875
v -6 -35 -0.875
v -6 -34 -0.875
v -5 -34 -0.875
v -6 -35 -0.875
v -7 -35 -0.875
v -7 -34 -0.875
v -6 -34 -0.875
v -1 -36 -0.9
v -2 -36 -0.9
v -2 -35 -0.9
v -1 -35 -0.9
v -2 -36 -0.9
v -3 -36 -0.9
v -3 -35 -0.9
v -2 -35 -0.9
v -3 -36 -0.9
v -4 -36 -0.9
v -4 -35 -0.9
v -3 -35 -0.9
v -4 -36 -0.9
v -5 -36 -0.9
v -5 -35 -0.9
v -4 -35 -0.9
v -5 -36 -0.9
v -6 -36 -0.9
v -6 -35 -0.9
v -5 -35 -0.9
v -6 -36 -0.9
v -7 -36 -0.9
v -7 -35 -0.9
v -6 -35 -0.9

# Texture cooridinates (Count = 89)
vt 0.3333333 0.875
vt 0.4166667 0.875
vt 0.4166667 1
vt 0.3333333 1
vt 0.5 0.875
vt 0.5 1
vt 0.5833333 0.875
vt 0.5833333 1
vt 0.6666667 0.875
vt 0.6666667 1
vt 0.75 0.875
vt 0.75 1
vt 0.8333333 0.875
vt 0.8333333 1
vt 0.9166667 0.875
vt 0.9166667 1
vt 1 0.875
vt 1 1
vt 0.3333333 0.75
vt 0.4166667 0.75
vt 0.5 0.75
vt 0.5833333 0.75
vt 0.6666667 0.75
vt 0.75 0.75
vt 0.8333333 0.75
vt 0.9166667 0.75
vt 1 0.75
vt 0.3333333 0.625
vt 0.4166667 0.625
vt 0.5 0.625
vt 0.5833333 0.625
vt 0.6666667 0.625
vt 0.75 0.625
vt 0.8333333 0.625
vt 0.9166667 0.625
vt 1 0.625
vt 0.4166667 0.5
vt 0.5 0.5
vt 0.5833333 0.5
vt 0.6666667 0.5
vt 0.75 0.5
vt 0.8333333 0.5
vt 0 0.875
vt 0.08333334 0.875
vt 0.08333334 1
vt 0 1
vt 0.1666667 0.875
vt 0.1666667 1
vt 0.25 0.875
vt 0.25 1
vt 0 0.75
vt 0.08333334 0.75
vt 0.1666667 0.75
vt 0.25 0.75
vt 0 0.625
vt 0.08333334 0.625
vt 0.1666667 0.625
vt 0.25 0.625
vt 0 0.5
vt 0.08333334 0.5
vt 0.1666667 0.5
vt 0.25 0.5
vt 0.3333333 0.5
vt 0.9166667 0.5
vt 0 0.375
vt 0.08333334 0.375
vt 0.1666667 0.375
vt 0.25 0.375
vt 0.3333333 0.375
vt 0.4166667 0.375
vt 0.5 0.375
vt 0 0.25
vt 0.08333334 0.25
vt 0.1666667 0.25
vt 0.25 0.25
vt 0.3333333 0.25
vt 0.4166667 0.25
vt 0.5 0.25
vt 0 0.125
vt 0.08333334 0.125
vt 0.1666667 0.125
vt 0.25 0.125
vt 0.3333333 0.125
vt 0.4166667 0.125
vt 0.5 0.125
vt 0.25 0
vt 0.3333333 0
vt 0.4166667 0
vt 0.5 0

# Normal
vn 0 0 -1

# Mesh description
g UnderSink_mesh_0008

# Faces
f 1/1/1 2/2/1 3/3/1 4/4/1
f 5/2/1 6/5/1 7/6/1 8/3/1
f 9/5/1 10/7/1 11/8/1 12/6/1
f 13/7/1 14/9/1 15/10/1 16/8/1
f 17/9/1 18/11/1 19/12/1 20/10/1
f 21/11/1 22/13/1 23/14/1 24/12/1
f 25/13/1 26/15/1 27/16/1 28/14/1
f 29/15/1 30/17/1 31/18/1 32/16/1
f 33/19/1 34/20/1 35/2/1 36/1/1
f 37/20/1 38/21/1 39/5/1 40/2/1
f 41/21/1 42/22/1 43/7/1 44/5/1
f 45/22/1 46/23/1 47/9/1 48/7/1
f 49/23/1 50/24/1 51/11/1 52/9/1
f 53/24/1 54/25/1 55/13/1 56/11/1
f 57/25/1 58/26/1 59/15/1 60/13/1
f 61/26/1 62/27/1 63/17/1 64/15/1
f 65/28/1 66/29/1 67/20/1 68/19/1
f 69/29/1 70/30/1 71/21/1 72/20/1
f 73/30/1 74/31/1 75/22/1 76/21/1
f 77/31/1 78/32/1 79/23/1 80/22/1
f 81/32/1 82/33/1 83/24/1 84/23/1
f 85/33/1 86/34/1 87/25/1 88/24/1
f 89/34/1 90/35/1 91/26/1 92/25/1
f 93/35/1 94/36/1 95/27/1 96/26/1
f 97/37/1 98/38/1 99/30/1 100/29/1
f 101/38/1 102/39/1 103/31/1 104/30/1
f 105/39/1 106/40/1 107/32/1 108/31/1
f 109/40/1 110/41/1 111/33/1 112/32/1
f 113/41/1 114/42/1 115/34/1 116/33/1
f 117/43/1 118/44/1 119/45/1 120/46/1
f 121/44/1 122/47/1 123/48/1 124/45/1
f 125/47/1 126/49/1 127/50/1 128/48/1
f 129/49/1 130/1/1 131/4/1 132/50/1
f 133/1/1 134/2/1 135/3/1 136/4/1
f 137/2/1 138/5/1 139/6/1 140/3/1
f 141/5/1 142/7/1 143/8/1 144/6/1
f 145/7/1 146/9/1 147/10/1 148/8/1
f 149/9/1 150/11/1 151/12/1 152/10/1
f 153/11/1 154/13/1 155/14/1 156/12/1
f 157/13/1 158/15/1 159/16/1 160/14/1
f 161/15/1 162/17/1 163/18/1 164/16/1
f 165/51/1 166/52/1 167/44/1 168/43/1
f 169/52/1 170/53/1 171/47/1 172/44/1
f 173/53/1 174/54/1 175/49/1 176/47/1
f 177/54/1 178/19/1 179/1/1 180/49/1
f 181/19/1 182/20/1 183/2/1 184/1/1
f 185/20/1 186/21/1 187/5/1 188/2/1
f 189/21/1 190/22/1 191/7/1 192/5/1
f 193/22/1 194/23/1 195/9/1 196/7/1
f 197/23/1 198/24/1 199/11/1 200/9/1
f 201/24/1 202/25/1 203/13/1 204/11/1
f 205/25/1 206/26/1 207/15/1 208/13/1
f 209/26/1 210/27/1 211/17/1 212/15/1
f 213/55/1 214/56/1 215/52/1 216/51/1
f 217/56/1 218/57/1 219/53/1 220/52/1
f 221/57/1 222/58/1 223/54/1 224/53/1
f 225/58/1 226/28/1 227/19/1 228/54/1
f 229/28/1 230/29/1 231/20/1 232/19/1
f 233/29/1 234/30/1 235/21/1 236/20/1
f 237/30/1 238/31/1 239/22/1 240/21/1
f 241/21/1 242/22/1 243/7/1 244/5/1
f 245/32/1 246/33/1 247/24/1 248/23/1
f 249/33/1 250/34/1 251/25/1 252/24/1
f 253/34/1 254/35/1 255/26/1 256/25/1
f 257/35/1 258/36/1 259/27/1 260/26/1
f 261/59/1 262/60/1 263/56/1 264/55/1
f 265/60/1 266/61/1 267/57/1 268/56/1
f 269/61/1 270/62/1 271/58/1 272/57/1
f 273/62/1 274/63/1 275/28/1 276/58/1
f 277/63/1 278/37/1 279/29/1 280/28/1
f 281/37/1 282/38/1 283/30/1 284/29/1
f 285/41/1 286/42/1 287/34/1 288/33/1
f 289/42/1 290/64/1 291/35/1 292/34/1
f 293/65/1 294/66/1 295/60/1 296/59/1
f 297/66/1 298/67/1 299/61/1 300/60/1
f 301/67/1 302/68/1 303/62/1 304/61/1
f 305/68/1 306/69/1 307/63/1 308/62/1
f 309/69/1 310/70/1 311/37/1 312/63/1
f 313/70/1 314/71/1 315/38/1 316/37/1
f 317/72/1 318/73/1 319/66/1 320/65/1
f 321/73/1 322/74/1 323/67/1 324/66/1
f 325/74/1 326/75/1 327/68/1 328/67/1
f 329/75/1 330/76/1 331/69/1 332/68/1
f 333/76/1 334/77/1 335/70/1 336/69/1
f 337/77/1 338/78/1 339/71/1 340/70/1
f 341/79/1 342/80/1 343/73/1 344/72/1
f 345/80/1 346/81/1 347/74/1 348/73/1
f 349/81/1 350/82/1 351/75/1 352/74/1
f 353/82/1 354/83/1 355/76/1 356/75/1
f 357/83/1 358/84/1 359/77/1 360/76/1
f 361/84/1 362/85/1 363/78/1 364/77/1
f 365/79/1 366/80/1 367/73/1 368/72/1
f 369/80/1 370/81/1 371/74/1 372/73/1
f 373/80/1 374/81/1 375/74/1 376/73/1
f 377/86/1 378/87/1 379/83/1 380/82/1
f 381/87/1 382/88/1 383/84/1 384/83/1
f 385/88/1 386/89/1 387/85/1 388/84/1

