# Tiled2Unity generated file. Do not modify by hand.
# Wavefront file for 'UnderSink_mesh_0003.obj'

# Vertices (Count = 360)
v -66 -1 -0.025
v -67 -1 -0.025
v -67 0 -0.025
v -66 0 -0.025
v -67 -1 -0.025
v -68 -1 -0.025
v -68 0 -0.025
v -67 0 -0.025
v -68 -1 -0.025
v -69 -1 -0.025
v -69 0 -0.025
v -68 0 -0.025
v -69 -1 -0.025
v -70 -1 -0.025
v -70 0 -0.025
v -69 0 -0.025
v -66 -2 -0.05
v -67 -2 -0.05
v -67 -1 -0.05
v -66 -1 -0.05
v -67 -2 -0.05
v -68 -2 -0.05
v -68 -1 -0.05
v -67 -1 -0.05
v -68 -2 -0.05
v -69 -2 -0.05
v -69 -1 -0.05
v -68 -1 -0.05
v -69 -2 -0.05
v -70 -2 -0.05
v -70 -1 -0.05
v -69 -1 -0.05
v -66 -3 -0.075
v -67 -3 -0.075
v -67 -2 -0.075
v -66 -2 -0.075
v -67 -3 -0.075
v -68 -3 -0.075
v -68 -2 -0.075
v -67 -2 -0.075
v -68 -3 -0.075
v -69 -3 -0.075
v -69 -2 -0.075
v -68 -2 -0.075
v -69 -3 -0.075
v -70 -3 -0.075
v -70 -2 -0.075
v -69 -2 -0.075
v -66 -4 -0.1
v -67 -4 -0.1
v -67 -3 -0.1
v -66 -3 -0.1
v -67 -4 -0.1
v -68 -4 -0.1
v -68 -3 -0.1
v -67 -3 -0.1
v -68 -4 -0.1
v -69 -4 -0.1
v -69 -3 -0.1
v -68 -3 -0.1
v -69 -4 -0.1
v -70 -4 -0.1
v -70 -3 -0.1
v -69 -3 -0.1
v -67 -5 -0.125
v -68 -5 -0.125
v -68 -4 -0.125
v -67 -4 -0.125
v -68 -5 -0.125
v -69 -5 -0.125
v -69 -4 -0.125
v -68 -4 -0.125
v -69 -5 -0.125
v -70 -5 -0.125
v -70 -4 -0.125
v -69 -4 -0.125
v -67 -6 -0.15
v -68 -6 -0.15
v -68 -5 -0.15
v -67 -5 -0.15
v -68 -6 -0.15
v -69 -6 -0.15
v -69 -5 -0.15
v -68 -5 -0.15
v -69 -6 -0.15
v -70 -6 -0.15
v -70 -5 -0.15
v -69 -5 -0.15
v -67 -7 -0.175
v -68 -7 -0.175
v -68 -6 -0.175
v -67 -6 -0.175
v -68 -7 -0.175
v -69 -7 -0.175
v -69 -6 -0.175
v -68 -6 -0.175
v -69 -7 -0.175
v -70 -7 -0.175
v -70 -6 -0.175
v -69 -6 -0.175
v -67 -8 -0.2
v -68 -8 -0.2
v -68 -7 -0.2
v -67 -7 -0.2
v -68 -8 -0.2
v -69 -8 -0.2
v -69 -7 -0.2
v -68 -7 -0.2
v -69 -8 -0.2
v -70 -8 -0.2
v -70 -7 -0.2
v -69 -7 -0.2
v -66 -9 -0.225
v -67 -9 -0.225
v -67 -8 -0.225
v -66 -8 -0.225
v -67 -9 -0.225
v -68 -9 -0.225
v -68 -8 -0.225
v -67 -8 -0.225
v -68 -9 -0.225
v -69 -9 -0.225
v -69 -8 -0.225
v -68 -8 -0.225
v -69 -9 -0.225
v -70 -9 -0.225
v -70 -8 -0.225
v -69 -8 -0.225
v -66 -10 -0.25
v -67 -10 -0.25
v -67 -9 -0.25
v -66 -9 -0.25
v -67 -10 -0.25
v -68 -10 -0.25
v -68 -9 -0.25
v -67 -9 -0.25
v -68 -10 -0.25
v -69 -10 -0.25
v -69 -9 -0.25
v -68 -9 -0.25
v -69 -10 -0.25
v -70 -10 -0.25
v -70 -9 -0.25
v -69 -9 -0.25
v -66 -11 -0.275
v -67 -11 -0.275
v -67 -10 -0.275
v -66 -10 -0.275
v -67 -11 -0.275
v -68 -11 -0.275
v -68 -10 -0.275
v -67 -10 -0.275
v -68 -11 -0.275
v -69 -11 -0.275
v -69 -10 -0.275
v -68 -10 -0.275
v -69 -11 -0.275
v -70 -11 -0.275
v -70 -10 -0.275
v -69 -10 -0.275
v -66 -12 -0.3
v -67 -12 -0.3
v -67 -11 -0.3
v -66 -11 -0.3
v -67 -12 -0.3
v -68 -12 -0.3
v -68 -11 -0.3
v -67 -11 -0.3
v -68 -12 -0.3
v -69 -12 -0.3
v -69 -11 -0.3
v -68 -11 -0.3
v -69 -12 -0.3
v -70 -12 -0.3
v -70 -11 -0.3
v -69 -11 -0.3
v -66 -13 -0.325
v -67 -13 -0.325
v -67 -12 -0.325
v -66 -12 -0.325
v -67 -13 -0.325
v -68 -13 -0.325
v -68 -12 -0.325
v -67 -12 -0.325
v -68 -13 -0.325
v -69 -13 -0.325
v -69 -12 -0.325
v -68 -12 -0.325
v -69 -13 -0.325
v -70 -13 -0.325
v -70 -12 -0.325
v -69 -12 -0.325
v -66 -14 -0.35
v -67 -14 -0.35
v -67 -13 -0.35
v -66 -13 -0.35
v -67 -14 -0.35
v -68 -14 -0.35
v -68 -13 -0.35
v -67 -13 -0.35
v -68 -14 -0.35
v -69 -14 -0.35
v -69 -13 -0.35
v -68 -13 -0.35
v -69 -14 -0.35
v -70 -14 -0.35
v -70 -13 -0.35
v -69 -13 -0.35
v -66 -15 -0.375
v -67 -15 -0.375
v -67 -14 -0.375
v -66 -14 -0.375
v -67 -15 -0.375
v -68 -15 -0.375
v -68 -14 -0.375
v -67 -14 -0.375
v -68 -15 -0.375
v -69 -15 -0.375
v -69 -14 -0.375
v -68 -14 -0.375
v -69 -15 -0.375
v -70 -15 -0.375
v -70 -14 -0.375
v -69 -14 -0.375
v -66 -16 -0.4
v -67 -16 -0.4
v -67 -15 -0.4
v -66 -15 -0.4
v -67 -16 -0.4
v -68 -16 -0.4
v -68 -15 -0.4
v -67 -15 -0.4
v -66 -17 -0.425
v -67 -17 -0.425
v -67 -16 -0.425
v -66 -16 -0.425
v -67 -17 -0.425
v -68 -17 -0.425
v -68 -16 -0.425
v -67 -16 -0.425
v -24 -18 -0.45
v -25 -18 -0.45
v -25 -17 -0.45
v -24 -17 -0.45
v -66 -18 -0.45
v -67 -18 -0.45
v -67 -17 -0.45
v -66 -17 -0.45
v -67 -18 -0.45
v -68 -18 -0.45
v -68 -17 -0.45
v -67 -17 -0.45
v -68 -18 -0.45
v -69 -18 -0.45
v -69 -17 -0.45
v -68 -17 -0.45
v -69 -18 -0.45
v -70 -18 -0.45
v -70 -17 -0.45
v -69 -17 -0.45
v -66 -19 -0.475
v -67 -19 -0.475
v -67 -18 -0.475
v -66 -18 -0.475
v -67 -19 -0.475
v -68 -19 -0.475
v -68 -18 -0.475
v -67 -18 -0.475
v -68 -19 -0.475
v -69 -19 -0.475
v -69 -18 -0.475
v -68 -18 -0.475
v -69 -19 -0.475
v -70 -19 -0.475
v -70 -18 -0.475
v -69 -18 -0.475
v -66 -20 -0.5
v -67 -20 -0.5
v -67 -19 -0.5
v -66 -19 -0.5
v -67 -20 -0.5
v -68 -20 -0.5
v -68 -19 -0.5
v -67 -19 -0.5
v -68 -20 -0.5
v -69 -20 -0.5
v -69 -19 -0.5
v -68 -19 -0.5
v -69 -20 -0.5
v -70 -20 -0.5
v -70 -19 -0.5
v -69 -19 -0.5
v -66 -21 -0.525
v -67 -21 -0.525
v -67 -20 -0.525
v -66 -20 -0.525
v -67 -21 -0.525
v -68 -21 -0.525
v -68 -20 -0.525
v -67 -20 -0.525
v -68 -21 -0.525
v -69 -21 -0.525
v -69 -20 -0.525
v -68 -20 -0.525
v -69 -21 -0.525
v -70 -21 -0.525
v -70 -20 -0.525
v -69 -20 -0.525
v -66 -22 -0.55
v -67 -22 -0.55
v -67 -21 -0.55
v -66 -21 -0.55
v -67 -22 -0.55
v -68 -22 -0.55
v -68 -21 -0.55
v -67 -21 -0.55
v -68 -22 -0.55
v -69 -22 -0.55
v -69 -21 -0.55
v -68 -21 -0.55
v -69 -22 -0.55
v -70 -22 -0.55
v -70 -21 -0.55
v -69 -21 -0.55
v -67 -23 -0.575
v -68 -23 -0.575
v -68 -22 -0.575
v -67 -22 -0.575
v -68 -23 -0.575
v -69 -23 -0.575
v -69 -22 -0.575
v -68 -22 -0.575
v -69 -23 -0.575
v -70 -23 -0.575
v -70 -22 -0.575
v -69 -22 -0.575
v -67 -24 -0.6
v -68 -24 -0.6
v -68 -23 -0.6
v -67 -23 -0.6
v -68 -24 -0.6
v -69 -24 -0.6
v -69 -23 -0.6
v -68 -23 -0.6
v -69 -24 -0.6
v -70 -24 -0.6
v -70 -23 -0.6
v -69 -23 -0.6
v -67 -25 -0.625
v -68 -25 -0.625
v -68 -24 -0.625
v -67 -24 -0.625
v -68 -25 -0.625
v -69 -25 -0.625
v -69 -24 -0.625
v -68 -24 -0.625
v -69 -25 -0.625
v -70 -25 -0.625
v -70 -24 -0.625
v -69 -24 -0.625

# Texture cooridinates (Count = 13)
vt 0.6666667 0.125
vt 0.75 0.125
vt 0.75 0.25
vt 0.6666667 0.25
vt 0.8333333 0.125
vt 0.8333333 0.25
vt 0.9166667 0.125
vt 0.9166667 0.25
vt 1 0.125
vt 1 0.25
vt 0.5833333 0
vt 0.6666667 0
vt 0.5833333 0.125

# Normal
vn 0 0 -1

# Mesh description
g UnderSink_mesh_0003

# Faces
f 1/1/1 2/2/1 3/3/1 4/4/1
f 5/2/1 6/5/1 7/6/1 8/3/1
f 9/5/1 10/7/1 11/8/1 12/6/1
f 13/7/1 14/9/1 15/10/1 16/8/1
f 17/1/1 18/2/1 19/3/1 20/4/1
f 21/2/1 22/5/1 23/6/1 24/3/1
f 25/5/1 26/7/1 27/8/1 28/6/1
f 29/7/1 30/9/1 31/10/1 32/8/1
f 33/1/1 34/2/1 35/3/1 36/4/1
f 37/2/1 38/5/1 39/6/1 40/3/1
f 41/5/1 42/7/1 43/8/1 44/6/1
f 45/7/1 46/9/1 47/10/1 48/8/1
f 49/1/1 50/2/1 51/3/1 52/4/1
f 53/2/1 54/5/1 55/6/1 56/3/1
f 57/5/1 58/7/1 59/8/1 60/6/1
f 61/7/1 62/9/1 63/10/1 64/8/1
f 65/2/1 66/5/1 67/6/1 68/3/1
f 69/5/1 70/7/1 71/8/1 72/6/1
f 73/7/1 74/9/1 75/10/1 76/8/1
f 77/2/1 78/5/1 79/6/1 80/3/1
f 81/5/1 82/7/1 83/8/1 84/6/1
f 85/7/1 86/9/1 87/10/1 88/8/1
f 89/2/1 90/5/1 91/6/1 92/3/1
f 93/5/1 94/7/1 95/8/1 96/6/1
f 97/7/1 98/9/1 99/10/1 100/8/1
f 101/2/1 102/5/1 103/6/1 104/3/1
f 105/5/1 106/7/1 107/8/1 108/6/1
f 109/7/1 110/9/1 111/10/1 112/8/1
f 113/1/1 114/2/1 115/3/1 116/4/1
f 117/2/1 118/5/1 119/6/1 120/3/1
f 121/5/1 122/7/1 123/8/1 124/6/1
f 125/7/1 126/9/1 127/10/1 128/8/1
f 129/1/1 130/2/1 131/3/1 132/4/1
f 133/2/1 134/5/1 135/6/1 136/3/1
f 137/5/1 138/7/1 139/8/1 140/6/1
f 141/7/1 142/9/1 143/10/1 144/8/1
f 145/1/1 146/2/1 147/3/1 148/4/1
f 149/2/1 150/5/1 151/6/1 152/3/1
f 153/5/1 154/7/1 155/8/1 156/6/1
f 157/7/1 158/9/1 159/10/1 160/8/1
f 161/1/1 162/2/1 163/3/1 164/4/1
f 165/2/1 166/5/1 167/6/1 168/3/1
f 169/5/1 170/7/1 171/8/1 172/6/1
f 173/7/1 174/9/1 175/10/1 176/8/1
f 177/1/1 178/2/1 179/3/1 180/4/1
f 181/2/1 182/5/1 183/6/1 184/3/1
f 185/5/1 186/7/1 187/8/1 188/6/1
f 189/7/1 190/9/1 191/10/1 192/8/1
f 193/1/1 194/2/1 195/3/1 196/4/1
f 197/2/1 198/5/1 199/6/1 200/3/1
f 201/5/1 202/7/1 203/8/1 204/6/1
f 205/7/1 206/9/1 207/10/1 208/8/1
f 209/1/1 210/2/1 211/3/1 212/4/1
f 213/2/1 214/5/1 215/6/1 216/3/1
f 217/5/1 218/7/1 219/8/1 220/6/1
f 221/7/1 222/9/1 223/10/1 224/8/1
f 225/1/1 226/2/1 227/3/1 228/4/1
f 229/2/1 230/5/1 231/6/1 232/3/1
f 233/1/1 234/2/1 235/3/1 236/4/1
f 237/2/1 238/5/1 239/6/1 240/3/1
f 241/11/1 242/12/1 243/1/1 244/13/1
f 245/1/1 246/2/1 247/3/1 248/4/1
f 249/2/1 250/5/1 251/6/1 252/3/1
f 253/5/1 254/7/1 255/8/1 256/6/1
f 257/7/1 258/9/1 259/10/1 260/8/1
f 261/1/1 262/2/1 263/3/1 264/4/1
f 265/2/1 266/5/1 267/6/1 268/3/1
f 269/5/1 270/7/1 271/8/1 272/6/1
f 273/7/1 274/9/1 275/10/1 276/8/1
f 277/1/1 278/2/1 279/3/1 280/4/1
f 281/2/1 282/5/1 283/6/1 284/3/1
f 285/5/1 286/7/1 287/8/1 288/6/1
f 289/7/1 290/9/1 291/10/1 292/8/1
f 293/1/1 294/2/1 295/3/1 296/4/1
f 297/2/1 298/5/1 299/6/1 300/3/1
f 301/5/1 302/7/1 303/8/1 304/6/1
f 305/7/1 306/9/1 307/10/1 308/8/1
f 309/1/1 310/2/1 311/3/1 312/4/1
f 313/2/1 314/5/1 315/6/1 316/3/1
f 317/5/1 318/7/1 319/8/1 320/6/1
f 321/7/1 322/9/1 323/10/1 324/8/1
f 325/2/1 326/5/1 327/6/1 328/3/1
f 329/5/1 330/7/1 331/8/1 332/6/1
f 333/7/1 334/9/1 335/10/1 336/8/1
f 337/2/1 338/5/1 339/6/1 340/3/1
f 341/5/1 342/7/1 343/8/1 344/6/1
f 345/7/1 346/9/1 347/10/1 348/8/1
f 349/2/1 350/5/1 351/6/1 352/3/1
f 353/5/1 354/7/1 355/8/1 356/6/1
f 357/7/1 358/9/1 359/10/1 360/8/1

