# Tiled2Unity generated file. Do not modify by hand.
# Wavefront file for 'UnderSink_mesh_0009.obj'

# Vertices (Count = 64)
v -43 -27 -0.675
v -44 -27 -0.675
v -44 -26 -0.675
v -43 -26 -0.675
v -44 -27 -0.675
v -45 -27 -0.675
v -45 -26 -0.675
v -44 -26 -0.675
v -45 -27 -0.675
v -46 -27 -0.675
v -46 -26 -0.675
v -45 -26 -0.675
v -46 -27 -0.675
v -47 -27 -0.675
v -47 -26 -0.675
v -46 -26 -0.675
v -43 -28 -0.7
v -44 -28 -0.7
v -44 -27 -0.7
v -43 -27 -0.7
v -44 -28 -0.7
v -45 -28 -0.7
v -45 -27 -0.7
v -44 -27 -0.7
v -45 -28 -0.7
v -46 -28 -0.7
v -46 -27 -0.7
v -45 -27 -0.7
v -46 -28 -0.7
v -47 -28 -0.7
v -47 -27 -0.7
v -46 -27 -0.7
v -42 -29 -0.725
v -43 -29 -0.725
v -43 -28 -0.725
v -42 -28 -0.725
v -43 -29 -0.725
v -44 -29 -0.725
v -44 -28 -0.725
v -43 -28 -0.725
v -44 -29 -0.725
v -45 -29 -0.725
v -45 -28 -0.725
v -44 -28 -0.725
v -40 -30 -0.75
v -41 -30 -0.75
v -41 -29 -0.75
v -40 -29 -0.75
v -41 -30 -0.75
v -42 -30 -0.75
v -42 -29 -0.75
v -41 -29 -0.75
v -42 -30 -0.75
v -43 -30 -0.75
v -43 -29 -0.75
v -42 -29 -0.75
v -43 -30 -0.75
v -44 -30 -0.75
v -44 -29 -0.75
v -43 -29 -0.75
v -44 -30 -0.75
v -45 -30 -0.75
v -45 -29 -0.75
v -44 -29 -0.75

# Texture cooridinates (Count = 28)
vt 0.3333333 0.875
vt 0.4166667 0.875
vt 0.4166667 1
vt 0.3333333 1
vt 0.5 0.875
vt 0.5 1
vt 0.5833333 0.875
vt 0.5833333 1
vt 0.6666667 0.875
vt 0.6666667 1
vt 0.3333333 0.75
vt 0.4166667 0.75
vt 0.5 0.75
vt 0.5833333 0.75
vt 0.6666667 0.75
vt 0.25 0.625
vt 0.3333333 0.625
vt 0.25 0.75
vt 0.4166667 0.625
vt 0.5 0.625
vt 0.08333334 0.5
vt 0.1666667 0.5
vt 0.1666667 0.625
vt 0.08333334 0.625
vt 0.25 0.5
vt 0.3333333 0.5
vt 0.4166667 0.5
vt 0.5 0.5

# Normal
vn 0 0 -1

# Mesh description
g UnderSink_mesh_0009

# Faces
f 1/1/1 2/2/1 3/3/1 4/4/1
f 5/2/1 6/5/1 7/6/1 8/3/1
f 9/5/1 10/7/1 11/8/1 12/6/1
f 13/7/1 14/9/1 15/10/1 16/8/1
f 17/11/1 18/12/1 19/2/1 20/1/1
f 21/12/1 22/13/1 23/5/1 24/2/1
f 25/13/1 26/14/1 27/7/1 28/5/1
f 29/14/1 30/15/1 31/9/1 32/7/1
f 33/16/1 34/17/1 35/11/1 36/18/1
f 37/17/1 38/19/1 39/12/1 40/11/1
f 41/19/1 42/20/1 43/13/1 44/12/1
f 45/21/1 46/22/1 47/23/1 48/24/1
f 49/22/1 50/25/1 51/16/1 52/23/1
f 53/25/1 54/26/1 55/17/1 56/16/1
f 57/26/1 58/27/1 59/19/1 60/17/1
f 61/27/1 62/28/1 63/20/1 64/19/1

