# Tiled2Unity generated file. Do not modify by hand.
# Wavefront file for 'UnderSink_mesh_0006.obj'

# Vertices (Count = 48)
v -58 -8 -0.2
v -59 -8 -0.2
v -59 -7 -0.2
v -58 -7 -0.2
v -57 -12 -0.3
v -58 -12 -0.3
v -58 -11 -0.3
v -57 -11 -0.3
v -58 -12 -0.3
v -59 -12 -0.3
v -59 -11 -0.3
v -58 -11 -0.3
v -30 -22 -0.55
v -31 -22 -0.55
v -31 -21 -0.55
v -30 -21 -0.55
v -31 -22 -0.55
v -32 -22 -0.55
v -32 -21 -0.55
v -31 -21 -0.55
v -32 -22 -0.55
v -33 -22 -0.55
v -33 -21 -0.55
v -32 -21 -0.55
v -33 -22 -0.55
v -34 -22 -0.55
v -34 -21 -0.55
v -33 -21 -0.55
v -54 -22 -0.55
v -55 -22 -0.55
v -55 -21 -0.55
v -54 -21 -0.55
v -55 -22 -0.55
v -56 -22 -0.55
v -56 -21 -0.55
v -55 -21 -0.55
v -56 -22 -0.55
v -57 -22 -0.55
v -57 -21 -0.55
v -56 -21 -0.55
v -57 -22 -0.55
v -58 -22 -0.55
v -58 -21 -0.55
v -57 -21 -0.55
v -58 -22 -0.55
v -59 -22 -0.55
v -59 -21 -0.55
v -58 -21 -0.55

# Texture cooridinates (Count = 12)
vt 0.6666667 0
vt 0.75 0
vt 0.75 0.125
vt 0.6666667 0.125
vt 0.5833333 0
vt 0.5833333 0.125
vt 0.4166667 0
vt 0.5 0
vt 0.5 0.125
vt 0.4166667 0.125
vt 0.3333333 0
vt 0.3333333 0.125

# Normal
vn 0 0 -1

# Mesh description
g UnderSink_mesh_0006

# Faces
f 1/1/1 2/2/1 3/3/1 4/4/1
f 5/5/1 6/1/1 7/4/1 8/6/1
f 9/1/1 10/2/1 11/3/1 12/4/1
f 13/7/1 14/8/1 15/9/1 16/10/1
f 17/8/1 18/5/1 19/6/1 20/9/1
f 21/5/1 22/1/1 23/4/1 24/6/1
f 25/1/1 26/2/1 27/3/1 28/4/1
f 29/11/1 30/7/1 31/10/1 32/12/1
f 33/7/1 34/8/1 35/9/1 36/10/1
f 37/8/1 38/5/1 39/6/1 40/9/1
f 41/5/1 42/1/1 43/4/1 44/6/1
f 45/1/1 46/2/1 47/3/1 48/4/1

