# Tiled2Unity generated file. Do not modify by hand.
# Wavefront file for 'AnotherTest_mesh_0002.obj'

# Vertices (Count = 336)
v 0 -14 0
v -1 -14 0
v -1 -13 0
v 0 -13 0
v -1 -14 0
v -2 -14 0
v -2 -13 0
v -1 -13 0
v -2 -14 0
v -3 -14 0
v -3 -13 0
v -2 -13 0
v -3 -14 0
v -4 -14 0
v -4 -13 0
v -3 -13 0
v -4 -14 0
v -5 -14 0
v -5 -13 0
v -4 -13 0
v -5 -14 0
v -6 -14 0
v -6 -13 0
v -5 -13 0
v -6 -14 0
v -7 -14 0
v -7 -13 0
v -6 -13 0
v -17 -14 0
v -18 -14 0
v -18 -13 0
v -17 -13 0
v -18 -14 0
v -19 -14 0
v -19 -13 0
v -18 -13 0
v -19 -14 0
v -20 -14 0
v -20 -13 0
v -19 -13 0
v -20 -14 0
v -21 -14 0
v -21 -13 0
v -20 -13 0
v -21 -14 0
v -22 -14 0
v -22 -13 0
v -21 -13 0
v -22 -14 0
v -23 -14 0
v -23 -13 0
v -22 -13 0
v -23 -14 0
v -24 -14 0
v -24 -13 0
v -23 -13 0
v 0 -15 0
v -1 -15 0
v -1 -14 0
v 0 -14 0
v -1 -15 0
v -2 -15 0
v -2 -14 0
v -1 -14 0
v -2 -15 0
v -3 -15 0
v -3 -14 0
v -2 -14 0
v -3 -15 0
v -4 -15 0
v -4 -14 0
v -3 -14 0
v -4 -15 0
v -5 -15 0
v -5 -14 0
v -4 -14 0
v -5 -15 0
v -6 -15 0
v -6 -14 0
v -5 -14 0
v -6 -15 0
v -7 -15 0
v -7 -14 0
v -6 -14 0
v -17 -15 0
v -18 -15 0
v -18 -14 0
v -17 -14 0
v -18 -15 0
v -19 -15 0
v -19 -14 0
v -18 -14 0
v -19 -15 0
v -20 -15 0
v -20 -14 0
v -19 -14 0
v -20 -15 0
v -21 -15 0
v -21 -14 0
v -20 -14 0
v -21 -15 0
v -22 -15 0
v -22 -14 0
v -21 -14 0
v -22 -15 0
v -23 -15 0
v -23 -14 0
v -22 -14 0
v -23 -15 0
v -24 -15 0
v -24 -14 0
v -23 -14 0
v 0 -16 0
v -1 -16 0
v -1 -15 0
v 0 -15 0
v -1 -16 0
v -2 -16 0
v -2 -15 0
v -1 -15 0
v -2 -16 0
v -3 -16 0
v -3 -15 0
v -2 -15 0
v -3 -16 0
v -4 -16 0
v -4 -15 0
v -3 -15 0
v -4 -16 0
v -5 -16 0
v -5 -15 0
v -4 -15 0
v -5 -16 0
v -6 -16 0
v -6 -15 0
v -5 -15 0
v -6 -16 0
v -7 -16 0
v -7 -15 0
v -6 -15 0
v -17 -16 0
v -18 -16 0
v -18 -15 0
v -17 -15 0
v -18 -16 0
v -19 -16 0
v -19 -15 0
v -18 -15 0
v -19 -16 0
v -20 -16 0
v -20 -15 0
v -19 -15 0
v -20 -16 0
v -21 -16 0
v -21 -15 0
v -20 -15 0
v -21 -16 0
v -22 -16 0
v -22 -15 0
v -21 -15 0
v -22 -16 0
v -23 -16 0
v -23 -15 0
v -22 -15 0
v -23 -16 0
v -24 -16 0
v -24 -15 0
v -23 -15 0
v 0 -17 0
v -1 -17 0
v -1 -16 0
v 0 -16 0
v -1 -17 0
v -2 -17 0
v -2 -16 0
v -1 -16 0
v -2 -17 0
v -3 -17 0
v -3 -16 0
v -2 -16 0
v -3 -17 0
v -4 -17 0
v -4 -16 0
v -3 -16 0
v -4 -17 0
v -5 -17 0
v -5 -16 0
v -4 -16 0
v -5 -17 0
v -6 -17 0
v -6 -16 0
v -5 -16 0
v -6 -17 0
v -7 -17 0
v -7 -16 0
v -6 -16 0
v -17 -17 0
v -18 -17 0
v -18 -16 0
v -17 -16 0
v -18 -17 0
v -19 -17 0
v -19 -16 0
v -18 -16 0
v -19 -17 0
v -20 -17 0
v -20 -16 0
v -19 -16 0
v -20 -17 0
v -21 -17 0
v -21 -16 0
v -20 -16 0
v -21 -17 0
v -22 -17 0
v -22 -16 0
v -21 -16 0
v -22 -17 0
v -23 -17 0
v -23 -16 0
v -22 -16 0
v -23 -17 0
v -24 -17 0
v -24 -16 0
v -23 -16 0
v 0 -18 0
v -1 -18 0
v -1 -17 0
v 0 -17 0
v -1 -18 0
v -2 -18 0
v -2 -17 0
v -1 -17 0
v -2 -18 0
v -3 -18 0
v -3 -17 0
v -2 -17 0
v -3 -18 0
v -4 -18 0
v -4 -17 0
v -3 -17 0
v -4 -18 0
v -5 -18 0
v -5 -17 0
v -4 -17 0
v -5 -18 0
v -6 -18 0
v -6 -17 0
v -5 -17 0
v -6 -18 0
v -7 -18 0
v -7 -17 0
v -6 -17 0
v -17 -18 0
v -18 -18 0
v -18 -17 0
v -17 -17 0
v -18 -18 0
v -19 -18 0
v -19 -17 0
v -18 -17 0
v -19 -18 0
v -20 -18 0
v -20 -17 0
v -19 -17 0
v -20 -18 0
v -21 -18 0
v -21 -17 0
v -20 -17 0
v -21 -18 0
v -22 -18 0
v -22 -17 0
v -21 -17 0
v -22 -18 0
v -23 -18 0
v -23 -17 0
v -22 -17 0
v -23 -18 0
v -24 -18 0
v -24 -17 0
v -23 -17 0
v 0 -19 0
v -1 -19 0
v -1 -18 0
v 0 -18 0
v -1 -19 0
v -2 -19 0
v -2 -18 0
v -1 -18 0
v -2 -19 0
v -3 -19 0
v -3 -18 0
v -2 -18 0
v -3 -19 0
v -4 -19 0
v -4 -18 0
v -3 -18 0
v -4 -19 0
v -5 -19 0
v -5 -18 0
v -4 -18 0
v -5 -19 0
v -6 -19 0
v -6 -18 0
v -5 -18 0
v -6 -19 0
v -7 -19 0
v -7 -18 0
v -6 -18 0
v -17 -19 0
v -18 -19 0
v -18 -18 0
v -17 -18 0
v -18 -19 0
v -19 -19 0
v -19 -18 0
v -18 -18 0
v -19 -19 0
v -20 -19 0
v -20 -18 0
v -19 -18 0
v -20 -19 0
v -21 -19 0
v -21 -18 0
v -20 -18 0
v -21 -19 0
v -22 -19 0
v -22 -18 0
v -21 -18 0
v -22 -19 0
v -23 -19 0
v -23 -18 0
v -22 -18 0
v -23 -19 0
v -24 -19 0
v -24 -18 0
v -23 -18 0

# Texture cooridinates (Count = 56)
vt 0 0.84
vt 0.1428571 0.84
vt 0.1428571 1
vt 0 1
vt 0.2857143 0.84
vt 0.2857143 1
vt 0.4285714 0.84
vt 0.4285714 1
vt 0.5714286 0.84
vt 0.5714286 1
vt 0.7142857 0.84
vt 0.7142857 1
vt 0.8571429 0.84
vt 0.8571429 1
vt 1 0.84
vt 1 1
vt 0 0.68
vt 0.1428571 0.68
vt 0.2857143 0.68
vt 0.4285714 0.68
vt 0.5714286 0.68
vt 0.7142857 0.68
vt 0.8571429 0.68
vt 1 0.68
vt 0 0.52
vt 0.1428571 0.52
vt 0.2857143 0.52
vt 0.4285714 0.52
vt 0.5714286 0.52
vt 0.7142857 0.52
vt 0.8571429 0.52
vt 1 0.52
vt 0 0.36
vt 0.1428571 0.36
vt 0.2857143 0.36
vt 0.4285714 0.36
vt 0.5714286 0.36
vt 0.7142857 0.36
vt 0.8571429 0.36
vt 1 0.36
vt 0 0.2
vt 0.1428571 0.2
vt 0.2857143 0.2
vt 0.4285714 0.2
vt 0.5714286 0.2
vt 0.7142857 0.2
vt 0.8571429 0.2
vt 1 0.2
vt 0 0.04000002
vt 0.1428571 0.04000002
vt 0.2857143 0.04000002
vt 0.4285714 0.04000002
vt 0.5714286 0.04000002
vt 0.7142857 0.04000002
vt 0.8571429 0.04000002
vt 1 0.04000002

# Normal
vn 0 0 -1

# Mesh description
g AnotherTest_mesh_0002

# Faces
f 1/1/1 2/2/1 3/3/1 4/4/1
f 5/2/1 6/5/1 7/6/1 8/3/1
f 9/5/1 10/7/1 11/8/1 12/6/1
f 13/7/1 14/9/1 15/10/1 16/8/1
f 17/9/1 18/11/1 19/12/1 20/10/1
f 21/11/1 22/13/1 23/14/1 24/12/1
f 25/13/1 26/15/1 27/16/1 28/14/1
f 29/1/1 30/2/1 31/3/1 32/4/1
f 33/2/1 34/5/1 35/6/1 36/3/1
f 37/5/1 38/7/1 39/8/1 40/6/1
f 41/7/1 42/9/1 43/10/1 44/8/1
f 45/9/1 46/11/1 47/12/1 48/10/1
f 49/11/1 50/13/1 51/14/1 52/12/1
f 53/13/1 54/15/1 55/16/1 56/14/1
f 57/17/1 58/18/1 59/2/1 60/1/1
f 61/18/1 62/19/1 63/5/1 64/2/1
f 65/19/1 66/20/1 67/7/1 68/5/1
f 69/20/1 70/21/1 71/9/1 72/7/1
f 73/21/1 74/22/1 75/11/1 76/9/1
f 77/22/1 78/23/1 79/13/1 80/11/1
f 81/23/1 82/24/1 83/15/1 84/13/1
f 85/17/1 86/18/1 87/2/1 88/1/1
f 89/18/1 90/19/1 91/5/1 92/2/1
f 93/19/1 94/20/1 95/7/1 96/5/1
f 97/20/1 98/21/1 99/9/1 100/7/1
f 101/21/1 102/22/1 103/11/1 104/9/1
f 105/22/1 106/23/1 107/13/1 108/11/1
f 109/23/1 110/24/1 111/15/1 112/13/1
f 113/25/1 114/26/1 115/18/1 116/17/1
f 117/26/1 118/27/1 119/19/1 120/18/1
f 121/27/1 122/28/1 123/20/1 124/19/1
f 125/28/1 126/29/1 127/21/1 128/20/1
f 129/29/1 130/30/1 131/22/1 132/21/1
f 133/30/1 134/31/1 135/23/1 136/22/1
f 137/31/1 138/32/1 139/24/1 140/23/1
f 141/25/1 142/26/1 143/18/1 144/17/1
f 145/26/1 146/27/1 147/19/1 148/18/1
f 149/27/1 150/28/1 151/20/1 152/19/1
f 153/28/1 154/29/1 155/21/1 156/20/1
f 157/29/1 158/30/1 159/22/1 160/21/1
f 161/30/1 162/31/1 163/23/1 164/22/1
f 165/31/1 166/32/1 167/24/1 168/23/1
f 169/33/1 170/34/1 171/26/1 172/25/1
f 173/34/1 174/35/1 175/27/1 176/26/1
f 177/35/1 178/36/1 179/28/1 180/27/1
f 181/36/1 182/37/1 183/29/1 184/28/1
f 185/37/1 186/38/1 187/30/1 188/29/1
f 189/38/1 190/39/1 191/31/1 192/30/1
f 193/39/1 194/40/1 195/32/1 196/31/1
f 197/33/1 198/34/1 199/26/1 200/25/1
f 201/34/1 202/35/1 203/27/1 204/26/1
f 205/35/1 206/36/1 207/28/1 208/27/1
f 209/36/1 210/37/1 211/29/1 212/28/1
f 213/37/1 214/38/1 215/30/1 216/29/1
f 217/38/1 218/39/1 219/31/1 220/30/1
f 221/39/1 222/40/1 223/32/1 224/31/1
f 225/41/1 226/42/1 227/34/1 228/33/1
f 229/42/1 230/43/1 231/35/1 232/34/1
f 233/43/1 234/44/1 235/36/1 236/35/1
f 237/44/1 238/45/1 239/37/1 240/36/1
f 241/45/1 242/46/1 243/38/1 244/37/1
f 245/46/1 246/47/1 247/39/1 248/38/1
f 249/47/1 250/48/1 251/40/1 252/39/1
f 253/41/1 254/42/1 255/34/1 256/33/1
f 257/42/1 258/43/1 259/35/1 260/34/1
f 261/43/1 262/44/1 263/36/1 264/35/1
f 265/44/1 266/45/1 267/37/1 268/36/1
f 269/45/1 270/46/1 271/38/1 272/37/1
f 273/46/1 274/47/1 275/39/1 276/38/1
f 277/47/1 278/48/1 279/40/1 280/39/1
f 281/49/1 282/50/1 283/42/1 284/41/1
f 285/50/1 286/51/1 287/43/1 288/42/1
f 289/51/1 290/52/1 291/44/1 292/43/1
f 293/52/1 294/53/1 295/45/1 296/44/1
f 297/53/1 298/54/1 299/46/1 300/45/1
f 301/54/1 302/55/1 303/47/1 304/46/1
f 305/55/1 306/56/1 307/48/1 308/47/1
f 309/49/1 310/50/1 311/42/1 312/41/1
f 313/50/1 314/51/1 315/43/1 316/42/1
f 317/51/1 318/52/1 319/44/1 320/43/1
f 321/52/1 322/53/1 323/45/1 324/44/1
f 325/53/1 326/54/1 327/46/1 328/45/1
f 329/54/1 330/55/1 331/47/1 332/46/1
f 333/55/1 334/56/1 335/48/1 336/47/1

