# Tiled2Unity generated file. Do not modify by hand.
# Wavefront file for 'AnotherTest_mesh_0005.obj'

# Vertices (Count = 96)
v 0 -20 0
v -1 -20 0
v -1 -19 0
v 0 -19 0
v -1 -20 0
v -2 -20 0
v -2 -19 0
v -1 -19 0
v -2 -20 0
v -3 -20 0
v -3 -19 0
v -2 -19 0
v -3 -20 0
v -4 -20 0
v -4 -19 0
v -3 -19 0
v -4 -20 0
v -5 -20 0
v -5 -19 0
v -4 -19 0
v -5 -20 0
v -6 -20 0
v -6 -19 0
v -5 -19 0
v -6 -20 0
v -7 -20 0
v -7 -19 0
v -6 -19 0
v -7 -20 0
v -8 -20 0
v -8 -19 0
v -7 -19 0
v -8 -20 0
v -9 -20 0
v -9 -19 0
v -8 -19 0
v -9 -20 0
v -10 -20 0
v -10 -19 0
v -9 -19 0
v -10 -20 0
v -11 -20 0
v -11 -19 0
v -10 -19 0
v -11 -20 0
v -12 -20 0
v -12 -19 0
v -11 -19 0
v -12 -20 0
v -13 -20 0
v -13 -19 0
v -12 -19 0
v -13 -20 0
v -14 -20 0
v -14 -19 0
v -13 -19 0
v -14 -20 0
v -15 -20 0
v -15 -19 0
v -14 -19 0
v -15 -20 0
v -16 -20 0
v -16 -19 0
v -15 -19 0
v -16 -20 0
v -17 -20 0
v -17 -19 0
v -16 -19 0
v -17 -20 0
v -18 -20 0
v -18 -19 0
v -17 -19 0
v -18 -20 0
v -19 -20 0
v -19 -19 0
v -18 -19 0
v -19 -20 0
v -20 -20 0
v -20 -19 0
v -19 -19 0
v -20 -20 0
v -21 -20 0
v -21 -19 0
v -20 -19 0
v -21 -20 0
v -22 -20 0
v -22 -19 0
v -21 -19 0
v -22 -20 0
v -23 -20 0
v -23 -19 0
v -22 -19 0
v -23 -20 0
v -24 -20 0
v -24 -19 0
v -23 -19 0

# Texture cooridinates (Count = 14)
vt 0 0
vt 0.1488372 0
vt 0.1488372 1
vt 0 1
vt 0.2976744 0
vt 0.2976744 1
vt 0.4465116 0
vt 0.4465116 1
vt 0.5953488 0
vt 0.5953488 1
vt 0.744186 0
vt 0.744186 1
vt 0.8930233 0
vt 0.8930233 1

# Normal
vn 0 0 -1

# Mesh description
g AnotherTest_mesh_0005

# Faces
f 1/1/1 2/2/1 3/3/1 4/4/1
f 5/2/1 6/5/1 7/6/1 8/3/1
f 9/5/1 10/7/1 11/8/1 12/6/1
f 13/7/1 14/9/1 15/10/1 16/8/1
f 17/9/1 18/11/1 19/12/1 20/10/1
f 21/11/1 22/13/1 23/14/1 24/12/1
f 25/1/1 26/2/1 27/3/1 28/4/1
f 29/1/1 30/2/1 31/3/1 32/4/1
f 33/1/1 34/2/1 35/3/1 36/4/1
f 37/1/1 38/2/1 39/3/1 40/4/1
f 41/1/1 42/2/1 43/3/1 44/4/1
f 45/1/1 46/2/1 47/3/1 48/4/1
f 49/1/1 50/2/1 51/3/1 52/4/1
f 53/1/1 54/2/1 55/3/1 56/4/1
f 57/1/1 58/2/1 59/3/1 60/4/1
f 61/1/1 62/2/1 63/3/1 64/4/1
f 65/1/1 66/2/1 67/3/1 68/4/1
f 69/1/1 70/2/1 71/3/1 72/4/1
f 73/1/1 74/2/1 75/3/1 76/4/1
f 77/1/1 78/2/1 79/3/1 80/4/1
f 81/1/1 82/2/1 83/3/1 84/4/1
f 85/1/1 86/2/1 87/3/1 88/4/1
f 89/1/1 90/2/1 91/3/1 92/4/1
f 93/1/1 94/2/1 95/3/1 96/4/1

