# Tiled2Unity generated file. Do not modify by hand.
# Wavefront file for 'AnotherTest_mesh_0001.obj'

# Vertices (Count = 96)
v 0 -13 0
v -1 -13 0
v -1 -12 0
v 0 -12 0
v -1 -13 0
v -2 -13 0
v -2 -12 0
v -1 -12 0
v -2 -13 0
v -3 -13 0
v -3 -12 0
v -2 -12 0
v -3 -13 0
v -4 -13 0
v -4 -12 0
v -3 -12 0
v -4 -13 0
v -5 -13 0
v -5 -12 0
v -4 -12 0
v -5 -13 0
v -6 -13 0
v -6 -12 0
v -5 -12 0
v -6 -13 0
v -7 -13 0
v -7 -12 0
v -6 -12 0
v -7 -13 0
v -8 -13 0
v -8 -12 0
v -7 -12 0
v -8 -13 0
v -9 -13 0
v -9 -12 0
v -8 -12 0
v -9 -13 0
v -10 -13 0
v -10 -12 0
v -9 -12 0
v -10 -13 0
v -11 -13 0
v -11 -12 0
v -10 -12 0
v -11 -13 0
v -12 -13 0
v -12 -12 0
v -11 -12 0
v -12 -13 0
v -13 -13 0
v -13 -12 0
v -12 -12 0
v -13 -13 0
v -14 -13 0
v -14 -12 0
v -13 -12 0
v -14 -13 0
v -15 -13 0
v -15 -12 0
v -14 -12 0
v -15 -13 0
v -16 -13 0
v -16 -12 0
v -15 -12 0
v -16 -13 0
v -17 -13 0
v -17 -12 0
v -16 -12 0
v -17 -13 0
v -18 -13 0
v -18 -12 0
v -17 -12 0
v -18 -13 0
v -19 -13 0
v -19 -12 0
v -18 -12 0
v -19 -13 0
v -20 -13 0
v -20 -12 0
v -19 -12 0
v -20 -13 0
v -21 -13 0
v -21 -12 0
v -20 -12 0
v -21 -13 0
v -22 -13 0
v -22 -12 0
v -21 -12 0
v -22 -13 0
v -23 -13 0
v -23 -12 0
v -22 -12 0
v -23 -13 0
v -24 -13 0
v -24 -12 0
v -23 -12 0

# Texture cooridinates (Count = 14)
vt 0 0
vt 0.1488372 0
vt 0.1488372 1
vt 0 1
vt 0.2976744 0
vt 0.2976744 1
vt 0.4465116 0
vt 0.4465116 1
vt 0.5953488 0
vt 0.5953488 1
vt 0.744186 0
vt 0.744186 1
vt 0.8930233 0
vt 0.8930233 1

# Normal
vn 0 0 -1

# Mesh description
g AnotherTest_mesh_0001

# Faces
f 1/1/1 2/2/1 3/3/1 4/4/1
f 5/2/1 6/5/1 7/6/1 8/3/1
f 9/5/1 10/7/1 11/8/1 12/6/1
f 13/7/1 14/9/1 15/10/1 16/8/1
f 17/9/1 18/11/1 19/12/1 20/10/1
f 21/11/1 22/13/1 23/14/1 24/12/1
f 25/1/1 26/2/1 27/3/1 28/4/1
f 29/2/1 30/5/1 31/6/1 32/3/1
f 33/5/1 34/7/1 35/8/1 36/6/1
f 37/7/1 38/9/1 39/10/1 40/8/1
f 41/9/1 42/11/1 43/12/1 44/10/1
f 45/11/1 46/13/1 47/14/1 48/12/1
f 49/1/1 50/2/1 51/3/1 52/4/1
f 53/2/1 54/5/1 55/6/1 56/3/1
f 57/5/1 58/7/1 59/8/1 60/6/1
f 61/7/1 62/9/1 63/10/1 64/8/1
f 65/9/1 66/11/1 67/12/1 68/10/1
f 69/11/1 70/13/1 71/14/1 72/12/1
f 73/1/1 74/2/1 75/3/1 76/4/1
f 77/1/1 78/2/1 79/3/1 80/4/1
f 81/1/1 82/2/1 83/3/1 84/4/1
f 85/1/1 86/2/1 87/3/1 88/4/1
f 89/1/1 90/2/1 91/3/1 92/4/1
f 93/1/1 94/2/1 95/3/1 96/4/1

