# Tiled2Unity generated file. Do not modify by hand.
# Wavefront file for 'MainMenu_mesh_0002.obj'

# Vertices (Count = 56)
v 0 -20 -1
v -1 -20 -1
v -1 -19 -1
v 0 -19 -1
v -1 -20 -1
v -2 -20 -1
v -2 -19 -1
v -1 -19 -1
v -2 -20 -1
v -3 -20 -1
v -3 -19 -1
v -2 -19 -1
v -3 -20 -1
v -4 -20 -1
v -4 -19 -1
v -3 -19 -1
v -4 -20 -1
v -5 -20 -1
v -5 -19 -1
v -4 -19 -1
v -5 -20 -1
v -6 -20 -1
v -6 -19 -1
v -5 -19 -1
v -6 -20 -1
v -7 -20 -1
v -7 -19 -1
v -6 -19 -1
v -17 -20 -1
v -18 -20 -1
v -18 -19 -1
v -17 -19 -1
v -18 -20 -1
v -19 -20 -1
v -19 -19 -1
v -18 -19 -1
v -19 -20 -1
v -20 -20 -1
v -20 -19 -1
v -19 -19 -1
v -20 -20 -1
v -21 -20 -1
v -21 -19 -1
v -20 -19 -1
v -21 -20 -1
v -22 -20 -1
v -22 -19 -1
v -21 -19 -1
v -22 -20 -1
v -23 -20 -1
v -23 -19 -1
v -22 -19 -1
v -23 -20 -1
v -24 -20 -1
v -24 -19 -1
v -23 -19 -1

# Texture cooridinates (Count = 14)
vt 0 0
vt 0.1488372 0
vt 0.1488372 1
vt 0 1
vt 0.2976744 0
vt 0.2976744 1
vt 0.4465116 0
vt 0.4465116 1
vt 0.5953488 0
vt 0.5953488 1
vt 0.744186 0
vt 0.744186 1
vt 0.8930233 0
vt 0.8930233 1

# Normal
vn 0 0 -1

# Mesh description
g MainMenu_mesh_0002

# Faces
f 1/1/1 2/2/1 3/3/1 4/4/1
f 5/2/1 6/5/1 7/6/1 8/3/1
f 9/5/1 10/7/1 11/8/1 12/6/1
f 13/7/1 14/9/1 15/10/1 16/8/1
f 17/9/1 18/11/1 19/12/1 20/10/1
f 21/11/1 22/13/1 23/14/1 24/12/1
f 25/2/1 26/1/1 27/4/1 28/3/1
f 29/1/1 30/2/1 31/3/1 32/4/1
f 33/2/1 34/5/1 35/6/1 36/3/1
f 37/2/1 38/5/1 39/6/1 40/3/1
f 41/5/1 42/7/1 43/8/1 44/6/1
f 45/7/1 46/9/1 47/10/1 48/8/1
f 49/9/1 50/11/1 51/12/1 52/10/1
f 53/2/1 54/1/1 55/4/1 56/3/1

