# Tiled2Unity generated file. Do not modify by hand.
# Wavefront file for 'AboveSink_mesh_0002.obj'

# Vertices (Count = 96)
v -8 -3 -0.15
v -9 -3 -0.15
v -9 -2 -0.15
v -8 -2 -0.15
v -9 -3 -0.15
v -10 -3 -0.15
v -10 -2 -0.15
v -9 -2 -0.15
v -10 -3 -0.15
v -11 -3 -0.15
v -11 -2 -0.15
v -10 -2 -0.15
v -11 -3 -0.15
v -12 -3 -0.15
v -12 -2 -0.15
v -11 -2 -0.15
v -12 -3 -0.15
v -13 -3 -0.15
v -13 -2 -0.15
v -12 -2 -0.15
v -13 -3 -0.15
v -14 -3 -0.15
v -14 -2 -0.15
v -13 -2 -0.15
v -19 -3 -0.15
v -20 -3 -0.15
v -20 -2 -0.15
v -19 -2 -0.15
v -20 -3 -0.15
v -21 -3 -0.15
v -21 -2 -0.15
v -20 -2 -0.15
v -21 -3 -0.15
v -22 -3 -0.15
v -22 -2 -0.15
v -21 -2 -0.15
v -22 -3 -0.15
v -23 -3 -0.15
v -23 -2 -0.15
v -22 -2 -0.15
v -23 -3 -0.15
v -24 -3 -0.15
v -24 -2 -0.15
v -23 -2 -0.15
v -24 -3 -0.15
v -25 -3 -0.15
v -25 -2 -0.15
v -24 -2 -0.15
v -8 -4 -0.2
v -9 -4 -0.2
v -9 -3 -0.2
v -8 -3 -0.2
v -9 -4 -0.2
v -10 -4 -0.2
v -10 -3 -0.2
v -9 -3 -0.2
v -10 -4 -0.2
v -11 -4 -0.2
v -11 -3 -0.2
v -10 -3 -0.2
v -11 -4 -0.2
v -12 -4 -0.2
v -12 -3 -0.2
v -11 -3 -0.2
v -12 -4 -0.2
v -13 -4 -0.2
v -13 -3 -0.2
v -12 -3 -0.2
v -13 -4 -0.2
v -14 -4 -0.2
v -14 -3 -0.2
v -13 -3 -0.2
v -19 -4 -0.2
v -20 -4 -0.2
v -20 -3 -0.2
v -19 -3 -0.2
v -20 -4 -0.2
v -21 -4 -0.2
v -21 -3 -0.2
v -20 -3 -0.2
v -21 -4 -0.2
v -22 -4 -0.2
v -22 -3 -0.2
v -21 -3 -0.2
v -22 -4 -0.2
v -23 -4 -0.2
v -23 -3 -0.2
v -22 -3 -0.2
v -23 -4 -0.2
v -24 -4 -0.2
v -24 -3 -0.2
v -23 -3 -0.2
v -24 -4 -0.2
v -25 -4 -0.2
v -25 -3 -0.2
v -24 -3 -0.2

# Texture cooridinates (Count = 21)
vt 0 0.5
vt 0.1666667 0.5
vt 0.1666667 1
vt 0 1
vt 0.3333333 0.5
vt 0.3333333 1
vt 0.5 0.5
vt 0.5 1
vt 0.6666667 0.5
vt 0.6666667 1
vt 0.8333333 0.5
vt 0.8333333 1
vt 1 0.5
vt 1 1
vt 0 0
vt 0.1666667 0
vt 0.3333333 0
vt 0.5 0
vt 0.6666667 0
vt 0.8333333 0
vt 1 0

# Normal
vn 0 0 -1

# Mesh description
g AboveSink_mesh_0002

# Faces
f 1/1/1 2/2/1 3/3/1 4/4/1
f 5/2/1 6/5/1 7/6/1 8/3/1
f 9/5/1 10/7/1 11/8/1 12/6/1
f 13/7/1 14/9/1 15/10/1 16/8/1
f 17/9/1 18/11/1 19/12/1 20/10/1
f 21/11/1 22/13/1 23/14/1 24/12/1
f 25/1/1 26/2/1 27/3/1 28/4/1
f 29/2/1 30/5/1 31/6/1 32/3/1
f 33/5/1 34/7/1 35/8/1 36/6/1
f 37/7/1 38/9/1 39/10/1 40/8/1
f 41/9/1 42/11/1 43/12/1 44/10/1
f 45/11/1 46/13/1 47/14/1 48/12/1
f 49/15/1 50/16/1 51/2/1 52/1/1
f 53/16/1 54/17/1 55/5/1 56/2/1
f 57/17/1 58/18/1 59/7/1 60/5/1
f 61/18/1 62/19/1 63/9/1 64/7/1
f 65/19/1 66/20/1 67/11/1 68/9/1
f 69/20/1 70/21/1 71/13/1 72/11/1
f 73/15/1 74/16/1 75/2/1 76/1/1
f 77/16/1 78/17/1 79/5/1 80/2/1
f 81/17/1 82/18/1 83/7/1 84/5/1
f 85/18/1 86/19/1 87/9/1 88/7/1
f 89/19/1 90/20/1 91/11/1 92/9/1
f 93/20/1 94/21/1 95/13/1 96/11/1

